<svg xmlns="http://www.w3.org/2000/svg" width="3600" height="840" viewBox="0 0 3600 840">
<rect width="100%" height="100%" fill="white"/>
<style>text{font-family:Arial,Helvetica,sans-serif;dominant-baseline:alphabetic}</style>
<line x1="850.00" y1="99.00" x2="3430.00" y2="99.00" stroke="#f1f3f4" stroke-width="0.80" opacity="0.800"/>
<line x1="850.00" y1="381.00" x2="3430.00" y2="381.00" stroke="#f1f3f4" stroke-width="0.80" opacity="0.800"/>
<line x1="850.00" y1="539.00" x2="3430.00" y2="539.00" stroke="#f1f3f4" stroke-width="0.80" opacity="0.800"/>
<text x="814.0" y="371.0" font-size="57.0" font-weight="700" fill="#202124" text-anchor="end">PAN027 maternal child</text>
<rect x="850.00" y="345.00" width="211.11" height="28.00" rx="0.00" fill="#eef0f2" stroke="#ffffff" stroke-width="1.10" opacity="1.000"/>
<text x="955.6" y="336.0" font-size="36.1" font-weight="600" fill="#5f6368" text-anchor="middle">1</text>
<line x1="850.00" y1="25.00" x2="850.00" y2="625.00" stroke="#e8eaed" stroke-width="0.70" opacity="0.550"/>
<rect x="1061.11" y="345.00" width="207.25" height="28.00" rx="0.00" fill="#dfe3e6" stroke="#ffffff" stroke-width="1.10" opacity="1.000"/>
<text x="1164.7" y="336.0" font-size="36.1" font-weight="600" fill="#5f6368" text-anchor="middle">2</text>
<rect x="1268.36" y="345.00" width="172.13" height="28.00" rx="0.00" fill="#eef0f2" stroke="#ffffff" stroke-width="1.10" opacity="1.000"/>
<text x="1354.4" y="336.0" font-size="36.1" font-weight="600" fill="#5f6368" text-anchor="middle">3</text>
<line x1="1268.36" y1="25.00" x2="1268.36" y2="625.00" stroke="#e8eaed" stroke-width="0.70" opacity="0.550"/>
<rect x="1440.49" y="345.00" width="164.42" height="28.00" rx="0.00" fill="#dfe3e6" stroke="#ffffff" stroke-width="1.10" opacity="1.000"/>
<text x="1522.7" y="336.0" font-size="36.1" font-weight="600" fill="#5f6368" text-anchor="middle">4</text>
<rect x="1604.92" y="345.00" width="157.11" height="28.00" rx="0.00" fill="#eef0f2" stroke="#ffffff" stroke-width="1.10" opacity="1.000"/>
<text x="1683.5" y="336.0" font-size="36.1" font-weight="600" fill="#5f6368" text-anchor="middle">5</text>
<line x1="1604.92" y1="25.00" x2="1604.92" y2="625.00" stroke="#e8eaed" stroke-width="0.70" opacity="0.550"/>
<rect x="1762.03" y="345.00" width="146.89" height="28.00" rx="0.00" fill="#dfe3e6" stroke="#ffffff" stroke-width="1.10" opacity="1.000"/>
<text x="1835.5" y="336.0" font-size="36.1" font-weight="600" fill="#5f6368" text-anchor="middle">6</text>
<rect x="1908.91" y="345.00" width="136.88" height="28.00" rx="0.00" fill="#eef0f2" stroke="#ffffff" stroke-width="1.10" opacity="1.000"/>
<text x="1977.4" y="336.0" font-size="36.1" font-weight="600" fill="#5f6368" text-anchor="middle">7</text>
<rect x="2045.79" y="345.00" width="125.78" height="28.00" rx="0.00" fill="#dfe3e6" stroke="#ffffff" stroke-width="1.10" opacity="1.000"/>
<text x="2108.7" y="336.0" font-size="36.1" font-weight="600" fill="#5f6368" text-anchor="middle">8</text>
<rect x="2171.57" y="345.00" width="110.31" height="28.00" rx="0.00" fill="#eef0f2" stroke="#ffffff" stroke-width="1.10" opacity="1.000"/>
<text x="2226.7" y="336.0" font-size="36.1" font-weight="600" fill="#5f6368" text-anchor="middle">9</text>
<line x1="2171.57" y1="25.00" x2="2171.57" y2="625.00" stroke="#e8eaed" stroke-width="0.70" opacity="0.550"/>
<rect x="2281.88" y="345.00" width="114.84" height="28.00" rx="0.00" fill="#dfe3e6" stroke="#ffffff" stroke-width="1.10" opacity="1.000"/>
<text x="2339.3" y="336.0" font-size="36.1" font-weight="600" fill="#5f6368" text-anchor="middle">10</text>
<rect x="2396.72" y="345.00" width="115.20" height="28.00" rx="0.00" fill="#eef0f2" stroke="#ffffff" stroke-width="1.10" opacity="1.000"/>
<text x="2454.3" y="336.0" font-size="36.1" font-weight="600" fill="#5f6368" text-anchor="middle">11</text>
<rect x="2511.93" y="345.00" width="115.25" height="28.00" rx="0.00" fill="#dfe3e6" stroke="#ffffff" stroke-width="1.10" opacity="1.000"/>
<text x="2569.6" y="336.0" font-size="36.1" font-weight="600" fill="#5f6368" text-anchor="middle">12</text>
<rect x="2627.18" y="345.00" width="93.53" height="28.00" rx="0.00" fill="#eef0f2" stroke="#ffffff" stroke-width="1.10" opacity="1.000"/>
<text x="2673.9" y="336.0" font-size="36.1" font-weight="600" fill="#5f6368" text-anchor="middle">13</text>
<line x1="2627.18" y1="25.00" x2="2627.18" y2="625.00" stroke="#e8eaed" stroke-width="0.70" opacity="0.550"/>
<rect x="2720.71" y="345.00" width="85.81" height="28.00" rx="0.00" fill="#dfe3e6" stroke="#ffffff" stroke-width="1.10" opacity="1.000"/>
<text x="2763.6" y="336.0" font-size="36.1" font-weight="600" fill="#5f6368" text-anchor="middle">14</text>
<rect x="2806.52" y="345.00" width="83.78" height="28.00" rx="0.00" fill="#eef0f2" stroke="#ffffff" stroke-width="1.10" opacity="1.000"/>
<text x="2848.4" y="336.0" font-size="36.1" font-weight="600" fill="#5f6368" text-anchor="middle">15</text>
<line x1="2806.52" y1="25.00" x2="2806.52" y2="625.00" stroke="#e8eaed" stroke-width="0.70" opacity="0.550"/>
<rect x="2890.30" y="345.00" width="78.28" height="28.00" rx="0.00" fill="#dfe3e6" stroke="#ffffff" stroke-width="1.10" opacity="1.000"/>
<text x="2929.4" y="336.0" font-size="36.1" font-weight="600" fill="#5f6368" text-anchor="middle">16</text>
<rect x="2968.57" y="345.00" width="71.97" height="28.00" rx="0.00" fill="#eef0f2" stroke="#ffffff" stroke-width="1.10" opacity="1.000"/>
<text x="3004.6" y="336.0" font-size="36.1" font-weight="600" fill="#5f6368" text-anchor="middle">17</text>
<rect x="3040.54" y="345.00" width="69.36" height="28.00" rx="0.00" fill="#dfe3e6" stroke="#ffffff" stroke-width="1.10" opacity="1.000"/>
<text x="3075.2" y="336.0" font-size="36.1" font-weight="600" fill="#5f6368" text-anchor="middle">18</text>
<rect x="3109.90" y="345.00" width="53.63" height="28.00" rx="0.00" fill="#eef0f2" stroke="#ffffff" stroke-width="1.10" opacity="1.000"/>
<text x="3136.7" y="336.0" font-size="36.1" font-weight="600" fill="#5f6368" text-anchor="middle">19</text>
<rect x="3163.53" y="345.00" width="56.60" height="28.00" rx="0.00" fill="#dfe3e6" stroke="#ffffff" stroke-width="1.10" opacity="1.000"/>
<text x="3191.8" y="336.0" font-size="36.1" font-weight="600" fill="#5f6368" text-anchor="middle">20</text>
<rect x="3220.13" y="345.00" width="37.08" height="28.00" rx="0.00" fill="#eef0f2" stroke="#ffffff" stroke-width="1.10" opacity="1.000"/>
<line x1="3220.13" y1="25.00" x2="3220.13" y2="625.00" stroke="#e8eaed" stroke-width="0.70" opacity="0.550"/>
<rect x="3257.21" y="345.00" width="41.43" height="28.00" rx="0.00" fill="#dfe3e6" stroke="#ffffff" stroke-width="1.10" opacity="1.000"/>
<text x="3277.9" y="336.0" font-size="36.1" font-weight="600" fill="#5f6368" text-anchor="middle">22</text>
<line x1="3257.21" y1="25.00" x2="3257.21" y2="625.00" stroke="#e8eaed" stroke-width="0.70" opacity="0.550"/>
<rect x="3298.64" y="345.00" width="131.36" height="28.00" rx="0.00" fill="#eef0f2" stroke="#ffffff" stroke-width="1.10" opacity="1.000"/>
<text x="3364.3" y="336.0" font-size="36.1" font-weight="600" fill="#5f6368" text-anchor="middle">X</text>
<line x1="3298.64" y1="25.00" x2="3298.64" y2="625.00" stroke="#e8eaed" stroke-width="0.70" opacity="0.550"/>
<rect x="850.00" y="345.00" width="2580.00" height="28.00" rx="0.00" fill="none" stroke="#bdc1c6" stroke-width="1.10" opacity="1.000"/>
<text x="814.0" y="141.0" font-size="57.0" font-weight="700" fill="#202124" text-anchor="end">PAN010 mother h1</text>
<rect x="850.00" y="115.00" width="207.85" height="28.00" rx="0.00" fill="#eef0f2" stroke="#ffffff" stroke-width="1.10" opacity="1.000"/>
<text x="953.9" y="106.0" font-size="36.1" font-weight="600" fill="#5f6368" text-anchor="middle">1</text>
<line x1="850.00" y1="25.00" x2="850.00" y2="625.00" stroke="#e8eaed" stroke-width="0.70" opacity="0.550"/>
<rect x="1057.85" y="115.00" width="207.02" height="28.00" rx="0.00" fill="#dfe3e6" stroke="#ffffff" stroke-width="1.10" opacity="1.000"/>
<text x="1161.4" y="106.0" font-size="36.1" font-weight="600" fill="#5f6368" text-anchor="middle">2</text>
<rect x="1264.87" y="115.00" width="173.82" height="28.00" rx="0.00" fill="#eef0f2" stroke="#ffffff" stroke-width="1.10" opacity="1.000"/>
<text x="1351.8" y="106.0" font-size="36.1" font-weight="600" fill="#5f6368" text-anchor="middle">3</text>
<line x1="1264.87" y1="25.00" x2="1264.87" y2="625.00" stroke="#e8eaed" stroke-width="0.70" opacity="0.550"/>
<rect x="1438.69" y="115.00" width="163.47" height="28.00" rx="0.00" fill="#dfe3e6" stroke="#ffffff" stroke-width="1.10" opacity="1.000"/>
<text x="1520.4" y="106.0" font-size="36.1" font-weight="600" fill="#5f6368" text-anchor="middle">4</text>
<rect x="1602.16" y="115.00" width="156.91" height="28.00" rx="0.00" fill="#eef0f2" stroke="#ffffff" stroke-width="1.10" opacity="1.000"/>
<text x="1680.6" y="106.0" font-size="36.1" font-weight="600" fill="#5f6368" text-anchor="middle">5</text>
<line x1="1602.16" y1="25.00" x2="1602.16" y2="625.00" stroke="#e8eaed" stroke-width="0.70" opacity="0.550"/>
<rect x="1759.07" y="115.00" width="146.67" height="28.00" rx="0.00" fill="#dfe3e6" stroke="#ffffff" stroke-width="1.10" opacity="1.000"/>
<text x="1832.4" y="106.0" font-size="36.1" font-weight="600" fill="#5f6368" text-anchor="middle">6</text>
<rect x="1905.75" y="115.00" width="136.82" height="28.00" rx="0.00" fill="#eef0f2" stroke="#ffffff" stroke-width="1.10" opacity="1.000"/>
<text x="1974.2" y="106.0" font-size="36.1" font-weight="600" fill="#5f6368" text-anchor="middle">7</text>
<rect x="2042.56" y="115.00" width="125.47" height="28.00" rx="0.00" fill="#dfe3e6" stroke="#ffffff" stroke-width="1.10" opacity="1.000"/>
<text x="2105.3" y="106.0" font-size="36.1" font-weight="600" fill="#5f6368" text-anchor="middle">8</text>
<rect x="2168.03" y="115.00" width="110.25" height="28.00" rx="0.00" fill="#eef0f2" stroke="#ffffff" stroke-width="1.10" opacity="1.000"/>
<text x="2223.2" y="106.0" font-size="36.1" font-weight="600" fill="#5f6368" text-anchor="middle">9</text>
<line x1="2168.03" y1="25.00" x2="2168.03" y2="625.00" stroke="#e8eaed" stroke-width="0.70" opacity="0.550"/>
<rect x="2278.28" y="115.00" width="114.73" height="28.00" rx="0.00" fill="#dfe3e6" stroke="#ffffff" stroke-width="1.10" opacity="1.000"/>
<text x="2335.6" y="106.0" font-size="36.1" font-weight="600" fill="#5f6368" text-anchor="middle">10</text>
<rect x="2393.01" y="115.00" width="115.06" height="28.00" rx="0.00" fill="#eef0f2" stroke="#ffffff" stroke-width="1.10" opacity="1.000"/>
<text x="2450.5" y="106.0" font-size="36.1" font-weight="600" fill="#5f6368" text-anchor="middle">11</text>
<rect x="2508.07" y="115.00" width="113.98" height="28.00" rx="0.00" fill="#dfe3e6" stroke="#ffffff" stroke-width="1.10" opacity="1.000"/>
<text x="2565.1" y="106.0" font-size="36.1" font-weight="600" fill="#5f6368" text-anchor="middle">12</text>
<rect x="2622.05" y="115.00" width="95.19" height="28.00" rx="0.00" fill="#eef0f2" stroke="#ffffff" stroke-width="1.10" opacity="1.000"/>
<text x="2669.7" y="106.0" font-size="36.1" font-weight="600" fill="#5f6368" text-anchor="middle">13</text>
<line x1="2622.05" y1="25.00" x2="2622.05" y2="625.00" stroke="#e8eaed" stroke-width="0.70" opacity="0.550"/>
<rect x="2717.25" y="115.00" width="88.04" height="28.00" rx="0.00" fill="#dfe3e6" stroke="#ffffff" stroke-width="1.10" opacity="1.000"/>
<text x="2761.3" y="106.0" font-size="36.1" font-weight="600" fill="#5f6368" text-anchor="middle">14</text>
<rect x="2805.28" y="115.00" width="85.44" height="28.00" rx="0.00" fill="#eef0f2" stroke="#ffffff" stroke-width="1.10" opacity="1.000"/>
<text x="2848.0" y="106.0" font-size="36.1" font-weight="600" fill="#5f6368" text-anchor="middle">15</text>
<line x1="2805.28" y1="25.00" x2="2805.28" y2="625.00" stroke="#e8eaed" stroke-width="0.70" opacity="0.550"/>
<rect x="2890.72" y="115.00" width="78.02" height="28.00" rx="0.00" fill="#dfe3e6" stroke="#ffffff" stroke-width="1.10" opacity="1.000"/>
<text x="2929.7" y="106.0" font-size="36.1" font-weight="600" fill="#5f6368" text-anchor="middle">16</text>
<rect x="2968.74" y="115.00" width="71.40" height="28.00" rx="0.00" fill="#eef0f2" stroke="#ffffff" stroke-width="1.10" opacity="1.000"/>
<text x="3004.4" y="106.0" font-size="36.1" font-weight="600" fill="#5f6368" text-anchor="middle">17</text>
<rect x="3040.14" y="115.00" width="68.98" height="28.00" rx="0.00" fill="#dfe3e6" stroke="#ffffff" stroke-width="1.10" opacity="1.000"/>
<text x="3074.6" y="106.0" font-size="36.1" font-weight="600" fill="#5f6368" text-anchor="middle">18</text>
<rect x="3109.12" y="115.00" width="53.65" height="28.00" rx="0.00" fill="#eef0f2" stroke="#ffffff" stroke-width="1.10" opacity="1.000"/>
<text x="3135.9" y="106.0" font-size="36.1" font-weight="600" fill="#5f6368" text-anchor="middle">19</text>
<rect x="3162.76" y="115.00" width="56.46" height="28.00" rx="0.00" fill="#dfe3e6" stroke="#ffffff" stroke-width="1.10" opacity="1.000"/>
<text x="3191.0" y="106.0" font-size="36.1" font-weight="600" fill="#5f6368" text-anchor="middle">20</text>
<rect x="3219.22" y="115.00" width="37.03" height="28.00" rx="0.00" fill="#eef0f2" stroke="#ffffff" stroke-width="1.10" opacity="1.000"/>
<line x1="3219.22" y1="25.00" x2="3219.22" y2="625.00" stroke="#e8eaed" stroke-width="0.70" opacity="0.550"/>
<rect x="3256.26" y="115.00" width="42.00" height="28.00" rx="0.00" fill="#dfe3e6" stroke="#ffffff" stroke-width="1.10" opacity="1.000"/>
<text x="3277.3" y="106.0" font-size="36.1" font-weight="600" fill="#5f6368" text-anchor="middle">22</text>
<line x1="3256.26" y1="25.00" x2="3256.26" y2="625.00" stroke="#e8eaed" stroke-width="0.70" opacity="0.550"/>
<rect x="3298.25" y="115.00" width="131.75" height="28.00" rx="0.00" fill="#eef0f2" stroke="#ffffff" stroke-width="1.10" opacity="1.000"/>
<text x="3364.1" y="106.0" font-size="36.1" font-weight="600" fill="#5f6368" text-anchor="middle">X</text>
<line x1="3298.25" y1="25.00" x2="3298.25" y2="625.00" stroke="#e8eaed" stroke-width="0.70" opacity="0.550"/>
<rect x="850.00" y="115.00" width="2580.00" height="28.00" rx="0.00" fill="none" stroke="#bdc1c6" stroke-width="1.10" opacity="1.000"/>
<text x="814.0" y="581.0" font-size="57.0" font-weight="700" fill="#202124" text-anchor="end">PAN010 mother h2</text>
<rect x="850.00" y="555.00" width="210.14" height="28.00" rx="0.00" fill="#eef0f2" stroke="#ffffff" stroke-width="1.10" opacity="1.000"/>
<text x="955.1" y="546.0" font-size="36.1" font-weight="600" fill="#5f6368" text-anchor="middle">1</text>
<line x1="850.00" y1="25.00" x2="850.00" y2="625.00" stroke="#e8eaed" stroke-width="0.70" opacity="0.550"/>
<rect x="1060.14" y="555.00" width="205.49" height="28.00" rx="0.00" fill="#dfe3e6" stroke="#ffffff" stroke-width="1.10" opacity="1.000"/>
<text x="1162.9" y="546.0" font-size="36.1" font-weight="600" fill="#5f6368" text-anchor="middle">2</text>
<rect x="1265.63" y="555.00" width="170.90" height="28.00" rx="0.00" fill="#eef0f2" stroke="#ffffff" stroke-width="1.10" opacity="1.000"/>
<text x="1351.1" y="546.0" font-size="36.1" font-weight="600" fill="#5f6368" text-anchor="middle">3</text>
<line x1="1265.63" y1="25.00" x2="1265.63" y2="625.00" stroke="#e8eaed" stroke-width="0.70" opacity="0.550"/>
<rect x="1436.52" y="555.00" width="163.11" height="28.00" rx="0.00" fill="#dfe3e6" stroke="#ffffff" stroke-width="1.10" opacity="1.000"/>
<text x="1518.1" y="546.0" font-size="36.1" font-weight="600" fill="#5f6368" text-anchor="middle">4</text>
<rect x="1599.63" y="555.00" width="154.64" height="28.00" rx="0.00" fill="#eef0f2" stroke="#ffffff" stroke-width="1.10" opacity="1.000"/>
<text x="1676.9" y="546.0" font-size="36.1" font-weight="600" fill="#5f6368" text-anchor="middle">5</text>
<line x1="1599.63" y1="25.00" x2="1599.63" y2="625.00" stroke="#e8eaed" stroke-width="0.70" opacity="0.550"/>
<rect x="1754.27" y="555.00" width="146.30" height="28.00" rx="0.00" fill="#dfe3e6" stroke="#ffffff" stroke-width="1.10" opacity="1.000"/>
<text x="1827.4" y="546.0" font-size="36.1" font-weight="600" fill="#5f6368" text-anchor="middle">6</text>
<rect x="1900.57" y="555.00" width="136.80" height="28.00" rx="0.00" fill="#eef0f2" stroke="#ffffff" stroke-width="1.10" opacity="1.000"/>
<text x="1969.0" y="546.0" font-size="36.1" font-weight="600" fill="#5f6368" text-anchor="middle">7</text>
<rect x="2037.37" y="555.00" width="123.96" height="28.00" rx="0.00" fill="#dfe3e6" stroke="#ffffff" stroke-width="1.10" opacity="1.000"/>
<text x="2099.4" y="546.0" font-size="36.1" font-weight="600" fill="#5f6368" text-anchor="middle">8</text>
<rect x="2161.34" y="555.00" width="116.38" height="28.00" rx="0.00" fill="#eef0f2" stroke="#ffffff" stroke-width="1.10" opacity="1.000"/>
<text x="2219.5" y="546.0" font-size="36.1" font-weight="600" fill="#5f6368" text-anchor="middle">9</text>
<line x1="2161.34" y1="25.00" x2="2161.34" y2="625.00" stroke="#e8eaed" stroke-width="0.70" opacity="0.550"/>
<rect x="2277.71" y="555.00" width="114.27" height="28.00" rx="0.00" fill="#dfe3e6" stroke="#ffffff" stroke-width="1.10" opacity="1.000"/>
<text x="2334.8" y="546.0" font-size="36.1" font-weight="600" fill="#5f6368" text-anchor="middle">10</text>
<rect x="2391.98" y="555.00" width="114.42" height="28.00" rx="0.00" fill="#eef0f2" stroke="#ffffff" stroke-width="1.10" opacity="1.000"/>
<text x="2449.2" y="546.0" font-size="36.1" font-weight="600" fill="#5f6368" text-anchor="middle">11</text>
<rect x="2506.40" y="555.00" width="114.57" height="28.00" rx="0.00" fill="#dfe3e6" stroke="#ffffff" stroke-width="1.10" opacity="1.000"/>
<text x="2563.7" y="546.0" font-size="36.1" font-weight="600" fill="#5f6368" text-anchor="middle">12</text>
<rect x="2620.97" y="555.00" width="91.52" height="28.00" rx="0.00" fill="#eef0f2" stroke="#ffffff" stroke-width="1.10" opacity="1.000"/>
<text x="2666.7" y="546.0" font-size="36.1" font-weight="600" fill="#5f6368" text-anchor="middle">13</text>
<line x1="2620.97" y1="25.00" x2="2620.97" y2="625.00" stroke="#e8eaed" stroke-width="0.70" opacity="0.550"/>
<rect x="2712.48" y="555.00" width="86.34" height="28.00" rx="0.00" fill="#dfe3e6" stroke="#ffffff" stroke-width="1.10" opacity="1.000"/>
<text x="2755.7" y="546.0" font-size="36.1" font-weight="600" fill="#5f6368" text-anchor="middle">14</text>
<rect x="2798.83" y="555.00" width="83.94" height="28.00" rx="0.00" fill="#eef0f2" stroke="#ffffff" stroke-width="1.10" opacity="1.000"/>
<text x="2840.8" y="546.0" font-size="36.1" font-weight="600" fill="#5f6368" text-anchor="middle">15</text>
<line x1="2798.83" y1="25.00" x2="2798.83" y2="625.00" stroke="#e8eaed" stroke-width="0.70" opacity="0.550"/>
<rect x="2882.76" y="555.00" width="85.64" height="28.00" rx="0.00" fill="#dfe3e6" stroke="#ffffff" stroke-width="1.10" opacity="1.000"/>
<text x="2925.6" y="546.0" font-size="36.1" font-weight="600" fill="#5f6368" text-anchor="middle">16</text>
<rect x="2968.40" y="555.00" width="71.54" height="28.00" rx="0.00" fill="#eef0f2" stroke="#ffffff" stroke-width="1.10" opacity="1.000"/>
<text x="3004.2" y="546.0" font-size="36.1" font-weight="600" fill="#5f6368" text-anchor="middle">17</text>
<rect x="3039.94" y="555.00" width="68.92" height="28.00" rx="0.00" fill="#dfe3e6" stroke="#ffffff" stroke-width="1.10" opacity="1.000"/>
<text x="3074.4" y="546.0" font-size="36.1" font-weight="600" fill="#5f6368" text-anchor="middle">18</text>
<rect x="3108.86" y="555.00" width="54.52" height="28.00" rx="0.00" fill="#eef0f2" stroke="#ffffff" stroke-width="1.10" opacity="1.000"/>
<text x="3136.1" y="546.0" font-size="36.1" font-weight="600" fill="#5f6368" text-anchor="middle">19</text>
<rect x="3163.38" y="555.00" width="57.34" height="28.00" rx="0.00" fill="#dfe3e6" stroke="#ffffff" stroke-width="1.10" opacity="1.000"/>
<text x="3192.0" y="546.0" font-size="36.1" font-weight="600" fill="#5f6368" text-anchor="middle">20</text>
<rect x="3220.72" y="555.00" width="37.54" height="28.00" rx="0.00" fill="#eef0f2" stroke="#ffffff" stroke-width="1.10" opacity="1.000"/>
<line x1="3220.72" y1="25.00" x2="3220.72" y2="625.00" stroke="#e8eaed" stroke-width="0.70" opacity="0.550"/>
<rect x="3258.26" y="555.00" width="41.16" height="28.00" rx="0.00" fill="#dfe3e6" stroke="#ffffff" stroke-width="1.10" opacity="1.000"/>
<text x="3278.8" y="546.0" font-size="36.1" font-weight="600" fill="#5f6368" text-anchor="middle">22</text>
<line x1="3258.26" y1="25.00" x2="3258.26" y2="625.00" stroke="#e8eaed" stroke-width="0.70" opacity="0.550"/>
<rect x="3299.42" y="555.00" width="130.58" height="28.00" rx="0.00" fill="#eef0f2" stroke="#ffffff" stroke-width="1.10" opacity="1.000"/>
<text x="3364.7" y="546.0" font-size="36.1" font-weight="600" fill="#5f6368" text-anchor="middle">X</text>
<line x1="3299.42" y1="25.00" x2="3299.42" y2="625.00" stroke="#e8eaed" stroke-width="0.70" opacity="0.550"/>
<rect x="850.00" y="555.00" width="2580.00" height="28.00" rx="0.00" fill="none" stroke="#bdc1c6" stroke-width="1.10" opacity="1.000"/>
<path d="M 3221.91 151.00 C 3221.91 240.28, 2630.15 247.72, 2630.15 337.00 L 2637.15 337.00 C 2637.15 247.72, 3228.91 240.28, 3228.91 151.00 Z" fill="#6f6f6f" stroke="none" stroke-width="0.00" opacity="0.340"/>
<path d="M 3222.36 151.00 C 3222.36 240.28, 2630.50 247.72, 2630.50 337.00 L 2637.50 337.00 C 2637.50 247.72, 3229.36 240.28, 3229.36 151.00 Z" fill="#6f6f6f" stroke="none" stroke-width="0.00" opacity="0.340"/>
<path d="M 3216.39 151.00 C 3216.39 240.28, 2803.91 247.72, 2803.91 337.00 L 2810.91 337.00 C 2810.91 247.72, 3223.39 240.28, 3223.39 151.00 Z" fill="#6f6f6f" stroke="none" stroke-width="0.00" opacity="0.340"/>
<path d="M 2716.75 151.00 C 2716.75 240.28, 2806.61 247.72, 2806.61 337.00 L 2813.61 337.00 C 2813.61 247.72, 2723.75 240.28, 2723.75 151.00 Z" fill="#6f6f6f" stroke="none" stroke-width="0.00" opacity="0.340"/>
<path d="M 2619.59 547.00 C 2619.59 467.32, 2806.94 460.68, 2806.94 381.00 L 2813.94 381.00 C 2813.94 460.68, 2626.59 467.32, 2626.59 547.00 Z" fill="#6f6f6f" stroke="none" stroke-width="0.00" opacity="0.340"/>
<path d="M 2620.92 151.00 C 2620.92 240.28, 2806.99 247.72, 2806.99 337.00 L 2813.99 337.00 C 2813.99 247.72, 2627.92 240.28, 2627.92 151.00 Z" fill="#6f6f6f" stroke="none" stroke-width="0.00" opacity="0.340"/>
<path d="M 2711.35 547.00 C 2711.35 467.32, 2807.07 460.68, 2807.07 381.00 L 2814.07 381.00 C 2814.07 460.68, 2718.35 467.32, 2718.35 547.00 Z" fill="#6f6f6f" stroke="none" stroke-width="0.00" opacity="0.340"/>
<path d="M 3222.02 151.00 C 3222.02 240.28, 2630.25 247.72, 2630.25 337.00 L 2637.25 337.00 C 2637.25 247.72, 3229.02 240.28, 3229.02 151.00 Z" fill="#6f6f6f" stroke="none" stroke-width="0.00" opacity="0.340"/>
<path d="M 3222.47 151.00 C 3222.47 240.28, 2630.62 247.72, 2630.62 337.00 L 2637.62 337.00 C 2637.62 247.72, 3229.47 240.28, 3229.47 151.00 Z" fill="#6f6f6f" stroke="none" stroke-width="0.00" opacity="0.340"/>
<path d="M 2617.78 547.00 C 2617.78 467.32, 2803.33 460.68, 2803.33 381.00 L 2810.33 381.00 C 2810.33 460.68, 2624.78 467.32, 2624.78 547.00 Z" fill="#6f6f6f" stroke="none" stroke-width="0.00" opacity="0.340"/>
<path d="M 2710.96 547.00 C 2710.96 467.32, 2806.69 460.68, 2806.69 381.00 L 2813.69 381.00 C 2813.69 460.68, 2717.96 467.32, 2717.96 547.00 Z" fill="#6f6f6f" stroke="none" stroke-width="0.00" opacity="0.340"/>
<path d="M 3217.58 151.00 C 3217.58 240.28, 3257.09 247.72, 3257.09 337.00 L 3264.09 337.00 C 3264.09 247.72, 3224.58 240.28, 3224.58 151.00 Z" fill="#6f6f6f" stroke="none" stroke-width="0.00" opacity="0.340"/>
<path d="M 3222.03 151.00 C 3222.03 240.28, 2630.26 247.72, 2630.26 337.00 L 2637.26 337.00 C 2637.26 247.72, 3229.03 240.28, 3229.03 151.00 Z" fill="#6f6f6f" stroke="none" stroke-width="0.00" opacity="0.340"/>
<path d="M 2716.74 151.00 C 2716.74 240.28, 2806.59 247.72, 2806.59 337.00 L 2813.59 337.00 C 2813.59 247.72, 2723.74 240.28, 2723.74 151.00 Z" fill="#6f6f6f" stroke="none" stroke-width="0.00" opacity="0.340"/>
<path d="M 2711.37 547.00 C 2711.37 467.32, 2807.09 460.68, 2807.09 381.00 L 2814.09 381.00 C 2814.09 460.68, 2718.37 467.32, 2718.37 547.00 Z" fill="#6f6f6f" stroke="none" stroke-width="0.00" opacity="0.340"/>
<path d="M 2714.42 151.00 C 2714.42 240.28, 3254.30 247.72, 3254.30 337.00 L 3261.30 337.00 C 3261.30 247.72, 2721.42 240.28, 2721.42 151.00 Z" fill="#6f6f6f" stroke="none" stroke-width="0.00" opacity="0.340"/>
<path d="M 3217.60 151.00 C 3217.60 240.28, 3257.11 247.72, 3257.11 337.00 L 3264.11 337.00 C 3264.11 247.72, 3224.60 240.28, 3224.60 151.00 Z" fill="#6f6f6f" stroke="none" stroke-width="0.00" opacity="0.340"/>
<path d="M 2711.26 547.00 C 2711.26 467.32, 2806.97 460.68, 2806.97 381.00 L 2813.97 381.00 C 2813.97 460.68, 2718.26 467.32, 2718.26 547.00 Z" fill="#6f6f6f" stroke="none" stroke-width="0.00" opacity="0.340"/>
<path d="M 3218.01 547.00 C 3218.01 467.32, 3255.04 460.68, 3255.04 381.00 L 3262.04 381.00 C 3262.04 460.68, 3225.01 467.32, 3225.01 547.00 Z" fill="#6f6f6f" stroke="none" stroke-width="0.00" opacity="0.340"/>
<path d="M 3222.34 151.00 C 3222.34 240.28, 2630.48 247.72, 2630.48 337.00 L 2637.48 337.00 C 2637.48 247.72, 3229.34 240.28, 3229.34 151.00 Z" fill="#6f6f6f" stroke="none" stroke-width="0.00" opacity="0.340"/>
<path d="M 2802.03 151.00 C 2802.03 240.28, 3254.03 247.72, 3254.03 337.00 L 3261.03 337.00 C 3261.03 247.72, 2809.03 240.28, 2809.03 151.00 Z" fill="#6f6f6f" stroke="none" stroke-width="0.00" opacity="0.340"/>
<path d="M 3218.04 547.00 C 3218.04 467.32, 3255.07 460.68, 3255.07 381.00 L 3262.07 381.00 C 3262.07 460.68, 3225.04 467.32, 3225.04 547.00 Z" fill="#6f6f6f" stroke="none" stroke-width="0.00" opacity="0.340"/>
<path d="M 2712.86 547.00 C 2712.86 467.32, 2807.61 460.68, 2807.61 381.00 L 2814.61 381.00 C 2814.61 460.68, 2719.86 467.32, 2719.86 547.00 Z" fill="#6f6f6f" stroke="none" stroke-width="0.00" opacity="0.340"/>
<path d="M 3217.57 151.00 C 3217.57 240.28, 3257.08 247.72, 3257.08 337.00 L 3264.08 337.00 C 3264.08 247.72, 3224.57 240.28, 3224.57 151.00 Z" fill="#6f6f6f" stroke="none" stroke-width="0.00" opacity="0.340"/>
<path d="M 3220.57 547.00 C 3220.57 467.32, 2808.07 460.68, 2808.07 381.00 L 2815.07 381.00 C 2815.07 460.68, 3227.57 467.32, 3227.57 547.00 Z" fill="#6f6f6f" stroke="none" stroke-width="0.00" opacity="0.340"/>
<rect x="2630.15" y="340.00" width="7.00" height="38.00" rx="1.50" fill="#6f6f6f" stroke="none" stroke-width="0.00" opacity="0.484"/>
<rect x="3221.91" y="110.00" width="7.00" height="38.00" rx="1.50" fill="#6f6f6f" stroke="none" stroke-width="0.00" opacity="0.484"/>
<rect x="2630.50" y="340.00" width="7.00" height="38.00" rx="1.50" fill="#6f6f6f" stroke="none" stroke-width="0.00" opacity="0.484"/>
<rect x="3222.36" y="110.00" width="7.00" height="38.00" rx="1.50" fill="#6f6f6f" stroke="none" stroke-width="0.00" opacity="0.484"/>
<rect x="2803.91" y="340.00" width="7.00" height="38.00" rx="1.50" fill="#6f6f6f" stroke="none" stroke-width="0.00" opacity="0.484"/>
<rect x="3216.39" y="110.00" width="7.00" height="38.00" rx="1.50" fill="#6f6f6f" stroke="none" stroke-width="0.00" opacity="0.484"/>
<rect x="2806.61" y="340.00" width="7.00" height="38.00" rx="1.50" fill="#6f6f6f" stroke="none" stroke-width="0.00" opacity="0.484"/>
<rect x="2716.75" y="110.00" width="7.00" height="38.00" rx="1.50" fill="#6f6f6f" stroke="none" stroke-width="0.00" opacity="0.484"/>
<rect x="2806.94" y="340.00" width="7.00" height="38.00" rx="1.50" fill="#6f6f6f" stroke="none" stroke-width="0.00" opacity="0.484"/>
<rect x="2619.59" y="550.00" width="7.00" height="38.00" rx="1.50" fill="#6f6f6f" stroke="none" stroke-width="0.00" opacity="0.484"/>
<rect x="2806.99" y="340.00" width="7.00" height="38.00" rx="1.50" fill="#6f6f6f" stroke="none" stroke-width="0.00" opacity="0.484"/>
<rect x="2620.92" y="110.00" width="7.00" height="38.00" rx="1.50" fill="#6f6f6f" stroke="none" stroke-width="0.00" opacity="0.484"/>
<rect x="2807.07" y="340.00" width="7.00" height="38.00" rx="1.50" fill="#6f6f6f" stroke="none" stroke-width="0.00" opacity="0.484"/>
<rect x="2711.35" y="550.00" width="7.00" height="38.00" rx="1.50" fill="#6f6f6f" stroke="none" stroke-width="0.00" opacity="0.484"/>
<rect x="2630.25" y="340.00" width="7.00" height="38.00" rx="1.50" fill="#6f6f6f" stroke="none" stroke-width="0.00" opacity="0.484"/>
<rect x="3222.02" y="110.00" width="7.00" height="38.00" rx="1.50" fill="#6f6f6f" stroke="none" stroke-width="0.00" opacity="0.484"/>
<rect x="2630.62" y="340.00" width="7.00" height="38.00" rx="1.50" fill="#6f6f6f" stroke="none" stroke-width="0.00" opacity="0.484"/>
<rect x="3222.47" y="110.00" width="7.00" height="38.00" rx="1.50" fill="#6f6f6f" stroke="none" stroke-width="0.00" opacity="0.484"/>
<rect x="2803.33" y="340.00" width="7.00" height="38.00" rx="1.50" fill="#6f6f6f" stroke="none" stroke-width="0.00" opacity="0.484"/>
<rect x="2617.78" y="550.00" width="7.00" height="38.00" rx="1.50" fill="#6f6f6f" stroke="none" stroke-width="0.00" opacity="0.484"/>
<rect x="2806.69" y="340.00" width="7.00" height="38.00" rx="1.50" fill="#6f6f6f" stroke="none" stroke-width="0.00" opacity="0.484"/>
<rect x="2710.96" y="550.00" width="7.00" height="38.00" rx="1.50" fill="#6f6f6f" stroke="none" stroke-width="0.00" opacity="0.484"/>
<rect x="3257.09" y="340.00" width="7.00" height="38.00" rx="1.50" fill="#6f6f6f" stroke="none" stroke-width="0.00" opacity="0.484"/>
<rect x="3217.58" y="110.00" width="7.00" height="38.00" rx="1.50" fill="#6f6f6f" stroke="none" stroke-width="0.00" opacity="0.484"/>
<rect x="2630.26" y="340.00" width="7.00" height="38.00" rx="1.50" fill="#6f6f6f" stroke="none" stroke-width="0.00" opacity="0.484"/>
<rect x="3222.03" y="110.00" width="7.00" height="38.00" rx="1.50" fill="#6f6f6f" stroke="none" stroke-width="0.00" opacity="0.484"/>
<rect x="2806.59" y="340.00" width="7.00" height="38.00" rx="1.50" fill="#6f6f6f" stroke="none" stroke-width="0.00" opacity="0.484"/>
<rect x="2716.74" y="110.00" width="7.00" height="38.00" rx="1.50" fill="#6f6f6f" stroke="none" stroke-width="0.00" opacity="0.484"/>
<rect x="2807.09" y="340.00" width="7.00" height="38.00" rx="1.50" fill="#6f6f6f" stroke="none" stroke-width="0.00" opacity="0.484"/>
<rect x="2711.37" y="550.00" width="7.00" height="38.00" rx="1.50" fill="#6f6f6f" stroke="none" stroke-width="0.00" opacity="0.484"/>
<rect x="3254.30" y="340.00" width="7.00" height="38.00" rx="1.50" fill="#6f6f6f" stroke="none" stroke-width="0.00" opacity="0.484"/>
<rect x="2714.42" y="110.00" width="7.00" height="38.00" rx="1.50" fill="#6f6f6f" stroke="none" stroke-width="0.00" opacity="0.484"/>
<rect x="3257.11" y="340.00" width="7.00" height="38.00" rx="1.50" fill="#6f6f6f" stroke="none" stroke-width="0.00" opacity="0.484"/>
<rect x="3217.60" y="110.00" width="7.00" height="38.00" rx="1.50" fill="#6f6f6f" stroke="none" stroke-width="0.00" opacity="0.484"/>
<rect x="2806.97" y="340.00" width="7.00" height="38.00" rx="1.50" fill="#6f6f6f" stroke="none" stroke-width="0.00" opacity="0.484"/>
<rect x="2711.26" y="550.00" width="7.00" height="38.00" rx="1.50" fill="#6f6f6f" stroke="none" stroke-width="0.00" opacity="0.484"/>
<rect x="3255.04" y="340.00" width="7.00" height="38.00" rx="1.50" fill="#6f6f6f" stroke="none" stroke-width="0.00" opacity="0.484"/>
<rect x="3218.01" y="550.00" width="7.00" height="38.00" rx="1.50" fill="#6f6f6f" stroke="none" stroke-width="0.00" opacity="0.484"/>
<rect x="2630.48" y="340.00" width="7.00" height="38.00" rx="1.50" fill="#6f6f6f" stroke="none" stroke-width="0.00" opacity="0.484"/>
<rect x="3222.34" y="110.00" width="7.00" height="38.00" rx="1.50" fill="#6f6f6f" stroke="none" stroke-width="0.00" opacity="0.484"/>
<rect x="3254.03" y="340.00" width="7.00" height="38.00" rx="1.50" fill="#6f6f6f" stroke="none" stroke-width="0.00" opacity="0.484"/>
<rect x="2802.03" y="110.00" width="7.00" height="38.00" rx="1.50" fill="#6f6f6f" stroke="none" stroke-width="0.00" opacity="0.484"/>
<rect x="3255.07" y="340.00" width="7.00" height="38.00" rx="1.50" fill="#6f6f6f" stroke="none" stroke-width="0.00" opacity="0.484"/>
<rect x="3218.04" y="550.00" width="7.00" height="38.00" rx="1.50" fill="#6f6f6f" stroke="none" stroke-width="0.00" opacity="0.484"/>
<rect x="2807.61" y="340.00" width="7.00" height="38.00" rx="1.50" fill="#6f6f6f" stroke="none" stroke-width="0.00" opacity="0.484"/>
<rect x="2712.86" y="550.00" width="7.00" height="38.00" rx="1.50" fill="#6f6f6f" stroke="none" stroke-width="0.00" opacity="0.484"/>
<rect x="3257.08" y="340.00" width="7.00" height="38.00" rx="1.50" fill="#6f6f6f" stroke="none" stroke-width="0.00" opacity="0.484"/>
<rect x="3217.57" y="110.00" width="7.00" height="38.00" rx="1.50" fill="#6f6f6f" stroke="none" stroke-width="0.00" opacity="0.484"/>
<rect x="2808.07" y="340.00" width="7.00" height="38.00" rx="1.50" fill="#6f6f6f" stroke="none" stroke-width="0.00" opacity="0.484"/>
<rect x="3220.57" y="550.00" width="7.00" height="38.00" rx="1.50" fill="#6f6f6f" stroke="none" stroke-width="0.00" opacity="0.484"/>
<line x1="850.00" y1="108.00" x2="850.00" y2="150.00" stroke="#111111" stroke-width="1.80" opacity="1.000"/>
<line x1="1057.85" y1="108.00" x2="1057.85" y2="150.00" stroke="#111111" stroke-width="1.80" opacity="1.000"/>
<line x1="1264.87" y1="108.00" x2="1264.87" y2="150.00" stroke="#111111" stroke-width="1.80" opacity="1.000"/>
<line x1="1438.69" y1="108.00" x2="1438.69" y2="150.00" stroke="#111111" stroke-width="1.80" opacity="1.000"/>
<line x1="1602.16" y1="108.00" x2="1602.16" y2="150.00" stroke="#111111" stroke-width="1.80" opacity="1.000"/>
<line x1="1759.07" y1="108.00" x2="1759.07" y2="150.00" stroke="#111111" stroke-width="1.80" opacity="1.000"/>
<line x1="1905.75" y1="108.00" x2="1905.75" y2="150.00" stroke="#111111" stroke-width="1.80" opacity="1.000"/>
<line x1="2042.56" y1="108.00" x2="2042.56" y2="150.00" stroke="#111111" stroke-width="1.80" opacity="1.000"/>
<line x1="2168.03" y1="108.00" x2="2168.03" y2="150.00" stroke="#111111" stroke-width="1.80" opacity="1.000"/>
<line x1="2278.28" y1="108.00" x2="2278.28" y2="150.00" stroke="#111111" stroke-width="1.80" opacity="1.000"/>
<line x1="2393.01" y1="108.00" x2="2393.01" y2="150.00" stroke="#111111" stroke-width="1.80" opacity="1.000"/>
<line x1="2508.07" y1="108.00" x2="2508.07" y2="150.00" stroke="#111111" stroke-width="1.80" opacity="1.000"/>
<line x1="2622.05" y1="108.00" x2="2622.05" y2="150.00" stroke="#111111" stroke-width="1.80" opacity="1.000"/>
<line x1="2717.25" y1="108.00" x2="2717.25" y2="150.00" stroke="#111111" stroke-width="1.80" opacity="1.000"/>
<line x1="2805.28" y1="108.00" x2="2805.28" y2="150.00" stroke="#111111" stroke-width="1.80" opacity="1.000"/>
<line x1="2890.72" y1="108.00" x2="2890.72" y2="150.00" stroke="#111111" stroke-width="1.80" opacity="1.000"/>
<line x1="2968.74" y1="108.00" x2="2968.74" y2="150.00" stroke="#111111" stroke-width="1.80" opacity="1.000"/>
<line x1="3040.14" y1="108.00" x2="3040.14" y2="150.00" stroke="#111111" stroke-width="1.80" opacity="1.000"/>
<line x1="3109.12" y1="108.00" x2="3109.12" y2="150.00" stroke="#111111" stroke-width="1.80" opacity="1.000"/>
<line x1="3162.76" y1="108.00" x2="3162.76" y2="150.00" stroke="#111111" stroke-width="1.80" opacity="1.000"/>
<line x1="3219.22" y1="108.00" x2="3219.22" y2="150.00" stroke="#111111" stroke-width="1.80" opacity="1.000"/>
<line x1="3256.26" y1="108.00" x2="3256.26" y2="150.00" stroke="#111111" stroke-width="1.80" opacity="1.000"/>
<line x1="3298.25" y1="108.00" x2="3298.25" y2="150.00" stroke="#111111" stroke-width="1.80" opacity="1.000"/>
<line x1="3430.00" y1="108.00" x2="3430.00" y2="150.00" stroke="#111111" stroke-width="1.80" opacity="1.000"/>
<text x="953.9" y="106.0" font-size="38.0" font-weight="700" fill="#202124" text-anchor="middle">1</text>
<text x="1161.4" y="106.0" font-size="38.0" font-weight="700" fill="#202124" text-anchor="middle">2</text>
<text x="1351.8" y="106.0" font-size="38.0" font-weight="700" fill="#202124" text-anchor="middle">3</text>
<text x="1520.4" y="106.0" font-size="38.0" font-weight="700" fill="#202124" text-anchor="middle">4</text>
<text x="1680.6" y="106.0" font-size="38.0" font-weight="700" fill="#202124" text-anchor="middle">5</text>
<text x="1832.4" y="106.0" font-size="38.0" font-weight="700" fill="#202124" text-anchor="middle">6</text>
<text x="1974.2" y="106.0" font-size="38.0" font-weight="700" fill="#202124" text-anchor="middle">7</text>
<text x="2105.3" y="106.0" font-size="38.0" font-weight="700" fill="#202124" text-anchor="middle">8</text>
<text x="2223.2" y="106.0" font-size="38.0" font-weight="700" fill="#202124" text-anchor="middle">9</text>
<text x="2335.6" y="106.0" font-size="38.0" font-weight="700" fill="#202124" text-anchor="middle">10</text>
<text x="2450.5" y="106.0" font-size="38.0" font-weight="700" fill="#202124" text-anchor="middle">11</text>
<text x="2565.1" y="106.0" font-size="38.0" font-weight="700" fill="#202124" text-anchor="middle">12</text>
<text x="2669.7" y="106.0" font-size="38.0" font-weight="700" fill="#202124" text-anchor="middle">13</text>
<text x="2761.3" y="106.0" font-size="38.0" font-weight="700" fill="#202124" text-anchor="middle">14</text>
<text x="2848.0" y="106.0" font-size="38.0" font-weight="700" fill="#202124" text-anchor="middle">15</text>
<text x="2929.7" y="106.0" font-size="38.0" font-weight="700" fill="#202124" text-anchor="middle">16</text>
<text x="3004.4" y="106.0" font-size="38.0" font-weight="700" fill="#202124" text-anchor="middle">17</text>
<text x="3074.6" y="106.0" font-size="38.0" font-weight="700" fill="#202124" text-anchor="middle">18</text>
<text x="3135.9" y="106.0" font-size="38.0" font-weight="700" fill="#202124" text-anchor="middle">19</text>
<text x="3191.0" y="106.0" font-size="38.0" font-weight="700" fill="#202124" text-anchor="middle">20</text>
<text x="3277.3" y="106.0" font-size="38.0" font-weight="700" fill="#202124" text-anchor="middle">22</text>
<text x="3364.1" y="106.0" font-size="38.0" font-weight="700" fill="#202124" text-anchor="middle">X</text>
<line x1="850.00" y1="338.00" x2="850.00" y2="380.00" stroke="#111111" stroke-width="1.80" opacity="1.000"/>
<line x1="1061.11" y1="338.00" x2="1061.11" y2="380.00" stroke="#111111" stroke-width="1.80" opacity="1.000"/>
<line x1="1268.36" y1="338.00" x2="1268.36" y2="380.00" stroke="#111111" stroke-width="1.80" opacity="1.000"/>
<line x1="1440.49" y1="338.00" x2="1440.49" y2="380.00" stroke="#111111" stroke-width="1.80" opacity="1.000"/>
<line x1="1604.92" y1="338.00" x2="1604.92" y2="380.00" stroke="#111111" stroke-width="1.80" opacity="1.000"/>
<line x1="1762.03" y1="338.00" x2="1762.03" y2="380.00" stroke="#111111" stroke-width="1.80" opacity="1.000"/>
<line x1="1908.91" y1="338.00" x2="1908.91" y2="380.00" stroke="#111111" stroke-width="1.80" opacity="1.000"/>
<line x1="2045.79" y1="338.00" x2="2045.79" y2="380.00" stroke="#111111" stroke-width="1.80" opacity="1.000"/>
<line x1="2171.57" y1="338.00" x2="2171.57" y2="380.00" stroke="#111111" stroke-width="1.80" opacity="1.000"/>
<line x1="2281.88" y1="338.00" x2="2281.88" y2="380.00" stroke="#111111" stroke-width="1.80" opacity="1.000"/>
<line x1="2396.72" y1="338.00" x2="2396.72" y2="380.00" stroke="#111111" stroke-width="1.80" opacity="1.000"/>
<line x1="2511.93" y1="338.00" x2="2511.93" y2="380.00" stroke="#111111" stroke-width="1.80" opacity="1.000"/>
<line x1="2627.18" y1="338.00" x2="2627.18" y2="380.00" stroke="#111111" stroke-width="1.80" opacity="1.000"/>
<line x1="2720.71" y1="338.00" x2="2720.71" y2="380.00" stroke="#111111" stroke-width="1.80" opacity="1.000"/>
<line x1="2806.52" y1="338.00" x2="2806.52" y2="380.00" stroke="#111111" stroke-width="1.80" opacity="1.000"/>
<line x1="2890.30" y1="338.00" x2="2890.30" y2="380.00" stroke="#111111" stroke-width="1.80" opacity="1.000"/>
<line x1="2968.57" y1="338.00" x2="2968.57" y2="380.00" stroke="#111111" stroke-width="1.80" opacity="1.000"/>
<line x1="3040.54" y1="338.00" x2="3040.54" y2="380.00" stroke="#111111" stroke-width="1.80" opacity="1.000"/>
<line x1="3109.90" y1="338.00" x2="3109.90" y2="380.00" stroke="#111111" stroke-width="1.80" opacity="1.000"/>
<line x1="3163.53" y1="338.00" x2="3163.53" y2="380.00" stroke="#111111" stroke-width="1.80" opacity="1.000"/>
<line x1="3220.13" y1="338.00" x2="3220.13" y2="380.00" stroke="#111111" stroke-width="1.80" opacity="1.000"/>
<line x1="3257.21" y1="338.00" x2="3257.21" y2="380.00" stroke="#111111" stroke-width="1.80" opacity="1.000"/>
<line x1="3298.64" y1="338.00" x2="3298.64" y2="380.00" stroke="#111111" stroke-width="1.80" opacity="1.000"/>
<line x1="3430.00" y1="338.00" x2="3430.00" y2="380.00" stroke="#111111" stroke-width="1.80" opacity="1.000"/>
<text x="955.6" y="336.0" font-size="38.0" font-weight="700" fill="#202124" text-anchor="middle">1</text>
<text x="1164.7" y="336.0" font-size="38.0" font-weight="700" fill="#202124" text-anchor="middle">2</text>
<text x="1354.4" y="336.0" font-size="38.0" font-weight="700" fill="#202124" text-anchor="middle">3</text>
<text x="1522.7" y="336.0" font-size="38.0" font-weight="700" fill="#202124" text-anchor="middle">4</text>
<text x="1683.5" y="336.0" font-size="38.0" font-weight="700" fill="#202124" text-anchor="middle">5</text>
<text x="1835.5" y="336.0" font-size="38.0" font-weight="700" fill="#202124" text-anchor="middle">6</text>
<text x="1977.4" y="336.0" font-size="38.0" font-weight="700" fill="#202124" text-anchor="middle">7</text>
<text x="2108.7" y="336.0" font-size="38.0" font-weight="700" fill="#202124" text-anchor="middle">8</text>
<text x="2226.7" y="336.0" font-size="38.0" font-weight="700" fill="#202124" text-anchor="middle">9</text>
<text x="2339.3" y="336.0" font-size="38.0" font-weight="700" fill="#202124" text-anchor="middle">10</text>
<text x="2454.3" y="336.0" font-size="38.0" font-weight="700" fill="#202124" text-anchor="middle">11</text>
<text x="2569.6" y="336.0" font-size="38.0" font-weight="700" fill="#202124" text-anchor="middle">12</text>
<text x="2673.9" y="336.0" font-size="38.0" font-weight="700" fill="#202124" text-anchor="middle">13</text>
<text x="2763.6" y="336.0" font-size="38.0" font-weight="700" fill="#202124" text-anchor="middle">14</text>
<text x="2848.4" y="336.0" font-size="38.0" font-weight="700" fill="#202124" text-anchor="middle">15</text>
<text x="2929.4" y="336.0" font-size="38.0" font-weight="700" fill="#202124" text-anchor="middle">16</text>
<text x="3004.6" y="336.0" font-size="38.0" font-weight="700" fill="#202124" text-anchor="middle">17</text>
<text x="3075.2" y="336.0" font-size="38.0" font-weight="700" fill="#202124" text-anchor="middle">18</text>
<text x="3136.7" y="336.0" font-size="38.0" font-weight="700" fill="#202124" text-anchor="middle">19</text>
<text x="3191.8" y="336.0" font-size="38.0" font-weight="700" fill="#202124" text-anchor="middle">20</text>
<text x="3277.9" y="336.0" font-size="38.0" font-weight="700" fill="#202124" text-anchor="middle">22</text>
<text x="3364.3" y="336.0" font-size="38.0" font-weight="700" fill="#202124" text-anchor="middle">X</text>
<line x1="850.00" y1="548.00" x2="850.00" y2="590.00" stroke="#111111" stroke-width="1.80" opacity="1.000"/>
<line x1="1060.14" y1="548.00" x2="1060.14" y2="590.00" stroke="#111111" stroke-width="1.80" opacity="1.000"/>
<line x1="1265.63" y1="548.00" x2="1265.63" y2="590.00" stroke="#111111" stroke-width="1.80" opacity="1.000"/>
<line x1="1436.52" y1="548.00" x2="1436.52" y2="590.00" stroke="#111111" stroke-width="1.80" opacity="1.000"/>
<line x1="1599.63" y1="548.00" x2="1599.63" y2="590.00" stroke="#111111" stroke-width="1.80" opacity="1.000"/>
<line x1="1754.27" y1="548.00" x2="1754.27" y2="590.00" stroke="#111111" stroke-width="1.80" opacity="1.000"/>
<line x1="1900.57" y1="548.00" x2="1900.57" y2="590.00" stroke="#111111" stroke-width="1.80" opacity="1.000"/>
<line x1="2037.37" y1="548.00" x2="2037.37" y2="590.00" stroke="#111111" stroke-width="1.80" opacity="1.000"/>
<line x1="2161.34" y1="548.00" x2="2161.34" y2="590.00" stroke="#111111" stroke-width="1.80" opacity="1.000"/>
<line x1="2277.71" y1="548.00" x2="2277.71" y2="590.00" stroke="#111111" stroke-width="1.80" opacity="1.000"/>
<line x1="2391.98" y1="548.00" x2="2391.98" y2="590.00" stroke="#111111" stroke-width="1.80" opacity="1.000"/>
<line x1="2506.40" y1="548.00" x2="2506.40" y2="590.00" stroke="#111111" stroke-width="1.80" opacity="1.000"/>
<line x1="2620.97" y1="548.00" x2="2620.97" y2="590.00" stroke="#111111" stroke-width="1.80" opacity="1.000"/>
<line x1="2712.48" y1="548.00" x2="2712.48" y2="590.00" stroke="#111111" stroke-width="1.80" opacity="1.000"/>
<line x1="2798.83" y1="548.00" x2="2798.83" y2="590.00" stroke="#111111" stroke-width="1.80" opacity="1.000"/>
<line x1="2882.76" y1="548.00" x2="2882.76" y2="590.00" stroke="#111111" stroke-width="1.80" opacity="1.000"/>
<line x1="2968.40" y1="548.00" x2="2968.40" y2="590.00" stroke="#111111" stroke-width="1.80" opacity="1.000"/>
<line x1="3039.94" y1="548.00" x2="3039.94" y2="590.00" stroke="#111111" stroke-width="1.80" opacity="1.000"/>
<line x1="3108.86" y1="548.00" x2="3108.86" y2="590.00" stroke="#111111" stroke-width="1.80" opacity="1.000"/>
<line x1="3163.38" y1="548.00" x2="3163.38" y2="590.00" stroke="#111111" stroke-width="1.80" opacity="1.000"/>
<line x1="3220.72" y1="548.00" x2="3220.72" y2="590.00" stroke="#111111" stroke-width="1.80" opacity="1.000"/>
<line x1="3258.26" y1="548.00" x2="3258.26" y2="590.00" stroke="#111111" stroke-width="1.80" opacity="1.000"/>
<line x1="3299.42" y1="548.00" x2="3299.42" y2="590.00" stroke="#111111" stroke-width="1.80" opacity="1.000"/>
<line x1="3430.00" y1="548.00" x2="3430.00" y2="590.00" stroke="#111111" stroke-width="1.80" opacity="1.000"/>
<text x="955.1" y="546.0" font-size="38.0" font-weight="700" fill="#202124" text-anchor="middle">1</text>
<text x="1162.9" y="546.0" font-size="38.0" font-weight="700" fill="#202124" text-anchor="middle">2</text>
<text x="1351.1" y="546.0" font-size="38.0" font-weight="700" fill="#202124" text-anchor="middle">3</text>
<text x="1518.1" y="546.0" font-size="38.0" font-weight="700" fill="#202124" text-anchor="middle">4</text>
<text x="1676.9" y="546.0" font-size="38.0" font-weight="700" fill="#202124" text-anchor="middle">5</text>
<text x="1827.4" y="546.0" font-size="38.0" font-weight="700" fill="#202124" text-anchor="middle">6</text>
<text x="1969.0" y="546.0" font-size="38.0" font-weight="700" fill="#202124" text-anchor="middle">7</text>
<text x="2099.4" y="546.0" font-size="38.0" font-weight="700" fill="#202124" text-anchor="middle">8</text>
<text x="2219.5" y="546.0" font-size="38.0" font-weight="700" fill="#202124" text-anchor="middle">9</text>
<text x="2334.8" y="546.0" font-size="38.0" font-weight="700" fill="#202124" text-anchor="middle">10</text>
<text x="2449.2" y="546.0" font-size="38.0" font-weight="700" fill="#202124" text-anchor="middle">11</text>
<text x="2563.7" y="546.0" font-size="38.0" font-weight="700" fill="#202124" text-anchor="middle">12</text>
<text x="2666.7" y="546.0" font-size="38.0" font-weight="700" fill="#202124" text-anchor="middle">13</text>
<text x="2755.7" y="546.0" font-size="38.0" font-weight="700" fill="#202124" text-anchor="middle">14</text>
<text x="2840.8" y="546.0" font-size="38.0" font-weight="700" fill="#202124" text-anchor="middle">15</text>
<text x="2925.6" y="546.0" font-size="38.0" font-weight="700" fill="#202124" text-anchor="middle">16</text>
<text x="3004.2" y="546.0" font-size="38.0" font-weight="700" fill="#202124" text-anchor="middle">17</text>
<text x="3074.4" y="546.0" font-size="38.0" font-weight="700" fill="#202124" text-anchor="middle">18</text>
<text x="3136.1" y="546.0" font-size="38.0" font-weight="700" fill="#202124" text-anchor="middle">19</text>
<text x="3192.0" y="546.0" font-size="38.0" font-weight="700" fill="#202124" text-anchor="middle">20</text>
<text x="3278.8" y="546.0" font-size="38.0" font-weight="700" fill="#202124" text-anchor="middle">22</text>
<text x="3364.7" y="546.0" font-size="38.0" font-weight="700" fill="#202124" text-anchor="middle">X</text>
<text x="850.0" y="690.0" font-size="45.6" font-weight="700" fill="#5f6368" text-anchor="start">Ribbon classes</text>
<rect x="1249.00" y="670.00" width="27.00" height="21.00" rx="0.00" fill="#6f6f6f" stroke="none" stroke-width="0.00" opacity="0.900"/>
<text x="1288.0" y="690.0" font-size="39.9" font-weight="400" fill="#202124" text-anchor="start">acrocentric (25)</text>
</svg>
