<svg xmlns="http://www.w3.org/2000/svg" width="3600" height="840" viewBox="0 0 3600 840">
<rect width="100%" height="100%" fill="white"/>
<style>text{font-family:Arial,Helvetica,sans-serif;dominant-baseline:alphabetic}</style>
<line x1="620.00" y1="99.00" x2="3540.00" y2="99.00" stroke="#f1f3f4" stroke-width="0.80" opacity="0.800"/>
<line x1="620.00" y1="381.00" x2="3540.00" y2="381.00" stroke="#f1f3f4" stroke-width="0.80" opacity="0.800"/>
<line x1="620.00" y1="539.00" x2="3540.00" y2="539.00" stroke="#f1f3f4" stroke-width="0.80" opacity="0.800"/>
<text x="592.0" y="371.0" font-size="37.2" font-weight="700" fill="#202124" text-anchor="end">PAN027 maternal child</text>
<rect x="620.00" y="345.00" width="238.93" height="28.00" rx="0.00" fill="#eef0f2" stroke="#ffffff" stroke-width="1.10" opacity="1.000"/>
<text x="739.5" y="336.0" font-size="29.4" font-weight="600" fill="#5f6368" text-anchor="middle">1</text>
<line x1="620.00" y1="25.00" x2="620.00" y2="625.00" stroke="#e8eaed" stroke-width="0.70" opacity="0.550"/>
<rect x="858.93" y="345.00" width="234.56" height="28.00" rx="0.00" fill="#dfe3e6" stroke="#ffffff" stroke-width="1.10" opacity="1.000"/>
<text x="976.2" y="336.0" font-size="29.4" font-weight="600" fill="#5f6368" text-anchor="middle">2</text>
<rect x="1093.50" y="345.00" width="194.81" height="28.00" rx="0.00" fill="#eef0f2" stroke="#ffffff" stroke-width="1.10" opacity="1.000"/>
<text x="1190.9" y="336.0" font-size="29.4" font-weight="600" fill="#5f6368" text-anchor="middle">3</text>
<line x1="1093.50" y1="25.00" x2="1093.50" y2="625.00" stroke="#e8eaed" stroke-width="0.70" opacity="0.550"/>
<rect x="1288.31" y="345.00" width="186.09" height="28.00" rx="0.00" fill="#dfe3e6" stroke="#ffffff" stroke-width="1.10" opacity="1.000"/>
<text x="1381.4" y="336.0" font-size="29.4" font-weight="600" fill="#5f6368" text-anchor="middle">4</text>
<rect x="1474.40" y="345.00" width="177.82" height="28.00" rx="0.00" fill="#eef0f2" stroke="#ffffff" stroke-width="1.10" opacity="1.000"/>
<text x="1563.3" y="336.0" font-size="29.4" font-weight="600" fill="#5f6368" text-anchor="middle">5</text>
<line x1="1474.40" y1="25.00" x2="1474.40" y2="625.00" stroke="#e8eaed" stroke-width="0.70" opacity="0.550"/>
<rect x="1652.22" y="345.00" width="166.24" height="28.00" rx="0.00" fill="#dfe3e6" stroke="#ffffff" stroke-width="1.10" opacity="1.000"/>
<text x="1735.3" y="336.0" font-size="29.4" font-weight="600" fill="#5f6368" text-anchor="middle">6</text>
<rect x="1818.46" y="345.00" width="154.92" height="28.00" rx="0.00" fill="#eef0f2" stroke="#ffffff" stroke-width="1.10" opacity="1.000"/>
<text x="1895.9" y="336.0" font-size="29.4" font-weight="600" fill="#5f6368" text-anchor="middle">7</text>
<rect x="1973.38" y="345.00" width="142.35" height="28.00" rx="0.00" fill="#dfe3e6" stroke="#ffffff" stroke-width="1.10" opacity="1.000"/>
<text x="2044.6" y="336.0" font-size="29.4" font-weight="600" fill="#5f6368" text-anchor="middle">8</text>
<rect x="2115.73" y="345.00" width="124.84" height="28.00" rx="0.00" fill="#eef0f2" stroke="#ffffff" stroke-width="1.10" opacity="1.000"/>
<text x="2178.2" y="336.0" font-size="29.4" font-weight="600" fill="#5f6368" text-anchor="middle">9</text>
<line x1="2115.73" y1="25.00" x2="2115.73" y2="625.00" stroke="#e8eaed" stroke-width="0.70" opacity="0.550"/>
<rect x="2240.58" y="345.00" width="129.98" height="28.00" rx="0.00" fill="#dfe3e6" stroke="#ffffff" stroke-width="1.10" opacity="1.000"/>
<text x="2305.6" y="336.0" font-size="29.4" font-weight="600" fill="#5f6368" text-anchor="middle">10</text>
<rect x="2370.55" y="345.00" width="130.39" height="28.00" rx="0.00" fill="#eef0f2" stroke="#ffffff" stroke-width="1.10" opacity="1.000"/>
<text x="2435.7" y="336.0" font-size="29.4" font-weight="600" fill="#5f6368" text-anchor="middle">11</text>
<rect x="2500.94" y="345.00" width="130.44" height="28.00" rx="0.00" fill="#dfe3e6" stroke="#ffffff" stroke-width="1.10" opacity="1.000"/>
<text x="2566.2" y="336.0" font-size="29.4" font-weight="600" fill="#5f6368" text-anchor="middle">12</text>
<rect x="2631.38" y="345.00" width="105.85" height="28.00" rx="0.00" fill="#eef0f2" stroke="#ffffff" stroke-width="1.10" opacity="1.000"/>
<text x="2684.3" y="336.0" font-size="29.4" font-weight="600" fill="#5f6368" text-anchor="middle">13</text>
<line x1="2631.38" y1="25.00" x2="2631.38" y2="625.00" stroke="#e8eaed" stroke-width="0.70" opacity="0.550"/>
<rect x="2737.23" y="345.00" width="97.12" height="28.00" rx="0.00" fill="#dfe3e6" stroke="#ffffff" stroke-width="1.10" opacity="1.000"/>
<text x="2785.8" y="336.0" font-size="29.4" font-weight="600" fill="#5f6368" text-anchor="middle">14</text>
<rect x="2834.35" y="345.00" width="94.82" height="28.00" rx="0.00" fill="#eef0f2" stroke="#ffffff" stroke-width="1.10" opacity="1.000"/>
<text x="2881.8" y="336.0" font-size="29.4" font-weight="600" fill="#5f6368" text-anchor="middle">15</text>
<line x1="2834.35" y1="25.00" x2="2834.35" y2="625.00" stroke="#e8eaed" stroke-width="0.70" opacity="0.550"/>
<rect x="2929.17" y="345.00" width="88.59" height="28.00" rx="0.00" fill="#dfe3e6" stroke="#ffffff" stroke-width="1.10" opacity="1.000"/>
<text x="2973.5" y="336.0" font-size="29.4" font-weight="600" fill="#5f6368" text-anchor="middle">16</text>
<rect x="3017.76" y="345.00" width="81.46" height="28.00" rx="0.00" fill="#eef0f2" stroke="#ffffff" stroke-width="1.10" opacity="1.000"/>
<text x="3058.5" y="336.0" font-size="29.4" font-weight="600" fill="#5f6368" text-anchor="middle">17</text>
<rect x="3099.22" y="345.00" width="78.50" height="28.00" rx="0.00" fill="#dfe3e6" stroke="#ffffff" stroke-width="1.10" opacity="1.000"/>
<text x="3138.5" y="336.0" font-size="29.4" font-weight="600" fill="#5f6368" text-anchor="middle">18</text>
<rect x="3177.72" y="345.00" width="60.69" height="28.00" rx="0.00" fill="#eef0f2" stroke="#ffffff" stroke-width="1.10" opacity="1.000"/>
<text x="3208.1" y="336.0" font-size="29.4" font-weight="600" fill="#5f6368" text-anchor="middle">19</text>
<rect x="3238.41" y="345.00" width="64.06" height="28.00" rx="0.00" fill="#dfe3e6" stroke="#ffffff" stroke-width="1.10" opacity="1.000"/>
<text x="3270.4" y="336.0" font-size="29.4" font-weight="600" fill="#5f6368" text-anchor="middle">20</text>
<rect x="3302.47" y="345.00" width="41.97" height="28.00" rx="0.00" fill="#eef0f2" stroke="#ffffff" stroke-width="1.10" opacity="1.000"/>
<text x="3323.5" y="336.0" font-size="29.4" font-weight="600" fill="#5f6368" text-anchor="middle">21</text>
<line x1="3302.47" y1="25.00" x2="3302.47" y2="625.00" stroke="#e8eaed" stroke-width="0.70" opacity="0.550"/>
<rect x="3344.44" y="345.00" width="46.89" height="28.00" rx="0.00" fill="#dfe3e6" stroke="#ffffff" stroke-width="1.10" opacity="1.000"/>
<text x="3367.9" y="336.0" font-size="29.4" font-weight="600" fill="#5f6368" text-anchor="middle">22</text>
<line x1="3344.44" y1="25.00" x2="3344.44" y2="625.00" stroke="#e8eaed" stroke-width="0.70" opacity="0.550"/>
<rect x="3391.33" y="345.00" width="148.67" height="28.00" rx="0.00" fill="#eef0f2" stroke="#ffffff" stroke-width="1.10" opacity="1.000"/>
<text x="3465.7" y="336.0" font-size="29.4" font-weight="600" fill="#5f6368" text-anchor="middle">X</text>
<line x1="3391.33" y1="25.00" x2="3391.33" y2="625.00" stroke="#e8eaed" stroke-width="0.70" opacity="0.550"/>
<rect x="620.00" y="345.00" width="2920.00" height="28.00" rx="0.00" fill="none" stroke="#bdc1c6" stroke-width="1.10" opacity="1.000"/>
<text x="592.0" y="141.0" font-size="37.2" font-weight="700" fill="#202124" text-anchor="end">PAN010 mother h1</text>
<rect x="620.00" y="115.00" width="235.25" height="28.00" rx="0.00" fill="#eef0f2" stroke="#ffffff" stroke-width="1.10" opacity="1.000"/>
<text x="737.6" y="106.0" font-size="29.4" font-weight="600" fill="#5f6368" text-anchor="middle">1</text>
<line x1="620.00" y1="25.00" x2="620.00" y2="625.00" stroke="#e8eaed" stroke-width="0.70" opacity="0.550"/>
<rect x="855.25" y="115.00" width="234.30" height="28.00" rx="0.00" fill="#dfe3e6" stroke="#ffffff" stroke-width="1.10" opacity="1.000"/>
<text x="972.4" y="106.0" font-size="29.4" font-weight="600" fill="#5f6368" text-anchor="middle">2</text>
<rect x="1089.54" y="115.00" width="196.73" height="28.00" rx="0.00" fill="#eef0f2" stroke="#ffffff" stroke-width="1.10" opacity="1.000"/>
<text x="1187.9" y="106.0" font-size="29.4" font-weight="600" fill="#5f6368" text-anchor="middle">3</text>
<line x1="1089.54" y1="25.00" x2="1089.54" y2="625.00" stroke="#e8eaed" stroke-width="0.70" opacity="0.550"/>
<rect x="1286.27" y="115.00" width="185.01" height="28.00" rx="0.00" fill="#dfe3e6" stroke="#ffffff" stroke-width="1.10" opacity="1.000"/>
<text x="1378.8" y="106.0" font-size="29.4" font-weight="600" fill="#5f6368" text-anchor="middle">4</text>
<rect x="1471.28" y="115.00" width="177.59" height="28.00" rx="0.00" fill="#eef0f2" stroke="#ffffff" stroke-width="1.10" opacity="1.000"/>
<text x="1560.1" y="106.0" font-size="29.4" font-weight="600" fill="#5f6368" text-anchor="middle">5</text>
<line x1="1471.28" y1="25.00" x2="1471.28" y2="625.00" stroke="#e8eaed" stroke-width="0.70" opacity="0.550"/>
<rect x="1648.87" y="115.00" width="166.00" height="28.00" rx="0.00" fill="#dfe3e6" stroke="#ffffff" stroke-width="1.10" opacity="1.000"/>
<text x="1731.9" y="106.0" font-size="29.4" font-weight="600" fill="#5f6368" text-anchor="middle">6</text>
<rect x="1814.88" y="115.00" width="154.85" height="28.00" rx="0.00" fill="#eef0f2" stroke="#ffffff" stroke-width="1.10" opacity="1.000"/>
<text x="1892.3" y="106.0" font-size="29.4" font-weight="600" fill="#5f6368" text-anchor="middle">7</text>
<rect x="1969.72" y="115.00" width="142.01" height="28.00" rx="0.00" fill="#dfe3e6" stroke="#ffffff" stroke-width="1.10" opacity="1.000"/>
<text x="2040.7" y="106.0" font-size="29.4" font-weight="600" fill="#5f6368" text-anchor="middle">8</text>
<rect x="2111.73" y="115.00" width="124.77" height="28.00" rx="0.00" fill="#eef0f2" stroke="#ffffff" stroke-width="1.10" opacity="1.000"/>
<text x="2174.1" y="106.0" font-size="29.4" font-weight="600" fill="#5f6368" text-anchor="middle">9</text>
<line x1="2111.73" y1="25.00" x2="2111.73" y2="625.00" stroke="#e8eaed" stroke-width="0.70" opacity="0.550"/>
<rect x="2236.50" y="115.00" width="129.85" height="28.00" rx="0.00" fill="#dfe3e6" stroke="#ffffff" stroke-width="1.10" opacity="1.000"/>
<text x="2301.4" y="106.0" font-size="29.4" font-weight="600" fill="#5f6368" text-anchor="middle">10</text>
<rect x="2366.35" y="115.00" width="130.22" height="28.00" rx="0.00" fill="#eef0f2" stroke="#ffffff" stroke-width="1.10" opacity="1.000"/>
<text x="2431.5" y="106.0" font-size="29.4" font-weight="600" fill="#5f6368" text-anchor="middle">11</text>
<rect x="2496.58" y="115.00" width="129.00" height="28.00" rx="0.00" fill="#dfe3e6" stroke="#ffffff" stroke-width="1.10" opacity="1.000"/>
<text x="2561.1" y="106.0" font-size="29.4" font-weight="600" fill="#5f6368" text-anchor="middle">12</text>
<rect x="2625.58" y="115.00" width="107.74" height="28.00" rx="0.00" fill="#eef0f2" stroke="#ffffff" stroke-width="1.10" opacity="1.000"/>
<text x="2679.4" y="106.0" font-size="29.4" font-weight="600" fill="#5f6368" text-anchor="middle">13</text>
<line x1="2625.58" y1="25.00" x2="2625.58" y2="625.00" stroke="#e8eaed" stroke-width="0.70" opacity="0.550"/>
<rect x="2733.32" y="115.00" width="99.64" height="28.00" rx="0.00" fill="#dfe3e6" stroke="#ffffff" stroke-width="1.10" opacity="1.000"/>
<text x="2783.1" y="106.0" font-size="29.4" font-weight="600" fill="#5f6368" text-anchor="middle">14</text>
<rect x="2832.96" y="115.00" width="96.69" height="28.00" rx="0.00" fill="#eef0f2" stroke="#ffffff" stroke-width="1.10" opacity="1.000"/>
<text x="2881.3" y="106.0" font-size="29.4" font-weight="600" fill="#5f6368" text-anchor="middle">15</text>
<line x1="2832.96" y1="25.00" x2="2832.96" y2="625.00" stroke="#e8eaed" stroke-width="0.70" opacity="0.550"/>
<rect x="2929.65" y="115.00" width="88.31" height="28.00" rx="0.00" fill="#dfe3e6" stroke="#ffffff" stroke-width="1.10" opacity="1.000"/>
<text x="2973.8" y="106.0" font-size="29.4" font-weight="600" fill="#5f6368" text-anchor="middle">16</text>
<rect x="3017.96" y="115.00" width="80.81" height="28.00" rx="0.00" fill="#eef0f2" stroke="#ffffff" stroke-width="1.10" opacity="1.000"/>
<text x="3058.4" y="106.0" font-size="29.4" font-weight="600" fill="#5f6368" text-anchor="middle">17</text>
<rect x="3098.76" y="115.00" width="78.07" height="28.00" rx="0.00" fill="#dfe3e6" stroke="#ffffff" stroke-width="1.10" opacity="1.000"/>
<text x="3137.8" y="106.0" font-size="29.4" font-weight="600" fill="#5f6368" text-anchor="middle">18</text>
<rect x="3176.83" y="115.00" width="60.71" height="28.00" rx="0.00" fill="#eef0f2" stroke="#ffffff" stroke-width="1.10" opacity="1.000"/>
<text x="3207.2" y="106.0" font-size="29.4" font-weight="600" fill="#5f6368" text-anchor="middle">19</text>
<rect x="3237.54" y="115.00" width="63.90" height="28.00" rx="0.00" fill="#dfe3e6" stroke="#ffffff" stroke-width="1.10" opacity="1.000"/>
<text x="3269.5" y="106.0" font-size="29.4" font-weight="600" fill="#5f6368" text-anchor="middle">20</text>
<rect x="3301.44" y="115.00" width="41.92" height="28.00" rx="0.00" fill="#eef0f2" stroke="#ffffff" stroke-width="1.10" opacity="1.000"/>
<text x="3322.4" y="106.0" font-size="29.4" font-weight="600" fill="#5f6368" text-anchor="middle">21</text>
<line x1="3301.44" y1="25.00" x2="3301.44" y2="625.00" stroke="#e8eaed" stroke-width="0.70" opacity="0.550"/>
<rect x="3343.36" y="115.00" width="47.53" height="28.00" rx="0.00" fill="#dfe3e6" stroke="#ffffff" stroke-width="1.10" opacity="1.000"/>
<text x="3367.1" y="106.0" font-size="29.4" font-weight="600" fill="#5f6368" text-anchor="middle">22</text>
<line x1="3343.36" y1="25.00" x2="3343.36" y2="625.00" stroke="#e8eaed" stroke-width="0.70" opacity="0.550"/>
<rect x="3390.89" y="115.00" width="149.11" height="28.00" rx="0.00" fill="#eef0f2" stroke="#ffffff" stroke-width="1.10" opacity="1.000"/>
<text x="3465.4" y="106.0" font-size="29.4" font-weight="600" fill="#5f6368" text-anchor="middle">X</text>
<line x1="3390.89" y1="25.00" x2="3390.89" y2="625.00" stroke="#e8eaed" stroke-width="0.70" opacity="0.550"/>
<rect x="620.00" y="115.00" width="2920.00" height="28.00" rx="0.00" fill="none" stroke="#bdc1c6" stroke-width="1.10" opacity="1.000"/>
<text x="592.0" y="581.0" font-size="37.2" font-weight="700" fill="#202124" text-anchor="end">PAN010 mother h2</text>
<rect x="620.00" y="555.00" width="237.83" height="28.00" rx="0.00" fill="#eef0f2" stroke="#ffffff" stroke-width="1.10" opacity="1.000"/>
<text x="738.9" y="546.0" font-size="29.4" font-weight="600" fill="#5f6368" text-anchor="middle">1</text>
<line x1="620.00" y1="25.00" x2="620.00" y2="625.00" stroke="#e8eaed" stroke-width="0.70" opacity="0.550"/>
<rect x="857.83" y="555.00" width="232.57" height="28.00" rx="0.00" fill="#dfe3e6" stroke="#ffffff" stroke-width="1.10" opacity="1.000"/>
<text x="974.1" y="546.0" font-size="29.4" font-weight="600" fill="#5f6368" text-anchor="middle">2</text>
<rect x="1090.40" y="555.00" width="193.42" height="28.00" rx="0.00" fill="#eef0f2" stroke="#ffffff" stroke-width="1.10" opacity="1.000"/>
<text x="1187.1" y="546.0" font-size="29.4" font-weight="600" fill="#5f6368" text-anchor="middle">3</text>
<line x1="1090.40" y1="25.00" x2="1090.40" y2="625.00" stroke="#e8eaed" stroke-width="0.70" opacity="0.550"/>
<rect x="1283.82" y="555.00" width="184.60" height="28.00" rx="0.00" fill="#dfe3e6" stroke="#ffffff" stroke-width="1.10" opacity="1.000"/>
<text x="1376.1" y="546.0" font-size="29.4" font-weight="600" fill="#5f6368" text-anchor="middle">4</text>
<rect x="1468.42" y="555.00" width="175.01" height="28.00" rx="0.00" fill="#eef0f2" stroke="#ffffff" stroke-width="1.10" opacity="1.000"/>
<text x="1555.9" y="546.0" font-size="29.4" font-weight="600" fill="#5f6368" text-anchor="middle">5</text>
<line x1="1468.42" y1="25.00" x2="1468.42" y2="625.00" stroke="#e8eaed" stroke-width="0.70" opacity="0.550"/>
<rect x="1643.43" y="555.00" width="165.59" height="28.00" rx="0.00" fill="#dfe3e6" stroke="#ffffff" stroke-width="1.10" opacity="1.000"/>
<text x="1726.2" y="546.0" font-size="29.4" font-weight="600" fill="#5f6368" text-anchor="middle">6</text>
<rect x="1809.02" y="555.00" width="154.83" height="28.00" rx="0.00" fill="#eef0f2" stroke="#ffffff" stroke-width="1.10" opacity="1.000"/>
<text x="1886.4" y="546.0" font-size="29.4" font-weight="600" fill="#5f6368" text-anchor="middle">7</text>
<rect x="1963.85" y="555.00" width="140.30" height="28.00" rx="0.00" fill="#dfe3e6" stroke="#ffffff" stroke-width="1.10" opacity="1.000"/>
<text x="2034.0" y="546.0" font-size="29.4" font-weight="600" fill="#5f6368" text-anchor="middle">8</text>
<rect x="2104.15" y="555.00" width="131.71" height="28.00" rx="0.00" fill="#eef0f2" stroke="#ffffff" stroke-width="1.10" opacity="1.000"/>
<text x="2170.0" y="546.0" font-size="29.4" font-weight="600" fill="#5f6368" text-anchor="middle">9</text>
<line x1="2104.15" y1="25.00" x2="2104.15" y2="625.00" stroke="#e8eaed" stroke-width="0.70" opacity="0.550"/>
<rect x="2235.86" y="555.00" width="129.32" height="28.00" rx="0.00" fill="#dfe3e6" stroke="#ffffff" stroke-width="1.10" opacity="1.000"/>
<text x="2300.5" y="546.0" font-size="29.4" font-weight="600" fill="#5f6368" text-anchor="middle">10</text>
<rect x="2365.19" y="555.00" width="129.50" height="28.00" rx="0.00" fill="#eef0f2" stroke="#ffffff" stroke-width="1.10" opacity="1.000"/>
<text x="2429.9" y="546.0" font-size="29.4" font-weight="600" fill="#5f6368" text-anchor="middle">11</text>
<rect x="2494.69" y="555.00" width="129.66" height="28.00" rx="0.00" fill="#dfe3e6" stroke="#ffffff" stroke-width="1.10" opacity="1.000"/>
<text x="2559.5" y="546.0" font-size="29.4" font-weight="600" fill="#5f6368" text-anchor="middle">12</text>
<rect x="2624.35" y="555.00" width="103.58" height="28.00" rx="0.00" fill="#eef0f2" stroke="#ffffff" stroke-width="1.10" opacity="1.000"/>
<text x="2676.1" y="546.0" font-size="29.4" font-weight="600" fill="#5f6368" text-anchor="middle">13</text>
<line x1="2624.35" y1="25.00" x2="2624.35" y2="625.00" stroke="#e8eaed" stroke-width="0.70" opacity="0.550"/>
<rect x="2727.93" y="555.00" width="97.72" height="28.00" rx="0.00" fill="#dfe3e6" stroke="#ffffff" stroke-width="1.10" opacity="1.000"/>
<text x="2776.8" y="546.0" font-size="29.4" font-weight="600" fill="#5f6368" text-anchor="middle">14</text>
<rect x="2825.65" y="555.00" width="95.00" height="28.00" rx="0.00" fill="#eef0f2" stroke="#ffffff" stroke-width="1.10" opacity="1.000"/>
<text x="2873.1" y="546.0" font-size="29.4" font-weight="600" fill="#5f6368" text-anchor="middle">15</text>
<line x1="2825.65" y1="25.00" x2="2825.65" y2="625.00" stroke="#e8eaed" stroke-width="0.70" opacity="0.550"/>
<rect x="2920.65" y="555.00" width="96.92" height="28.00" rx="0.00" fill="#dfe3e6" stroke="#ffffff" stroke-width="1.10" opacity="1.000"/>
<text x="2969.1" y="546.0" font-size="29.4" font-weight="600" fill="#5f6368" text-anchor="middle">16</text>
<rect x="3017.57" y="555.00" width="80.97" height="28.00" rx="0.00" fill="#eef0f2" stroke="#ffffff" stroke-width="1.10" opacity="1.000"/>
<text x="3058.1" y="546.0" font-size="29.4" font-weight="600" fill="#5f6368" text-anchor="middle">17</text>
<rect x="3098.54" y="555.00" width="78.01" height="28.00" rx="0.00" fill="#dfe3e6" stroke="#ffffff" stroke-width="1.10" opacity="1.000"/>
<text x="3137.5" y="546.0" font-size="29.4" font-weight="600" fill="#5f6368" text-anchor="middle">18</text>
<rect x="3176.54" y="555.00" width="61.70" height="28.00" rx="0.00" fill="#eef0f2" stroke="#ffffff" stroke-width="1.10" opacity="1.000"/>
<text x="3207.4" y="546.0" font-size="29.4" font-weight="600" fill="#5f6368" text-anchor="middle">19</text>
<rect x="3238.24" y="555.00" width="64.89" height="28.00" rx="0.00" fill="#dfe3e6" stroke="#ffffff" stroke-width="1.10" opacity="1.000"/>
<text x="3270.7" y="546.0" font-size="29.4" font-weight="600" fill="#5f6368" text-anchor="middle">20</text>
<rect x="3303.14" y="555.00" width="42.49" height="28.00" rx="0.00" fill="#eef0f2" stroke="#ffffff" stroke-width="1.10" opacity="1.000"/>
<text x="3324.4" y="546.0" font-size="29.4" font-weight="600" fill="#5f6368" text-anchor="middle">21</text>
<line x1="3303.14" y1="25.00" x2="3303.14" y2="625.00" stroke="#e8eaed" stroke-width="0.70" opacity="0.550"/>
<rect x="3345.63" y="555.00" width="46.58" height="28.00" rx="0.00" fill="#dfe3e6" stroke="#ffffff" stroke-width="1.10" opacity="1.000"/>
<text x="3368.9" y="546.0" font-size="29.4" font-weight="600" fill="#5f6368" text-anchor="middle">22</text>
<line x1="3345.63" y1="25.00" x2="3345.63" y2="625.00" stroke="#e8eaed" stroke-width="0.70" opacity="0.550"/>
<rect x="3392.21" y="555.00" width="147.79" height="28.00" rx="0.00" fill="#eef0f2" stroke="#ffffff" stroke-width="1.10" opacity="1.000"/>
<text x="3466.1" y="546.0" font-size="29.4" font-weight="600" fill="#5f6368" text-anchor="middle">X</text>
<line x1="3392.21" y1="25.00" x2="3392.21" y2="625.00" stroke="#e8eaed" stroke-width="0.70" opacity="0.550"/>
<rect x="620.00" y="555.00" width="2920.00" height="28.00" rx="0.00" fill="none" stroke="#bdc1c6" stroke-width="1.10" opacity="1.000"/>
<path d="M 3304.95 151.00 C 3304.95 240.28, 2635.20 247.72, 2635.20 337.00 L 2642.20 337.00 C 2642.20 247.72, 3311.95 240.28, 3311.95 151.00 Z" fill="#6f6f6f" stroke="none" stroke-width="0.00" opacity="0.340"/>
<path d="M 3305.45 151.00 C 3305.45 240.28, 2635.60 247.72, 2635.60 337.00 L 2642.60 337.00 C 2642.60 247.72, 3312.45 240.28, 3312.45 151.00 Z" fill="#6f6f6f" stroke="none" stroke-width="0.00" opacity="0.340"/>
<path d="M 3298.70 151.00 C 3298.70 240.28, 2831.86 247.72, 2831.86 337.00 L 2838.86 337.00 C 2838.86 247.72, 3305.70 240.28, 3305.70 151.00 Z" fill="#6f6f6f" stroke="none" stroke-width="0.00" opacity="0.340"/>
<path d="M 2733.22 151.00 C 2733.22 240.28, 2834.91 247.72, 2834.91 337.00 L 2841.91 337.00 C 2841.91 247.72, 2740.22 240.28, 2740.22 151.00 Z" fill="#6f6f6f" stroke="none" stroke-width="0.00" opacity="0.340"/>
<path d="M 2623.26 547.00 C 2623.26 467.32, 2835.29 460.68, 2835.29 381.00 L 2842.29 381.00 C 2842.29 460.68, 2630.26 467.32, 2630.26 547.00 Z" fill="#6f6f6f" stroke="none" stroke-width="0.00" opacity="0.340"/>
<path d="M 2624.76 151.00 C 2624.76 240.28, 2835.35 247.72, 2835.35 337.00 L 2842.35 337.00 C 2842.35 247.72, 2631.76 240.28, 2631.76 151.00 Z" fill="#6f6f6f" stroke="none" stroke-width="0.00" opacity="0.340"/>
<path d="M 2727.10 547.00 C 2727.10 467.32, 2835.43 460.68, 2835.43 381.00 L 2842.43 381.00 C 2842.43 460.68, 2734.10 467.32, 2734.10 547.00 Z" fill="#6f6f6f" stroke="none" stroke-width="0.00" opacity="0.340"/>
<path d="M 3305.07 151.00 C 3305.07 240.28, 2635.32 247.72, 2635.32 337.00 L 2642.32 337.00 C 2642.32 247.72, 3312.07 240.28, 3312.07 151.00 Z" fill="#6f6f6f" stroke="none" stroke-width="0.00" opacity="0.340"/>
<path d="M 3305.59 151.00 C 3305.59 240.28, 2635.73 247.72, 2635.73 337.00 L 2642.73 337.00 C 2642.73 247.72, 3312.59 240.28, 3312.59 151.00 Z" fill="#6f6f6f" stroke="none" stroke-width="0.00" opacity="0.340"/>
<path d="M 2621.21 547.00 C 2621.21 467.32, 2831.21 460.68, 2831.21 381.00 L 2838.21 381.00 C 2838.21 460.68, 2628.21 467.32, 2628.21 547.00 Z" fill="#6f6f6f" stroke="none" stroke-width="0.00" opacity="0.340"/>
<path d="M 2726.66 547.00 C 2726.66 467.32, 2835.01 460.68, 2835.01 381.00 L 2842.01 381.00 C 2842.01 460.68, 2733.66 467.32, 2733.66 547.00 Z" fill="#6f6f6f" stroke="none" stroke-width="0.00" opacity="0.340"/>
<path d="M 3300.05 151.00 C 3300.05 240.28, 3344.77 247.72, 3344.77 337.00 L 3351.77 337.00 C 3351.77 247.72, 3307.05 240.28, 3307.05 151.00 Z" fill="#6f6f6f" stroke="none" stroke-width="0.00" opacity="0.340"/>
<path d="M 3305.08 151.00 C 3305.08 240.28, 2635.33 247.72, 2635.33 337.00 L 2642.33 337.00 C 2642.33 247.72, 3312.08 240.28, 3312.08 151.00 Z" fill="#6f6f6f" stroke="none" stroke-width="0.00" opacity="0.340"/>
<path d="M 2733.21 151.00 C 2733.21 240.28, 2834.90 247.72, 2834.90 337.00 L 2841.90 337.00 C 2841.90 247.72, 2740.21 240.28, 2740.21 151.00 Z" fill="#6f6f6f" stroke="none" stroke-width="0.00" opacity="0.340"/>
<path d="M 2727.13 547.00 C 2727.13 467.32, 2835.46 460.68, 2835.46 381.00 L 2842.46 381.00 C 2842.46 460.68, 2734.13 467.32, 2734.13 547.00 Z" fill="#6f6f6f" stroke="none" stroke-width="0.00" opacity="0.340"/>
<path d="M 2730.58 151.00 C 2730.58 240.28, 3341.61 247.72, 3341.61 337.00 L 3348.61 337.00 C 3348.61 247.72, 2737.58 240.28, 2737.58 151.00 Z" fill="#6f6f6f" stroke="none" stroke-width="0.00" opacity="0.340"/>
<path d="M 3300.07 151.00 C 3300.07 240.28, 3344.79 247.72, 3344.79 337.00 L 3351.79 337.00 C 3351.79 247.72, 3307.07 240.28, 3307.07 151.00 Z" fill="#6f6f6f" stroke="none" stroke-width="0.00" opacity="0.340"/>
<path d="M 2727.00 547.00 C 2727.00 467.32, 2835.33 460.68, 2835.33 381.00 L 2842.33 381.00 C 2842.33 460.68, 2734.00 467.32, 2734.00 547.00 Z" fill="#6f6f6f" stroke="none" stroke-width="0.00" opacity="0.340"/>
<path d="M 3300.54 547.00 C 3300.54 467.32, 3342.44 460.68, 3342.44 381.00 L 3349.44 381.00 C 3349.44 460.68, 3307.54 467.32, 3307.54 547.00 Z" fill="#6f6f6f" stroke="none" stroke-width="0.00" opacity="0.340"/>
<path d="M 3305.43 151.00 C 3305.43 240.28, 2635.58 247.72, 2635.58 337.00 L 2642.58 337.00 C 2642.58 247.72, 3312.43 240.28, 3312.43 151.00 Z" fill="#6f6f6f" stroke="none" stroke-width="0.00" opacity="0.340"/>
<path d="M 2829.73 151.00 C 2829.73 240.28, 3341.30 247.72, 3341.30 337.00 L 3348.30 337.00 C 3348.30 247.72, 2836.73 240.28, 2836.73 151.00 Z" fill="#6f6f6f" stroke="none" stroke-width="0.00" opacity="0.340"/>
<path d="M 3300.57 547.00 C 3300.57 467.32, 3342.48 460.68, 3342.48 381.00 L 3349.48 381.00 C 3349.48 460.68, 3307.57 467.32, 3307.57 547.00 Z" fill="#6f6f6f" stroke="none" stroke-width="0.00" opacity="0.340"/>
<path d="M 2728.82 547.00 C 2728.82 467.32, 2836.06 460.68, 2836.06 381.00 L 2843.06 381.00 C 2843.06 460.68, 2735.82 467.32, 2735.82 547.00 Z" fill="#6f6f6f" stroke="none" stroke-width="0.00" opacity="0.340"/>
<path d="M 3300.03 151.00 C 3300.03 240.28, 3344.75 247.72, 3344.75 337.00 L 3351.75 337.00 C 3351.75 247.72, 3307.03 240.28, 3307.03 151.00 Z" fill="#6f6f6f" stroke="none" stroke-width="0.00" opacity="0.340"/>
<path d="M 3303.43 547.00 C 3303.43 467.32, 2836.57 460.68, 2836.57 381.00 L 2843.57 381.00 C 2843.57 460.68, 3310.43 467.32, 3310.43 547.00 Z" fill="#6f6f6f" stroke="none" stroke-width="0.00" opacity="0.340"/>
<rect x="2635.20" y="340.00" width="7.00" height="38.00" rx="1.50" fill="#6f6f6f" stroke="none" stroke-width="0.00" opacity="0.484"/>
<rect x="3304.95" y="110.00" width="7.00" height="38.00" rx="1.50" fill="#6f6f6f" stroke="none" stroke-width="0.00" opacity="0.484"/>
<rect x="2635.60" y="340.00" width="7.00" height="38.00" rx="1.50" fill="#6f6f6f" stroke="none" stroke-width="0.00" opacity="0.484"/>
<rect x="3305.45" y="110.00" width="7.00" height="38.00" rx="1.50" fill="#6f6f6f" stroke="none" stroke-width="0.00" opacity="0.484"/>
<rect x="2831.86" y="340.00" width="7.00" height="38.00" rx="1.50" fill="#6f6f6f" stroke="none" stroke-width="0.00" opacity="0.484"/>
<rect x="3298.70" y="110.00" width="7.00" height="38.00" rx="1.50" fill="#6f6f6f" stroke="none" stroke-width="0.00" opacity="0.484"/>
<rect x="2834.91" y="340.00" width="7.00" height="38.00" rx="1.50" fill="#6f6f6f" stroke="none" stroke-width="0.00" opacity="0.484"/>
<rect x="2733.22" y="110.00" width="7.00" height="38.00" rx="1.50" fill="#6f6f6f" stroke="none" stroke-width="0.00" opacity="0.484"/>
<rect x="2835.29" y="340.00" width="7.00" height="38.00" rx="1.50" fill="#6f6f6f" stroke="none" stroke-width="0.00" opacity="0.484"/>
<rect x="2623.26" y="550.00" width="7.00" height="38.00" rx="1.50" fill="#6f6f6f" stroke="none" stroke-width="0.00" opacity="0.484"/>
<rect x="2835.35" y="340.00" width="7.00" height="38.00" rx="1.50" fill="#6f6f6f" stroke="none" stroke-width="0.00" opacity="0.484"/>
<rect x="2624.76" y="110.00" width="7.00" height="38.00" rx="1.50" fill="#6f6f6f" stroke="none" stroke-width="0.00" opacity="0.484"/>
<rect x="2835.43" y="340.00" width="7.00" height="38.00" rx="1.50" fill="#6f6f6f" stroke="none" stroke-width="0.00" opacity="0.484"/>
<rect x="2727.10" y="550.00" width="7.00" height="38.00" rx="1.50" fill="#6f6f6f" stroke="none" stroke-width="0.00" opacity="0.484"/>
<rect x="2635.32" y="340.00" width="7.00" height="38.00" rx="1.50" fill="#6f6f6f" stroke="none" stroke-width="0.00" opacity="0.484"/>
<rect x="3305.07" y="110.00" width="7.00" height="38.00" rx="1.50" fill="#6f6f6f" stroke="none" stroke-width="0.00" opacity="0.484"/>
<rect x="2635.73" y="340.00" width="7.00" height="38.00" rx="1.50" fill="#6f6f6f" stroke="none" stroke-width="0.00" opacity="0.484"/>
<rect x="3305.59" y="110.00" width="7.00" height="38.00" rx="1.50" fill="#6f6f6f" stroke="none" stroke-width="0.00" opacity="0.484"/>
<rect x="2831.21" y="340.00" width="7.00" height="38.00" rx="1.50" fill="#6f6f6f" stroke="none" stroke-width="0.00" opacity="0.484"/>
<rect x="2621.21" y="550.00" width="7.00" height="38.00" rx="1.50" fill="#6f6f6f" stroke="none" stroke-width="0.00" opacity="0.484"/>
<rect x="2835.01" y="340.00" width="7.00" height="38.00" rx="1.50" fill="#6f6f6f" stroke="none" stroke-width="0.00" opacity="0.484"/>
<rect x="2726.66" y="550.00" width="7.00" height="38.00" rx="1.50" fill="#6f6f6f" stroke="none" stroke-width="0.00" opacity="0.484"/>
<rect x="3344.77" y="340.00" width="7.00" height="38.00" rx="1.50" fill="#6f6f6f" stroke="none" stroke-width="0.00" opacity="0.484"/>
<rect x="3300.05" y="110.00" width="7.00" height="38.00" rx="1.50" fill="#6f6f6f" stroke="none" stroke-width="0.00" opacity="0.484"/>
<rect x="2635.33" y="340.00" width="7.00" height="38.00" rx="1.50" fill="#6f6f6f" stroke="none" stroke-width="0.00" opacity="0.484"/>
<rect x="3305.08" y="110.00" width="7.00" height="38.00" rx="1.50" fill="#6f6f6f" stroke="none" stroke-width="0.00" opacity="0.484"/>
<rect x="2834.90" y="340.00" width="7.00" height="38.00" rx="1.50" fill="#6f6f6f" stroke="none" stroke-width="0.00" opacity="0.484"/>
<rect x="2733.21" y="110.00" width="7.00" height="38.00" rx="1.50" fill="#6f6f6f" stroke="none" stroke-width="0.00" opacity="0.484"/>
<rect x="2835.46" y="340.00" width="7.00" height="38.00" rx="1.50" fill="#6f6f6f" stroke="none" stroke-width="0.00" opacity="0.484"/>
<rect x="2727.13" y="550.00" width="7.00" height="38.00" rx="1.50" fill="#6f6f6f" stroke="none" stroke-width="0.00" opacity="0.484"/>
<rect x="3341.61" y="340.00" width="7.00" height="38.00" rx="1.50" fill="#6f6f6f" stroke="none" stroke-width="0.00" opacity="0.484"/>
<rect x="2730.58" y="110.00" width="7.00" height="38.00" rx="1.50" fill="#6f6f6f" stroke="none" stroke-width="0.00" opacity="0.484"/>
<rect x="3344.79" y="340.00" width="7.00" height="38.00" rx="1.50" fill="#6f6f6f" stroke="none" stroke-width="0.00" opacity="0.484"/>
<rect x="3300.07" y="110.00" width="7.00" height="38.00" rx="1.50" fill="#6f6f6f" stroke="none" stroke-width="0.00" opacity="0.484"/>
<rect x="2835.33" y="340.00" width="7.00" height="38.00" rx="1.50" fill="#6f6f6f" stroke="none" stroke-width="0.00" opacity="0.484"/>
<rect x="2727.00" y="550.00" width="7.00" height="38.00" rx="1.50" fill="#6f6f6f" stroke="none" stroke-width="0.00" opacity="0.484"/>
<rect x="3342.44" y="340.00" width="7.00" height="38.00" rx="1.50" fill="#6f6f6f" stroke="none" stroke-width="0.00" opacity="0.484"/>
<rect x="3300.54" y="550.00" width="7.00" height="38.00" rx="1.50" fill="#6f6f6f" stroke="none" stroke-width="0.00" opacity="0.484"/>
<rect x="2635.58" y="340.00" width="7.00" height="38.00" rx="1.50" fill="#6f6f6f" stroke="none" stroke-width="0.00" opacity="0.484"/>
<rect x="3305.43" y="110.00" width="7.00" height="38.00" rx="1.50" fill="#6f6f6f" stroke="none" stroke-width="0.00" opacity="0.484"/>
<rect x="3341.30" y="340.00" width="7.00" height="38.00" rx="1.50" fill="#6f6f6f" stroke="none" stroke-width="0.00" opacity="0.484"/>
<rect x="2829.73" y="110.00" width="7.00" height="38.00" rx="1.50" fill="#6f6f6f" stroke="none" stroke-width="0.00" opacity="0.484"/>
<rect x="3342.48" y="340.00" width="7.00" height="38.00" rx="1.50" fill="#6f6f6f" stroke="none" stroke-width="0.00" opacity="0.484"/>
<rect x="3300.57" y="550.00" width="7.00" height="38.00" rx="1.50" fill="#6f6f6f" stroke="none" stroke-width="0.00" opacity="0.484"/>
<rect x="2836.06" y="340.00" width="7.00" height="38.00" rx="1.50" fill="#6f6f6f" stroke="none" stroke-width="0.00" opacity="0.484"/>
<rect x="2728.82" y="550.00" width="7.00" height="38.00" rx="1.50" fill="#6f6f6f" stroke="none" stroke-width="0.00" opacity="0.484"/>
<rect x="3344.75" y="340.00" width="7.00" height="38.00" rx="1.50" fill="#6f6f6f" stroke="none" stroke-width="0.00" opacity="0.484"/>
<rect x="3300.03" y="110.00" width="7.00" height="38.00" rx="1.50" fill="#6f6f6f" stroke="none" stroke-width="0.00" opacity="0.484"/>
<rect x="2836.57" y="340.00" width="7.00" height="38.00" rx="1.50" fill="#6f6f6f" stroke="none" stroke-width="0.00" opacity="0.484"/>
<rect x="3303.43" y="550.00" width="7.00" height="38.00" rx="1.50" fill="#6f6f6f" stroke="none" stroke-width="0.00" opacity="0.484"/>
<line x1="620.00" y1="108.00" x2="620.00" y2="150.00" stroke="#111111" stroke-width="1.80" opacity="1.000"/>
<line x1="855.25" y1="108.00" x2="855.25" y2="150.00" stroke="#111111" stroke-width="1.80" opacity="1.000"/>
<line x1="1089.54" y1="108.00" x2="1089.54" y2="150.00" stroke="#111111" stroke-width="1.80" opacity="1.000"/>
<line x1="1286.27" y1="108.00" x2="1286.27" y2="150.00" stroke="#111111" stroke-width="1.80" opacity="1.000"/>
<line x1="1471.28" y1="108.00" x2="1471.28" y2="150.00" stroke="#111111" stroke-width="1.80" opacity="1.000"/>
<line x1="1648.87" y1="108.00" x2="1648.87" y2="150.00" stroke="#111111" stroke-width="1.80" opacity="1.000"/>
<line x1="1814.88" y1="108.00" x2="1814.88" y2="150.00" stroke="#111111" stroke-width="1.80" opacity="1.000"/>
<line x1="1969.72" y1="108.00" x2="1969.72" y2="150.00" stroke="#111111" stroke-width="1.80" opacity="1.000"/>
<line x1="2111.73" y1="108.00" x2="2111.73" y2="150.00" stroke="#111111" stroke-width="1.80" opacity="1.000"/>
<line x1="2236.50" y1="108.00" x2="2236.50" y2="150.00" stroke="#111111" stroke-width="1.80" opacity="1.000"/>
<line x1="2366.35" y1="108.00" x2="2366.35" y2="150.00" stroke="#111111" stroke-width="1.80" opacity="1.000"/>
<line x1="2496.58" y1="108.00" x2="2496.58" y2="150.00" stroke="#111111" stroke-width="1.80" opacity="1.000"/>
<line x1="2625.58" y1="108.00" x2="2625.58" y2="150.00" stroke="#111111" stroke-width="1.80" opacity="1.000"/>
<line x1="2733.32" y1="108.00" x2="2733.32" y2="150.00" stroke="#111111" stroke-width="1.80" opacity="1.000"/>
<line x1="2832.96" y1="108.00" x2="2832.96" y2="150.00" stroke="#111111" stroke-width="1.80" opacity="1.000"/>
<line x1="2929.65" y1="108.00" x2="2929.65" y2="150.00" stroke="#111111" stroke-width="1.80" opacity="1.000"/>
<line x1="3017.96" y1="108.00" x2="3017.96" y2="150.00" stroke="#111111" stroke-width="1.80" opacity="1.000"/>
<line x1="3098.76" y1="108.00" x2="3098.76" y2="150.00" stroke="#111111" stroke-width="1.80" opacity="1.000"/>
<line x1="3176.83" y1="108.00" x2="3176.83" y2="150.00" stroke="#111111" stroke-width="1.80" opacity="1.000"/>
<line x1="3237.54" y1="108.00" x2="3237.54" y2="150.00" stroke="#111111" stroke-width="1.80" opacity="1.000"/>
<line x1="3301.44" y1="108.00" x2="3301.44" y2="150.00" stroke="#111111" stroke-width="1.80" opacity="1.000"/>
<line x1="3343.36" y1="108.00" x2="3343.36" y2="150.00" stroke="#111111" stroke-width="1.80" opacity="1.000"/>
<line x1="3390.89" y1="108.00" x2="3390.89" y2="150.00" stroke="#111111" stroke-width="1.80" opacity="1.000"/>
<line x1="3540.00" y1="108.00" x2="3540.00" y2="150.00" stroke="#111111" stroke-width="1.80" opacity="1.000"/>
<text x="737.6" y="106.0" font-size="31.0" font-weight="700" fill="#202124" text-anchor="middle">1</text>
<text x="972.4" y="106.0" font-size="31.0" font-weight="700" fill="#202124" text-anchor="middle">2</text>
<text x="1187.9" y="106.0" font-size="31.0" font-weight="700" fill="#202124" text-anchor="middle">3</text>
<text x="1378.8" y="106.0" font-size="31.0" font-weight="700" fill="#202124" text-anchor="middle">4</text>
<text x="1560.1" y="106.0" font-size="31.0" font-weight="700" fill="#202124" text-anchor="middle">5</text>
<text x="1731.9" y="106.0" font-size="31.0" font-weight="700" fill="#202124" text-anchor="middle">6</text>
<text x="1892.3" y="106.0" font-size="31.0" font-weight="700" fill="#202124" text-anchor="middle">7</text>
<text x="2040.7" y="106.0" font-size="31.0" font-weight="700" fill="#202124" text-anchor="middle">8</text>
<text x="2174.1" y="106.0" font-size="31.0" font-weight="700" fill="#202124" text-anchor="middle">9</text>
<text x="2301.4" y="106.0" font-size="31.0" font-weight="700" fill="#202124" text-anchor="middle">10</text>
<text x="2431.5" y="106.0" font-size="31.0" font-weight="700" fill="#202124" text-anchor="middle">11</text>
<text x="2561.1" y="106.0" font-size="31.0" font-weight="700" fill="#202124" text-anchor="middle">12</text>
<text x="2679.4" y="106.0" font-size="31.0" font-weight="700" fill="#202124" text-anchor="middle">13</text>
<text x="2783.1" y="106.0" font-size="31.0" font-weight="700" fill="#202124" text-anchor="middle">14</text>
<text x="2881.3" y="106.0" font-size="31.0" font-weight="700" fill="#202124" text-anchor="middle">15</text>
<text x="2973.8" y="106.0" font-size="31.0" font-weight="700" fill="#202124" text-anchor="middle">16</text>
<text x="3058.4" y="106.0" font-size="31.0" font-weight="700" fill="#202124" text-anchor="middle">17</text>
<text x="3137.8" y="106.0" font-size="31.0" font-weight="700" fill="#202124" text-anchor="middle">18</text>
<text x="3207.2" y="106.0" font-size="31.0" font-weight="700" fill="#202124" text-anchor="middle">19</text>
<text x="3269.5" y="106.0" font-size="31.0" font-weight="700" fill="#202124" text-anchor="middle">20</text>
<text x="3322.4" y="106.0" font-size="31.0" font-weight="700" fill="#202124" text-anchor="middle">21</text>
<text x="3367.1" y="106.0" font-size="31.0" font-weight="700" fill="#202124" text-anchor="middle">22</text>
<text x="3465.4" y="106.0" font-size="31.0" font-weight="700" fill="#202124" text-anchor="middle">X</text>
<line x1="620.00" y1="338.00" x2="620.00" y2="380.00" stroke="#111111" stroke-width="1.80" opacity="1.000"/>
<line x1="858.93" y1="338.00" x2="858.93" y2="380.00" stroke="#111111" stroke-width="1.80" opacity="1.000"/>
<line x1="1093.50" y1="338.00" x2="1093.50" y2="380.00" stroke="#111111" stroke-width="1.80" opacity="1.000"/>
<line x1="1288.31" y1="338.00" x2="1288.31" y2="380.00" stroke="#111111" stroke-width="1.80" opacity="1.000"/>
<line x1="1474.40" y1="338.00" x2="1474.40" y2="380.00" stroke="#111111" stroke-width="1.80" opacity="1.000"/>
<line x1="1652.22" y1="338.00" x2="1652.22" y2="380.00" stroke="#111111" stroke-width="1.80" opacity="1.000"/>
<line x1="1818.46" y1="338.00" x2="1818.46" y2="380.00" stroke="#111111" stroke-width="1.80" opacity="1.000"/>
<line x1="1973.38" y1="338.00" x2="1973.38" y2="380.00" stroke="#111111" stroke-width="1.80" opacity="1.000"/>
<line x1="2115.73" y1="338.00" x2="2115.73" y2="380.00" stroke="#111111" stroke-width="1.80" opacity="1.000"/>
<line x1="2240.58" y1="338.00" x2="2240.58" y2="380.00" stroke="#111111" stroke-width="1.80" opacity="1.000"/>
<line x1="2370.55" y1="338.00" x2="2370.55" y2="380.00" stroke="#111111" stroke-width="1.80" opacity="1.000"/>
<line x1="2500.94" y1="338.00" x2="2500.94" y2="380.00" stroke="#111111" stroke-width="1.80" opacity="1.000"/>
<line x1="2631.38" y1="338.00" x2="2631.38" y2="380.00" stroke="#111111" stroke-width="1.80" opacity="1.000"/>
<line x1="2737.23" y1="338.00" x2="2737.23" y2="380.00" stroke="#111111" stroke-width="1.80" opacity="1.000"/>
<line x1="2834.35" y1="338.00" x2="2834.35" y2="380.00" stroke="#111111" stroke-width="1.80" opacity="1.000"/>
<line x1="2929.17" y1="338.00" x2="2929.17" y2="380.00" stroke="#111111" stroke-width="1.80" opacity="1.000"/>
<line x1="3017.76" y1="338.00" x2="3017.76" y2="380.00" stroke="#111111" stroke-width="1.80" opacity="1.000"/>
<line x1="3099.22" y1="338.00" x2="3099.22" y2="380.00" stroke="#111111" stroke-width="1.80" opacity="1.000"/>
<line x1="3177.72" y1="338.00" x2="3177.72" y2="380.00" stroke="#111111" stroke-width="1.80" opacity="1.000"/>
<line x1="3238.41" y1="338.00" x2="3238.41" y2="380.00" stroke="#111111" stroke-width="1.80" opacity="1.000"/>
<line x1="3302.47" y1="338.00" x2="3302.47" y2="380.00" stroke="#111111" stroke-width="1.80" opacity="1.000"/>
<line x1="3344.44" y1="338.00" x2="3344.44" y2="380.00" stroke="#111111" stroke-width="1.80" opacity="1.000"/>
<line x1="3391.33" y1="338.00" x2="3391.33" y2="380.00" stroke="#111111" stroke-width="1.80" opacity="1.000"/>
<line x1="3540.00" y1="338.00" x2="3540.00" y2="380.00" stroke="#111111" stroke-width="1.80" opacity="1.000"/>
<text x="739.5" y="336.0" font-size="31.0" font-weight="700" fill="#202124" text-anchor="middle">1</text>
<text x="976.2" y="336.0" font-size="31.0" font-weight="700" fill="#202124" text-anchor="middle">2</text>
<text x="1190.9" y="336.0" font-size="31.0" font-weight="700" fill="#202124" text-anchor="middle">3</text>
<text x="1381.4" y="336.0" font-size="31.0" font-weight="700" fill="#202124" text-anchor="middle">4</text>
<text x="1563.3" y="336.0" font-size="31.0" font-weight="700" fill="#202124" text-anchor="middle">5</text>
<text x="1735.3" y="336.0" font-size="31.0" font-weight="700" fill="#202124" text-anchor="middle">6</text>
<text x="1895.9" y="336.0" font-size="31.0" font-weight="700" fill="#202124" text-anchor="middle">7</text>
<text x="2044.6" y="336.0" font-size="31.0" font-weight="700" fill="#202124" text-anchor="middle">8</text>
<text x="2178.2" y="336.0" font-size="31.0" font-weight="700" fill="#202124" text-anchor="middle">9</text>
<text x="2305.6" y="336.0" font-size="31.0" font-weight="700" fill="#202124" text-anchor="middle">10</text>
<text x="2435.7" y="336.0" font-size="31.0" font-weight="700" fill="#202124" text-anchor="middle">11</text>
<text x="2566.2" y="336.0" font-size="31.0" font-weight="700" fill="#202124" text-anchor="middle">12</text>
<text x="2684.3" y="336.0" font-size="31.0" font-weight="700" fill="#202124" text-anchor="middle">13</text>
<text x="2785.8" y="336.0" font-size="31.0" font-weight="700" fill="#202124" text-anchor="middle">14</text>
<text x="2881.8" y="336.0" font-size="31.0" font-weight="700" fill="#202124" text-anchor="middle">15</text>
<text x="2973.5" y="336.0" font-size="31.0" font-weight="700" fill="#202124" text-anchor="middle">16</text>
<text x="3058.5" y="336.0" font-size="31.0" font-weight="700" fill="#202124" text-anchor="middle">17</text>
<text x="3138.5" y="336.0" font-size="31.0" font-weight="700" fill="#202124" text-anchor="middle">18</text>
<text x="3208.1" y="336.0" font-size="31.0" font-weight="700" fill="#202124" text-anchor="middle">19</text>
<text x="3270.4" y="336.0" font-size="31.0" font-weight="700" fill="#202124" text-anchor="middle">20</text>
<text x="3323.5" y="336.0" font-size="31.0" font-weight="700" fill="#202124" text-anchor="middle">21</text>
<text x="3367.9" y="336.0" font-size="31.0" font-weight="700" fill="#202124" text-anchor="middle">22</text>
<text x="3465.7" y="336.0" font-size="31.0" font-weight="700" fill="#202124" text-anchor="middle">X</text>
<line x1="620.00" y1="548.00" x2="620.00" y2="590.00" stroke="#111111" stroke-width="1.80" opacity="1.000"/>
<line x1="857.83" y1="548.00" x2="857.83" y2="590.00" stroke="#111111" stroke-width="1.80" opacity="1.000"/>
<line x1="1090.40" y1="548.00" x2="1090.40" y2="590.00" stroke="#111111" stroke-width="1.80" opacity="1.000"/>
<line x1="1283.82" y1="548.00" x2="1283.82" y2="590.00" stroke="#111111" stroke-width="1.80" opacity="1.000"/>
<line x1="1468.42" y1="548.00" x2="1468.42" y2="590.00" stroke="#111111" stroke-width="1.80" opacity="1.000"/>
<line x1="1643.43" y1="548.00" x2="1643.43" y2="590.00" stroke="#111111" stroke-width="1.80" opacity="1.000"/>
<line x1="1809.02" y1="548.00" x2="1809.02" y2="590.00" stroke="#111111" stroke-width="1.80" opacity="1.000"/>
<line x1="1963.85" y1="548.00" x2="1963.85" y2="590.00" stroke="#111111" stroke-width="1.80" opacity="1.000"/>
<line x1="2104.15" y1="548.00" x2="2104.15" y2="590.00" stroke="#111111" stroke-width="1.80" opacity="1.000"/>
<line x1="2235.86" y1="548.00" x2="2235.86" y2="590.00" stroke="#111111" stroke-width="1.80" opacity="1.000"/>
<line x1="2365.19" y1="548.00" x2="2365.19" y2="590.00" stroke="#111111" stroke-width="1.80" opacity="1.000"/>
<line x1="2494.69" y1="548.00" x2="2494.69" y2="590.00" stroke="#111111" stroke-width="1.80" opacity="1.000"/>
<line x1="2624.35" y1="548.00" x2="2624.35" y2="590.00" stroke="#111111" stroke-width="1.80" opacity="1.000"/>
<line x1="2727.93" y1="548.00" x2="2727.93" y2="590.00" stroke="#111111" stroke-width="1.80" opacity="1.000"/>
<line x1="2825.65" y1="548.00" x2="2825.65" y2="590.00" stroke="#111111" stroke-width="1.80" opacity="1.000"/>
<line x1="2920.65" y1="548.00" x2="2920.65" y2="590.00" stroke="#111111" stroke-width="1.80" opacity="1.000"/>
<line x1="3017.57" y1="548.00" x2="3017.57" y2="590.00" stroke="#111111" stroke-width="1.80" opacity="1.000"/>
<line x1="3098.54" y1="548.00" x2="3098.54" y2="590.00" stroke="#111111" stroke-width="1.80" opacity="1.000"/>
<line x1="3176.54" y1="548.00" x2="3176.54" y2="590.00" stroke="#111111" stroke-width="1.80" opacity="1.000"/>
<line x1="3238.24" y1="548.00" x2="3238.24" y2="590.00" stroke="#111111" stroke-width="1.80" opacity="1.000"/>
<line x1="3303.14" y1="548.00" x2="3303.14" y2="590.00" stroke="#111111" stroke-width="1.80" opacity="1.000"/>
<line x1="3345.63" y1="548.00" x2="3345.63" y2="590.00" stroke="#111111" stroke-width="1.80" opacity="1.000"/>
<line x1="3392.21" y1="548.00" x2="3392.21" y2="590.00" stroke="#111111" stroke-width="1.80" opacity="1.000"/>
<line x1="3540.00" y1="548.00" x2="3540.00" y2="590.00" stroke="#111111" stroke-width="1.80" opacity="1.000"/>
<text x="738.9" y="546.0" font-size="31.0" font-weight="700" fill="#202124" text-anchor="middle">1</text>
<text x="974.1" y="546.0" font-size="31.0" font-weight="700" fill="#202124" text-anchor="middle">2</text>
<text x="1187.1" y="546.0" font-size="31.0" font-weight="700" fill="#202124" text-anchor="middle">3</text>
<text x="1376.1" y="546.0" font-size="31.0" font-weight="700" fill="#202124" text-anchor="middle">4</text>
<text x="1555.9" y="546.0" font-size="31.0" font-weight="700" fill="#202124" text-anchor="middle">5</text>
<text x="1726.2" y="546.0" font-size="31.0" font-weight="700" fill="#202124" text-anchor="middle">6</text>
<text x="1886.4" y="546.0" font-size="31.0" font-weight="700" fill="#202124" text-anchor="middle">7</text>
<text x="2034.0" y="546.0" font-size="31.0" font-weight="700" fill="#202124" text-anchor="middle">8</text>
<text x="2170.0" y="546.0" font-size="31.0" font-weight="700" fill="#202124" text-anchor="middle">9</text>
<text x="2300.5" y="546.0" font-size="31.0" font-weight="700" fill="#202124" text-anchor="middle">10</text>
<text x="2429.9" y="546.0" font-size="31.0" font-weight="700" fill="#202124" text-anchor="middle">11</text>
<text x="2559.5" y="546.0" font-size="31.0" font-weight="700" fill="#202124" text-anchor="middle">12</text>
<text x="2676.1" y="546.0" font-size="31.0" font-weight="700" fill="#202124" text-anchor="middle">13</text>
<text x="2776.8" y="546.0" font-size="31.0" font-weight="700" fill="#202124" text-anchor="middle">14</text>
<text x="2873.1" y="546.0" font-size="31.0" font-weight="700" fill="#202124" text-anchor="middle">15</text>
<text x="2969.1" y="546.0" font-size="31.0" font-weight="700" fill="#202124" text-anchor="middle">16</text>
<text x="3058.1" y="546.0" font-size="31.0" font-weight="700" fill="#202124" text-anchor="middle">17</text>
<text x="3137.5" y="546.0" font-size="31.0" font-weight="700" fill="#202124" text-anchor="middle">18</text>
<text x="3207.4" y="546.0" font-size="31.0" font-weight="700" fill="#202124" text-anchor="middle">19</text>
<text x="3270.7" y="546.0" font-size="31.0" font-weight="700" fill="#202124" text-anchor="middle">20</text>
<text x="3324.4" y="546.0" font-size="31.0" font-weight="700" fill="#202124" text-anchor="middle">21</text>
<text x="3368.9" y="546.0" font-size="31.0" font-weight="700" fill="#202124" text-anchor="middle">22</text>
<text x="3466.1" y="546.0" font-size="31.0" font-weight="700" fill="#202124" text-anchor="middle">X</text>
<text x="40.0" y="66.0" font-size="89.9" font-weight="700" fill="#202124" text-anchor="start">C</text>
<text x="620.0" y="690.0" font-size="37.2" font-weight="700" fill="#5f6368" text-anchor="start">Ribbon classes</text>
<rect x="945.00" y="670.00" width="27.00" height="21.00" rx="0.00" fill="#6f6f6f" stroke="none" stroke-width="0.00" opacity="0.900"/>
<text x="984.0" y="690.0" font-size="32.6" font-weight="400" fill="#202124" text-anchor="start">acrocentric (25)</text>
</svg>
