<svg xmlns="http://www.w3.org/2000/svg" width="3600" height="840" viewBox="0 0 3600 840">
<rect width="100%" height="100%" fill="white"/>
<style>text{font-family:Arial,Helvetica,sans-serif;dominant-baseline:alphabetic}</style>
<line x1="500.00" y1="99.00" x2="3540.00" y2="99.00" stroke="#f1f3f4" stroke-width="0.80" opacity="0.800"/>
<line x1="500.00" y1="381.00" x2="3540.00" y2="381.00" stroke="#f1f3f4" stroke-width="0.80" opacity="0.800"/>
<line x1="500.00" y1="539.00" x2="3540.00" y2="539.00" stroke="#f1f3f4" stroke-width="0.80" opacity="0.800"/>
<text x="476.0" y="371.0" font-size="37.2" font-weight="700" fill="#202124" text-anchor="end">PAN027 maternal</text>
<rect x="500.00" y="345.00" width="248.75" height="28.00" rx="0.00" fill="#eef0f2" stroke="#ffffff" stroke-width="1.10" opacity="1.000"/>
<text x="624.4" y="336.0" font-size="29.4" font-weight="600" fill="#5f6368" text-anchor="middle">1</text>
<line x1="500.00" y1="25.00" x2="500.00" y2="625.00" stroke="#e8eaed" stroke-width="0.70" opacity="0.550"/>
<rect x="748.75" y="345.00" width="244.20" height="28.00" rx="0.00" fill="#dfe3e6" stroke="#ffffff" stroke-width="1.10" opacity="1.000"/>
<text x="870.9" y="336.0" font-size="29.4" font-weight="600" fill="#5f6368" text-anchor="middle">2</text>
<rect x="992.96" y="345.00" width="202.82" height="28.00" rx="0.00" fill="#eef0f2" stroke="#ffffff" stroke-width="1.10" opacity="1.000"/>
<text x="1094.4" y="336.0" font-size="29.4" font-weight="600" fill="#5f6368" text-anchor="middle">3</text>
<line x1="992.96" y1="25.00" x2="992.96" y2="625.00" stroke="#e8eaed" stroke-width="0.70" opacity="0.550"/>
<rect x="1195.78" y="345.00" width="193.74" height="28.00" rx="0.00" fill="#dfe3e6" stroke="#ffffff" stroke-width="1.10" opacity="1.000"/>
<text x="1292.6" y="336.0" font-size="29.4" font-weight="600" fill="#5f6368" text-anchor="middle">4</text>
<rect x="1389.51" y="345.00" width="185.13" height="28.00" rx="0.00" fill="#eef0f2" stroke="#ffffff" stroke-width="1.10" opacity="1.000"/>
<text x="1482.1" y="336.0" font-size="29.4" font-weight="600" fill="#5f6368" text-anchor="middle">5</text>
<line x1="1389.51" y1="25.00" x2="1389.51" y2="625.00" stroke="#e8eaed" stroke-width="0.70" opacity="0.550"/>
<rect x="1574.64" y="345.00" width="173.07" height="28.00" rx="0.00" fill="#dfe3e6" stroke="#ffffff" stroke-width="1.10" opacity="1.000"/>
<text x="1661.2" y="336.0" font-size="29.4" font-weight="600" fill="#5f6368" text-anchor="middle">6</text>
<rect x="1747.71" y="345.00" width="161.28" height="28.00" rx="0.00" fill="#eef0f2" stroke="#ffffff" stroke-width="1.10" opacity="1.000"/>
<text x="1828.4" y="336.0" font-size="29.4" font-weight="600" fill="#5f6368" text-anchor="middle">7</text>
<rect x="1909.00" y="345.00" width="148.20" height="28.00" rx="0.00" fill="#dfe3e6" stroke="#ffffff" stroke-width="1.10" opacity="1.000"/>
<text x="1983.1" y="336.0" font-size="29.4" font-weight="600" fill="#5f6368" text-anchor="middle">8</text>
<rect x="2057.20" y="345.00" width="129.97" height="28.00" rx="0.00" fill="#eef0f2" stroke="#ffffff" stroke-width="1.10" opacity="1.000"/>
<text x="2122.2" y="336.0" font-size="29.4" font-weight="600" fill="#5f6368" text-anchor="middle">9</text>
<line x1="2057.20" y1="25.00" x2="2057.20" y2="625.00" stroke="#e8eaed" stroke-width="0.70" opacity="0.550"/>
<rect x="2187.18" y="345.00" width="135.32" height="28.00" rx="0.00" fill="#dfe3e6" stroke="#ffffff" stroke-width="1.10" opacity="1.000"/>
<text x="2254.8" y="336.0" font-size="29.4" font-weight="600" fill="#5f6368" text-anchor="middle">10</text>
<rect x="2322.49" y="345.00" width="135.74" height="28.00" rx="0.00" fill="#eef0f2" stroke="#ffffff" stroke-width="1.10" opacity="1.000"/>
<text x="2390.4" y="336.0" font-size="29.4" font-weight="600" fill="#5f6368" text-anchor="middle">11</text>
<rect x="2458.24" y="345.00" width="135.80" height="28.00" rx="0.00" fill="#dfe3e6" stroke="#ffffff" stroke-width="1.10" opacity="1.000"/>
<text x="2526.1" y="336.0" font-size="29.4" font-weight="600" fill="#5f6368" text-anchor="middle">12</text>
<rect x="2594.04" y="345.00" width="110.20" height="28.00" rx="0.00" fill="#eef0f2" stroke="#ffffff" stroke-width="1.10" opacity="1.000"/>
<text x="2649.1" y="336.0" font-size="29.4" font-weight="600" fill="#5f6368" text-anchor="middle">13</text>
<line x1="2594.04" y1="25.00" x2="2594.04" y2="625.00" stroke="#e8eaed" stroke-width="0.70" opacity="0.550"/>
<rect x="2704.24" y="345.00" width="101.11" height="28.00" rx="0.00" fill="#dfe3e6" stroke="#ffffff" stroke-width="1.10" opacity="1.000"/>
<text x="2754.8" y="336.0" font-size="29.4" font-weight="600" fill="#5f6368" text-anchor="middle">14</text>
<rect x="2805.35" y="345.00" width="98.72" height="28.00" rx="0.00" fill="#eef0f2" stroke="#ffffff" stroke-width="1.10" opacity="1.000"/>
<text x="2854.7" y="336.0" font-size="29.4" font-weight="600" fill="#5f6368" text-anchor="middle">15</text>
<line x1="2805.35" y1="25.00" x2="2805.35" y2="625.00" stroke="#e8eaed" stroke-width="0.70" opacity="0.550"/>
<rect x="2904.07" y="345.00" width="92.23" height="28.00" rx="0.00" fill="#dfe3e6" stroke="#ffffff" stroke-width="1.10" opacity="1.000"/>
<text x="2950.2" y="336.0" font-size="29.4" font-weight="600" fill="#5f6368" text-anchor="middle">16</text>
<rect x="2996.30" y="345.00" width="84.80" height="28.00" rx="0.00" fill="#eef0f2" stroke="#ffffff" stroke-width="1.10" opacity="1.000"/>
<text x="3038.7" y="336.0" font-size="29.4" font-weight="600" fill="#5f6368" text-anchor="middle">17</text>
<rect x="3081.11" y="345.00" width="81.73" height="28.00" rx="0.00" fill="#dfe3e6" stroke="#ffffff" stroke-width="1.10" opacity="1.000"/>
<text x="3122.0" y="336.0" font-size="29.4" font-weight="600" fill="#5f6368" text-anchor="middle">18</text>
<rect x="3162.83" y="345.00" width="63.19" height="28.00" rx="0.00" fill="#eef0f2" stroke="#ffffff" stroke-width="1.10" opacity="1.000"/>
<text x="3194.4" y="336.0" font-size="29.4" font-weight="600" fill="#5f6368" text-anchor="middle">19</text>
<rect x="3226.02" y="345.00" width="66.69" height="28.00" rx="0.00" fill="#dfe3e6" stroke="#ffffff" stroke-width="1.10" opacity="1.000"/>
<text x="3259.4" y="336.0" font-size="29.4" font-weight="600" fill="#5f6368" text-anchor="middle">20</text>
<rect x="3292.71" y="345.00" width="43.69" height="28.00" rx="0.00" fill="#eef0f2" stroke="#ffffff" stroke-width="1.10" opacity="1.000"/>
<text x="3314.6" y="336.0" font-size="29.4" font-weight="600" fill="#5f6368" text-anchor="middle">21</text>
<line x1="3292.71" y1="25.00" x2="3292.71" y2="625.00" stroke="#e8eaed" stroke-width="0.70" opacity="0.550"/>
<rect x="3336.40" y="345.00" width="48.81" height="28.00" rx="0.00" fill="#dfe3e6" stroke="#ffffff" stroke-width="1.10" opacity="1.000"/>
<text x="3360.8" y="336.0" font-size="29.4" font-weight="600" fill="#5f6368" text-anchor="middle">22</text>
<line x1="3336.40" y1="25.00" x2="3336.40" y2="625.00" stroke="#e8eaed" stroke-width="0.70" opacity="0.550"/>
<rect x="3385.22" y="345.00" width="154.78" height="28.00" rx="0.00" fill="#eef0f2" stroke="#ffffff" stroke-width="1.10" opacity="1.000"/>
<text x="3462.6" y="336.0" font-size="29.4" font-weight="600" fill="#5f6368" text-anchor="middle">X</text>
<line x1="3385.22" y1="25.00" x2="3385.22" y2="625.00" stroke="#e8eaed" stroke-width="0.70" opacity="0.550"/>
<rect x="500.00" y="345.00" width="3040.00" height="28.00" rx="0.00" fill="none" stroke="#bdc1c6" stroke-width="1.10" opacity="1.000"/>
<text x="476.0" y="141.0" font-size="37.2" font-weight="700" fill="#202124" text-anchor="end">PAN010 h1</text>
<rect x="500.00" y="115.00" width="244.91" height="28.00" rx="0.00" fill="#eef0f2" stroke="#ffffff" stroke-width="1.10" opacity="1.000"/>
<text x="622.5" y="106.0" font-size="29.4" font-weight="600" fill="#5f6368" text-anchor="middle">1</text>
<line x1="500.00" y1="25.00" x2="500.00" y2="625.00" stroke="#e8eaed" stroke-width="0.70" opacity="0.550"/>
<rect x="744.91" y="115.00" width="243.93" height="28.00" rx="0.00" fill="#dfe3e6" stroke="#ffffff" stroke-width="1.10" opacity="1.000"/>
<text x="866.9" y="106.0" font-size="29.4" font-weight="600" fill="#5f6368" text-anchor="middle">2</text>
<rect x="988.84" y="115.00" width="204.81" height="28.00" rx="0.00" fill="#eef0f2" stroke="#ffffff" stroke-width="1.10" opacity="1.000"/>
<text x="1091.2" y="106.0" font-size="29.4" font-weight="600" fill="#5f6368" text-anchor="middle">3</text>
<line x1="988.84" y1="25.00" x2="988.84" y2="625.00" stroke="#e8eaed" stroke-width="0.70" opacity="0.550"/>
<rect x="1193.65" y="115.00" width="192.62" height="28.00" rx="0.00" fill="#dfe3e6" stroke="#ffffff" stroke-width="1.10" opacity="1.000"/>
<text x="1290.0" y="106.0" font-size="29.4" font-weight="600" fill="#5f6368" text-anchor="middle">4</text>
<rect x="1386.27" y="115.00" width="184.89" height="28.00" rx="0.00" fill="#eef0f2" stroke="#ffffff" stroke-width="1.10" opacity="1.000"/>
<text x="1478.7" y="106.0" font-size="29.4" font-weight="600" fill="#5f6368" text-anchor="middle">5</text>
<line x1="1386.27" y1="25.00" x2="1386.27" y2="625.00" stroke="#e8eaed" stroke-width="0.70" opacity="0.550"/>
<rect x="1571.16" y="115.00" width="172.82" height="28.00" rx="0.00" fill="#dfe3e6" stroke="#ffffff" stroke-width="1.10" opacity="1.000"/>
<text x="1657.6" y="106.0" font-size="29.4" font-weight="600" fill="#5f6368" text-anchor="middle">6</text>
<rect x="1743.98" y="115.00" width="161.21" height="28.00" rx="0.00" fill="#eef0f2" stroke="#ffffff" stroke-width="1.10" opacity="1.000"/>
<text x="1824.6" y="106.0" font-size="29.4" font-weight="600" fill="#5f6368" text-anchor="middle">7</text>
<rect x="1905.19" y="115.00" width="147.84" height="28.00" rx="0.00" fill="#dfe3e6" stroke="#ffffff" stroke-width="1.10" opacity="1.000"/>
<text x="1979.1" y="106.0" font-size="29.4" font-weight="600" fill="#5f6368" text-anchor="middle">8</text>
<rect x="2053.03" y="115.00" width="129.90" height="28.00" rx="0.00" fill="#eef0f2" stroke="#ffffff" stroke-width="1.10" opacity="1.000"/>
<text x="2118.0" y="106.0" font-size="29.4" font-weight="600" fill="#5f6368" text-anchor="middle">9</text>
<line x1="2053.03" y1="25.00" x2="2053.03" y2="625.00" stroke="#e8eaed" stroke-width="0.70" opacity="0.550"/>
<rect x="2182.93" y="115.00" width="135.19" height="28.00" rx="0.00" fill="#dfe3e6" stroke="#ffffff" stroke-width="1.10" opacity="1.000"/>
<text x="2250.5" y="106.0" font-size="29.4" font-weight="600" fill="#5f6368" text-anchor="middle">10</text>
<rect x="2318.12" y="115.00" width="135.57" height="28.00" rx="0.00" fill="#eef0f2" stroke="#ffffff" stroke-width="1.10" opacity="1.000"/>
<text x="2385.9" y="106.0" font-size="29.4" font-weight="600" fill="#5f6368" text-anchor="middle">11</text>
<rect x="2453.70" y="115.00" width="134.30" height="28.00" rx="0.00" fill="#dfe3e6" stroke="#ffffff" stroke-width="1.10" opacity="1.000"/>
<text x="2520.8" y="106.0" font-size="29.4" font-weight="600" fill="#5f6368" text-anchor="middle">12</text>
<rect x="2588.00" y="115.00" width="112.16" height="28.00" rx="0.00" fill="#eef0f2" stroke="#ffffff" stroke-width="1.10" opacity="1.000"/>
<text x="2644.1" y="106.0" font-size="29.4" font-weight="600" fill="#5f6368" text-anchor="middle">13</text>
<line x1="2588.00" y1="25.00" x2="2588.00" y2="625.00" stroke="#e8eaed" stroke-width="0.70" opacity="0.550"/>
<rect x="2700.17" y="115.00" width="103.73" height="28.00" rx="0.00" fill="#dfe3e6" stroke="#ffffff" stroke-width="1.10" opacity="1.000"/>
<text x="2752.0" y="106.0" font-size="29.4" font-weight="600" fill="#5f6368" text-anchor="middle">14</text>
<rect x="2803.90" y="115.00" width="100.67" height="28.00" rx="0.00" fill="#eef0f2" stroke="#ffffff" stroke-width="1.10" opacity="1.000"/>
<text x="2854.2" y="106.0" font-size="29.4" font-weight="600" fill="#5f6368" text-anchor="middle">15</text>
<line x1="2803.90" y1="25.00" x2="2803.90" y2="625.00" stroke="#e8eaed" stroke-width="0.70" opacity="0.550"/>
<rect x="2904.57" y="115.00" width="91.94" height="28.00" rx="0.00" fill="#dfe3e6" stroke="#ffffff" stroke-width="1.10" opacity="1.000"/>
<text x="2950.5" y="106.0" font-size="29.4" font-weight="600" fill="#5f6368" text-anchor="middle">16</text>
<rect x="2996.50" y="115.00" width="84.13" height="28.00" rx="0.00" fill="#eef0f2" stroke="#ffffff" stroke-width="1.10" opacity="1.000"/>
<text x="3038.6" y="106.0" font-size="29.4" font-weight="600" fill="#5f6368" text-anchor="middle">17</text>
<rect x="3080.63" y="115.00" width="81.27" height="28.00" rx="0.00" fill="#dfe3e6" stroke="#ffffff" stroke-width="1.10" opacity="1.000"/>
<text x="3121.3" y="106.0" font-size="29.4" font-weight="600" fill="#5f6368" text-anchor="middle">18</text>
<rect x="3161.91" y="115.00" width="63.21" height="28.00" rx="0.00" fill="#eef0f2" stroke="#ffffff" stroke-width="1.10" opacity="1.000"/>
<text x="3193.5" y="106.0" font-size="29.4" font-weight="600" fill="#5f6368" text-anchor="middle">19</text>
<rect x="3225.12" y="115.00" width="66.53" height="28.00" rx="0.00" fill="#dfe3e6" stroke="#ffffff" stroke-width="1.10" opacity="1.000"/>
<text x="3258.4" y="106.0" font-size="29.4" font-weight="600" fill="#5f6368" text-anchor="middle">20</text>
<rect x="3291.64" y="115.00" width="43.64" height="28.00" rx="0.00" fill="#eef0f2" stroke="#ffffff" stroke-width="1.10" opacity="1.000"/>
<text x="3313.5" y="106.0" font-size="29.4" font-weight="600" fill="#5f6368" text-anchor="middle">21</text>
<line x1="3291.64" y1="25.00" x2="3291.64" y2="625.00" stroke="#e8eaed" stroke-width="0.70" opacity="0.550"/>
<rect x="3335.28" y="115.00" width="49.49" height="28.00" rx="0.00" fill="#dfe3e6" stroke="#ffffff" stroke-width="1.10" opacity="1.000"/>
<text x="3360.0" y="106.0" font-size="29.4" font-weight="600" fill="#5f6368" text-anchor="middle">22</text>
<line x1="3335.28" y1="25.00" x2="3335.28" y2="625.00" stroke="#e8eaed" stroke-width="0.70" opacity="0.550"/>
<rect x="3384.77" y="115.00" width="155.23" height="28.00" rx="0.00" fill="#eef0f2" stroke="#ffffff" stroke-width="1.10" opacity="1.000"/>
<text x="3462.4" y="106.0" font-size="29.4" font-weight="600" fill="#5f6368" text-anchor="middle">X</text>
<line x1="3384.77" y1="25.00" x2="3384.77" y2="625.00" stroke="#e8eaed" stroke-width="0.70" opacity="0.550"/>
<rect x="500.00" y="115.00" width="3040.00" height="28.00" rx="0.00" fill="none" stroke="#bdc1c6" stroke-width="1.10" opacity="1.000"/>
<text x="476.0" y="581.0" font-size="37.2" font-weight="700" fill="#202124" text-anchor="end">PAN010 h2</text>
<rect x="500.00" y="555.00" width="247.60" height="28.00" rx="0.00" fill="#eef0f2" stroke="#ffffff" stroke-width="1.10" opacity="1.000"/>
<text x="623.8" y="546.0" font-size="29.4" font-weight="600" fill="#5f6368" text-anchor="middle">1</text>
<line x1="500.00" y1="25.00" x2="500.00" y2="625.00" stroke="#e8eaed" stroke-width="0.70" opacity="0.550"/>
<rect x="747.60" y="555.00" width="242.13" height="28.00" rx="0.00" fill="#dfe3e6" stroke="#ffffff" stroke-width="1.10" opacity="1.000"/>
<text x="868.7" y="546.0" font-size="29.4" font-weight="600" fill="#5f6368" text-anchor="middle">2</text>
<rect x="989.73" y="555.00" width="201.37" height="28.00" rx="0.00" fill="#eef0f2" stroke="#ffffff" stroke-width="1.10" opacity="1.000"/>
<text x="1090.4" y="546.0" font-size="29.4" font-weight="600" fill="#5f6368" text-anchor="middle">3</text>
<line x1="989.73" y1="25.00" x2="989.73" y2="625.00" stroke="#e8eaed" stroke-width="0.70" opacity="0.550"/>
<rect x="1191.10" y="555.00" width="192.19" height="28.00" rx="0.00" fill="#dfe3e6" stroke="#ffffff" stroke-width="1.10" opacity="1.000"/>
<text x="1287.2" y="546.0" font-size="29.4" font-weight="600" fill="#5f6368" text-anchor="middle">4</text>
<rect x="1383.29" y="555.00" width="182.21" height="28.00" rx="0.00" fill="#eef0f2" stroke="#ffffff" stroke-width="1.10" opacity="1.000"/>
<text x="1474.4" y="546.0" font-size="29.4" font-weight="600" fill="#5f6368" text-anchor="middle">5</text>
<line x1="1383.29" y1="25.00" x2="1383.29" y2="625.00" stroke="#e8eaed" stroke-width="0.70" opacity="0.550"/>
<rect x="1565.49" y="555.00" width="172.39" height="28.00" rx="0.00" fill="#dfe3e6" stroke="#ffffff" stroke-width="1.10" opacity="1.000"/>
<text x="1651.7" y="546.0" font-size="29.4" font-weight="600" fill="#5f6368" text-anchor="middle">6</text>
<rect x="1737.88" y="555.00" width="161.19" height="28.00" rx="0.00" fill="#eef0f2" stroke="#ffffff" stroke-width="1.10" opacity="1.000"/>
<text x="1818.5" y="546.0" font-size="29.4" font-weight="600" fill="#5f6368" text-anchor="middle">7</text>
<rect x="1899.08" y="555.00" width="146.06" height="28.00" rx="0.00" fill="#dfe3e6" stroke="#ffffff" stroke-width="1.10" opacity="1.000"/>
<text x="1972.1" y="546.0" font-size="29.4" font-weight="600" fill="#5f6368" text-anchor="middle">8</text>
<rect x="2045.14" y="555.00" width="137.13" height="28.00" rx="0.00" fill="#eef0f2" stroke="#ffffff" stroke-width="1.10" opacity="1.000"/>
<text x="2113.7" y="546.0" font-size="29.4" font-weight="600" fill="#5f6368" text-anchor="middle">9</text>
<line x1="2045.14" y1="25.00" x2="2045.14" y2="625.00" stroke="#e8eaed" stroke-width="0.70" opacity="0.550"/>
<rect x="2182.27" y="555.00" width="134.64" height="28.00" rx="0.00" fill="#dfe3e6" stroke="#ffffff" stroke-width="1.10" opacity="1.000"/>
<text x="2249.6" y="546.0" font-size="29.4" font-weight="600" fill="#5f6368" text-anchor="middle">10</text>
<rect x="2316.91" y="555.00" width="134.83" height="28.00" rx="0.00" fill="#eef0f2" stroke="#ffffff" stroke-width="1.10" opacity="1.000"/>
<text x="2384.3" y="546.0" font-size="29.4" font-weight="600" fill="#5f6368" text-anchor="middle">11</text>
<rect x="2451.73" y="555.00" width="134.99" height="28.00" rx="0.00" fill="#dfe3e6" stroke="#ffffff" stroke-width="1.10" opacity="1.000"/>
<text x="2519.2" y="546.0" font-size="29.4" font-weight="600" fill="#5f6368" text-anchor="middle">12</text>
<rect x="2586.72" y="555.00" width="107.83" height="28.00" rx="0.00" fill="#eef0f2" stroke="#ffffff" stroke-width="1.10" opacity="1.000"/>
<text x="2640.6" y="546.0" font-size="29.4" font-weight="600" fill="#5f6368" text-anchor="middle">13</text>
<line x1="2586.72" y1="25.00" x2="2586.72" y2="625.00" stroke="#e8eaed" stroke-width="0.70" opacity="0.550"/>
<rect x="2694.56" y="555.00" width="101.74" height="28.00" rx="0.00" fill="#dfe3e6" stroke="#ffffff" stroke-width="1.10" opacity="1.000"/>
<text x="2745.4" y="546.0" font-size="29.4" font-weight="600" fill="#5f6368" text-anchor="middle">14</text>
<rect x="2796.29" y="555.00" width="98.90" height="28.00" rx="0.00" fill="#eef0f2" stroke="#ffffff" stroke-width="1.10" opacity="1.000"/>
<text x="2845.7" y="546.0" font-size="29.4" font-weight="600" fill="#5f6368" text-anchor="middle">15</text>
<line x1="2796.29" y1="25.00" x2="2796.29" y2="625.00" stroke="#e8eaed" stroke-width="0.70" opacity="0.550"/>
<rect x="2895.19" y="555.00" width="100.90" height="28.00" rx="0.00" fill="#dfe3e6" stroke="#ffffff" stroke-width="1.10" opacity="1.000"/>
<text x="2945.6" y="546.0" font-size="29.4" font-weight="600" fill="#5f6368" text-anchor="middle">16</text>
<rect x="2996.10" y="555.00" width="84.30" height="28.00" rx="0.00" fill="#eef0f2" stroke="#ffffff" stroke-width="1.10" opacity="1.000"/>
<text x="3038.2" y="546.0" font-size="29.4" font-weight="600" fill="#5f6368" text-anchor="middle">17</text>
<rect x="3080.39" y="555.00" width="81.21" height="28.00" rx="0.00" fill="#dfe3e6" stroke="#ffffff" stroke-width="1.10" opacity="1.000"/>
<text x="3121.0" y="546.0" font-size="29.4" font-weight="600" fill="#5f6368" text-anchor="middle">18</text>
<rect x="3161.61" y="555.00" width="64.24" height="28.00" rx="0.00" fill="#eef0f2" stroke="#ffffff" stroke-width="1.10" opacity="1.000"/>
<text x="3193.7" y="546.0" font-size="29.4" font-weight="600" fill="#5f6368" text-anchor="middle">19</text>
<rect x="3225.84" y="555.00" width="67.56" height="28.00" rx="0.00" fill="#dfe3e6" stroke="#ffffff" stroke-width="1.10" opacity="1.000"/>
<text x="3259.6" y="546.0" font-size="29.4" font-weight="600" fill="#5f6368" text-anchor="middle">20</text>
<rect x="3293.40" y="555.00" width="44.24" height="28.00" rx="0.00" fill="#eef0f2" stroke="#ffffff" stroke-width="1.10" opacity="1.000"/>
<text x="3315.5" y="546.0" font-size="29.4" font-weight="600" fill="#5f6368" text-anchor="middle">21</text>
<line x1="3293.40" y1="25.00" x2="3293.40" y2="625.00" stroke="#e8eaed" stroke-width="0.70" opacity="0.550"/>
<rect x="3337.64" y="555.00" width="48.50" height="28.00" rx="0.00" fill="#dfe3e6" stroke="#ffffff" stroke-width="1.10" opacity="1.000"/>
<text x="3361.9" y="546.0" font-size="29.4" font-weight="600" fill="#5f6368" text-anchor="middle">22</text>
<line x1="3337.64" y1="25.00" x2="3337.64" y2="625.00" stroke="#e8eaed" stroke-width="0.70" opacity="0.550"/>
<rect x="3386.14" y="555.00" width="153.86" height="28.00" rx="0.00" fill="#eef0f2" stroke="#ffffff" stroke-width="1.10" opacity="1.000"/>
<text x="3463.1" y="546.0" font-size="29.4" font-weight="600" fill="#5f6368" text-anchor="middle">X</text>
<line x1="3386.14" y1="25.00" x2="3386.14" y2="625.00" stroke="#e8eaed" stroke-width="0.70" opacity="0.550"/>
<rect x="500.00" y="555.00" width="3040.00" height="28.00" rx="0.00" fill="none" stroke="#bdc1c6" stroke-width="1.10" opacity="1.000"/>
<path d="M 3295.44 151.00 C 3295.44 240.28, 2598.16 247.72, 2598.16 337.00 L 2605.16 337.00 C 2605.16 247.72, 3302.44 240.28, 3302.44 151.00 Z" fill="#6f6f6f" stroke="none" stroke-width="0.00" opacity="0.340"/>
<path d="M 3295.96 151.00 C 3295.96 240.28, 2598.58 247.72, 2598.58 337.00 L 2605.58 337.00 C 2605.58 247.72, 3302.96 240.28, 3302.96 151.00 Z" fill="#6f6f6f" stroke="none" stroke-width="0.00" opacity="0.340"/>
<path d="M 3288.93 151.00 C 3288.93 240.28, 2802.90 247.72, 2802.90 337.00 L 2809.90 337.00 C 2809.90 247.72, 3295.93 240.28, 3295.93 151.00 Z" fill="#6f6f6f" stroke="none" stroke-width="0.00" opacity="0.340"/>
<path d="M 2700.21 151.00 C 2700.21 240.28, 2806.08 247.72, 2806.08 337.00 L 2813.08 337.00 C 2813.08 247.72, 2707.21 240.28, 2707.21 151.00 Z" fill="#6f6f6f" stroke="none" stroke-width="0.00" opacity="0.340"/>
<path d="M 2585.72 547.00 C 2585.72 467.32, 2806.47 460.68, 2806.47 381.00 L 2813.47 381.00 C 2813.47 460.68, 2592.72 467.32, 2592.72 547.00 Z" fill="#6f6f6f" stroke="none" stroke-width="0.00" opacity="0.340"/>
<path d="M 2587.29 151.00 C 2587.29 240.28, 2806.53 247.72, 2806.53 337.00 L 2813.53 337.00 C 2813.53 247.72, 2594.29 240.28, 2594.29 151.00 Z" fill="#6f6f6f" stroke="none" stroke-width="0.00" opacity="0.340"/>
<path d="M 2693.84 547.00 C 2693.84 467.32, 2806.62 460.68, 2806.62 381.00 L 2813.62 381.00 C 2813.62 460.68, 2700.84 467.32, 2700.84 547.00 Z" fill="#6f6f6f" stroke="none" stroke-width="0.00" opacity="0.340"/>
<path d="M 3295.56 151.00 C 3295.56 240.28, 2598.28 247.72, 2598.28 337.00 L 2605.28 337.00 C 2605.28 247.72, 3302.56 240.28, 3302.56 151.00 Z" fill="#6f6f6f" stroke="none" stroke-width="0.00" opacity="0.340"/>
<path d="M 3296.10 151.00 C 3296.10 240.28, 2598.71 247.72, 2598.71 337.00 L 2605.71 337.00 C 2605.71 247.72, 3303.10 240.28, 3303.10 151.00 Z" fill="#6f6f6f" stroke="none" stroke-width="0.00" opacity="0.340"/>
<path d="M 2583.59 547.00 C 2583.59 467.32, 2802.22 460.68, 2802.22 381.00 L 2809.22 381.00 C 2809.22 460.68, 2590.59 467.32, 2590.59 547.00 Z" fill="#6f6f6f" stroke="none" stroke-width="0.00" opacity="0.340"/>
<path d="M 2693.38 547.00 C 2693.38 467.32, 2806.18 460.68, 2806.18 381.00 L 2813.18 381.00 C 2813.18 460.68, 2700.38 467.32, 2700.38 547.00 Z" fill="#6f6f6f" stroke="none" stroke-width="0.00" opacity="0.340"/>
<path d="M 3290.33 151.00 C 3290.33 240.28, 3336.89 247.72, 3336.89 337.00 L 3343.89 337.00 C 3343.89 247.72, 3297.33 240.28, 3297.33 151.00 Z" fill="#6f6f6f" stroke="none" stroke-width="0.00" opacity="0.340"/>
<path d="M 3295.57 151.00 C 3295.57 240.28, 2598.30 247.72, 2598.30 337.00 L 2605.30 337.00 C 2605.30 247.72, 3302.57 240.28, 3302.57 151.00 Z" fill="#6f6f6f" stroke="none" stroke-width="0.00" opacity="0.340"/>
<path d="M 2700.20 151.00 C 2700.20 240.28, 2806.07 247.72, 2806.07 337.00 L 2813.07 337.00 C 2813.07 247.72, 2707.20 240.28, 2707.20 151.00 Z" fill="#6f6f6f" stroke="none" stroke-width="0.00" opacity="0.340"/>
<path d="M 2693.87 547.00 C 2693.87 467.32, 2806.65 460.68, 2806.65 381.00 L 2813.65 381.00 C 2813.65 460.68, 2700.87 467.32, 2700.87 547.00 Z" fill="#6f6f6f" stroke="none" stroke-width="0.00" opacity="0.340"/>
<path d="M 2697.46 151.00 C 2697.46 240.28, 3333.60 247.72, 3333.60 337.00 L 3340.60 337.00 C 3340.60 247.72, 2704.46 240.28, 2704.46 151.00 Z" fill="#6f6f6f" stroke="none" stroke-width="0.00" opacity="0.340"/>
<path d="M 3290.36 151.00 C 3290.36 240.28, 3336.91 247.72, 3336.91 337.00 L 3343.91 337.00 C 3343.91 247.72, 3297.36 240.28, 3297.36 151.00 Z" fill="#6f6f6f" stroke="none" stroke-width="0.00" opacity="0.340"/>
<path d="M 2693.73 547.00 C 2693.73 467.32, 2806.51 460.68, 2806.51 381.00 L 2813.51 381.00 C 2813.51 460.68, 2700.73 467.32, 2700.73 547.00 Z" fill="#6f6f6f" stroke="none" stroke-width="0.00" opacity="0.340"/>
<path d="M 3290.84 547.00 C 3290.84 467.32, 3334.47 460.68, 3334.47 381.00 L 3341.47 381.00 C 3341.47 460.68, 3297.84 467.32, 3297.84 547.00 Z" fill="#6f6f6f" stroke="none" stroke-width="0.00" opacity="0.340"/>
<path d="M 3295.94 151.00 C 3295.94 240.28, 2598.55 247.72, 2598.55 337.00 L 2605.55 337.00 C 2605.55 247.72, 3302.94 240.28, 3302.94 151.00 Z" fill="#6f6f6f" stroke="none" stroke-width="0.00" opacity="0.340"/>
<path d="M 2800.69 151.00 C 2800.69 240.28, 3333.27 247.72, 3333.27 337.00 L 3340.27 337.00 C 3340.27 247.72, 2807.69 240.28, 2807.69 151.00 Z" fill="#6f6f6f" stroke="none" stroke-width="0.00" opacity="0.340"/>
<path d="M 3290.88 547.00 C 3290.88 467.32, 3334.50 460.68, 3334.50 381.00 L 3341.50 381.00 C 3341.50 460.68, 3297.88 467.32, 3297.88 547.00 Z" fill="#6f6f6f" stroke="none" stroke-width="0.00" opacity="0.340"/>
<path d="M 2695.63 547.00 C 2695.63 467.32, 2807.27 460.68, 2807.27 381.00 L 2814.27 381.00 C 2814.27 460.68, 2702.63 467.32, 2702.63 547.00 Z" fill="#6f6f6f" stroke="none" stroke-width="0.00" opacity="0.340"/>
<path d="M 3290.31 151.00 C 3290.31 240.28, 3336.87 247.72, 3336.87 337.00 L 3343.87 337.00 C 3343.87 247.72, 3297.31 240.28, 3297.31 151.00 Z" fill="#6f6f6f" stroke="none" stroke-width="0.00" opacity="0.340"/>
<path d="M 3293.86 547.00 C 3293.86 467.32, 2807.80 460.68, 2807.80 381.00 L 2814.80 381.00 C 2814.80 460.68, 3300.86 467.32, 3300.86 547.00 Z" fill="#6f6f6f" stroke="none" stroke-width="0.00" opacity="0.340"/>
<rect x="2598.16" y="340.00" width="7.00" height="38.00" rx="1.50" fill="#6f6f6f" stroke="none" stroke-width="0.00" opacity="0.484"/>
<rect x="3295.44" y="110.00" width="7.00" height="38.00" rx="1.50" fill="#6f6f6f" stroke="none" stroke-width="0.00" opacity="0.484"/>
<rect x="2598.58" y="340.00" width="7.00" height="38.00" rx="1.50" fill="#6f6f6f" stroke="none" stroke-width="0.00" opacity="0.484"/>
<rect x="3295.96" y="110.00" width="7.00" height="38.00" rx="1.50" fill="#6f6f6f" stroke="none" stroke-width="0.00" opacity="0.484"/>
<rect x="2802.90" y="340.00" width="7.00" height="38.00" rx="1.50" fill="#6f6f6f" stroke="none" stroke-width="0.00" opacity="0.484"/>
<rect x="3288.93" y="110.00" width="7.00" height="38.00" rx="1.50" fill="#6f6f6f" stroke="none" stroke-width="0.00" opacity="0.484"/>
<rect x="2806.08" y="340.00" width="7.00" height="38.00" rx="1.50" fill="#6f6f6f" stroke="none" stroke-width="0.00" opacity="0.484"/>
<rect x="2700.21" y="110.00" width="7.00" height="38.00" rx="1.50" fill="#6f6f6f" stroke="none" stroke-width="0.00" opacity="0.484"/>
<rect x="2806.47" y="340.00" width="7.00" height="38.00" rx="1.50" fill="#6f6f6f" stroke="none" stroke-width="0.00" opacity="0.484"/>
<rect x="2585.72" y="550.00" width="7.00" height="38.00" rx="1.50" fill="#6f6f6f" stroke="none" stroke-width="0.00" opacity="0.484"/>
<rect x="2806.53" y="340.00" width="7.00" height="38.00" rx="1.50" fill="#6f6f6f" stroke="none" stroke-width="0.00" opacity="0.484"/>
<rect x="2587.29" y="110.00" width="7.00" height="38.00" rx="1.50" fill="#6f6f6f" stroke="none" stroke-width="0.00" opacity="0.484"/>
<rect x="2806.62" y="340.00" width="7.00" height="38.00" rx="1.50" fill="#6f6f6f" stroke="none" stroke-width="0.00" opacity="0.484"/>
<rect x="2693.84" y="550.00" width="7.00" height="38.00" rx="1.50" fill="#6f6f6f" stroke="none" stroke-width="0.00" opacity="0.484"/>
<rect x="2598.28" y="340.00" width="7.00" height="38.00" rx="1.50" fill="#6f6f6f" stroke="none" stroke-width="0.00" opacity="0.484"/>
<rect x="3295.56" y="110.00" width="7.00" height="38.00" rx="1.50" fill="#6f6f6f" stroke="none" stroke-width="0.00" opacity="0.484"/>
<rect x="2598.71" y="340.00" width="7.00" height="38.00" rx="1.50" fill="#6f6f6f" stroke="none" stroke-width="0.00" opacity="0.484"/>
<rect x="3296.10" y="110.00" width="7.00" height="38.00" rx="1.50" fill="#6f6f6f" stroke="none" stroke-width="0.00" opacity="0.484"/>
<rect x="2802.22" y="340.00" width="7.00" height="38.00" rx="1.50" fill="#6f6f6f" stroke="none" stroke-width="0.00" opacity="0.484"/>
<rect x="2583.59" y="550.00" width="7.00" height="38.00" rx="1.50" fill="#6f6f6f" stroke="none" stroke-width="0.00" opacity="0.484"/>
<rect x="2806.18" y="340.00" width="7.00" height="38.00" rx="1.50" fill="#6f6f6f" stroke="none" stroke-width="0.00" opacity="0.484"/>
<rect x="2693.38" y="550.00" width="7.00" height="38.00" rx="1.50" fill="#6f6f6f" stroke="none" stroke-width="0.00" opacity="0.484"/>
<rect x="3336.89" y="340.00" width="7.00" height="38.00" rx="1.50" fill="#6f6f6f" stroke="none" stroke-width="0.00" opacity="0.484"/>
<rect x="3290.33" y="110.00" width="7.00" height="38.00" rx="1.50" fill="#6f6f6f" stroke="none" stroke-width="0.00" opacity="0.484"/>
<rect x="2598.30" y="340.00" width="7.00" height="38.00" rx="1.50" fill="#6f6f6f" stroke="none" stroke-width="0.00" opacity="0.484"/>
<rect x="3295.57" y="110.00" width="7.00" height="38.00" rx="1.50" fill="#6f6f6f" stroke="none" stroke-width="0.00" opacity="0.484"/>
<rect x="2806.07" y="340.00" width="7.00" height="38.00" rx="1.50" fill="#6f6f6f" stroke="none" stroke-width="0.00" opacity="0.484"/>
<rect x="2700.20" y="110.00" width="7.00" height="38.00" rx="1.50" fill="#6f6f6f" stroke="none" stroke-width="0.00" opacity="0.484"/>
<rect x="2806.65" y="340.00" width="7.00" height="38.00" rx="1.50" fill="#6f6f6f" stroke="none" stroke-width="0.00" opacity="0.484"/>
<rect x="2693.87" y="550.00" width="7.00" height="38.00" rx="1.50" fill="#6f6f6f" stroke="none" stroke-width="0.00" opacity="0.484"/>
<rect x="3333.60" y="340.00" width="7.00" height="38.00" rx="1.50" fill="#6f6f6f" stroke="none" stroke-width="0.00" opacity="0.484"/>
<rect x="2697.46" y="110.00" width="7.00" height="38.00" rx="1.50" fill="#6f6f6f" stroke="none" stroke-width="0.00" opacity="0.484"/>
<rect x="3336.91" y="340.00" width="7.00" height="38.00" rx="1.50" fill="#6f6f6f" stroke="none" stroke-width="0.00" opacity="0.484"/>
<rect x="3290.36" y="110.00" width="7.00" height="38.00" rx="1.50" fill="#6f6f6f" stroke="none" stroke-width="0.00" opacity="0.484"/>
<rect x="2806.51" y="340.00" width="7.00" height="38.00" rx="1.50" fill="#6f6f6f" stroke="none" stroke-width="0.00" opacity="0.484"/>
<rect x="2693.73" y="550.00" width="7.00" height="38.00" rx="1.50" fill="#6f6f6f" stroke="none" stroke-width="0.00" opacity="0.484"/>
<rect x="3334.47" y="340.00" width="7.00" height="38.00" rx="1.50" fill="#6f6f6f" stroke="none" stroke-width="0.00" opacity="0.484"/>
<rect x="3290.84" y="550.00" width="7.00" height="38.00" rx="1.50" fill="#6f6f6f" stroke="none" stroke-width="0.00" opacity="0.484"/>
<rect x="2598.55" y="340.00" width="7.00" height="38.00" rx="1.50" fill="#6f6f6f" stroke="none" stroke-width="0.00" opacity="0.484"/>
<rect x="3295.94" y="110.00" width="7.00" height="38.00" rx="1.50" fill="#6f6f6f" stroke="none" stroke-width="0.00" opacity="0.484"/>
<rect x="3333.27" y="340.00" width="7.00" height="38.00" rx="1.50" fill="#6f6f6f" stroke="none" stroke-width="0.00" opacity="0.484"/>
<rect x="2800.69" y="110.00" width="7.00" height="38.00" rx="1.50" fill="#6f6f6f" stroke="none" stroke-width="0.00" opacity="0.484"/>
<rect x="3334.50" y="340.00" width="7.00" height="38.00" rx="1.50" fill="#6f6f6f" stroke="none" stroke-width="0.00" opacity="0.484"/>
<rect x="3290.88" y="550.00" width="7.00" height="38.00" rx="1.50" fill="#6f6f6f" stroke="none" stroke-width="0.00" opacity="0.484"/>
<rect x="2807.27" y="340.00" width="7.00" height="38.00" rx="1.50" fill="#6f6f6f" stroke="none" stroke-width="0.00" opacity="0.484"/>
<rect x="2695.63" y="550.00" width="7.00" height="38.00" rx="1.50" fill="#6f6f6f" stroke="none" stroke-width="0.00" opacity="0.484"/>
<rect x="3336.87" y="340.00" width="7.00" height="38.00" rx="1.50" fill="#6f6f6f" stroke="none" stroke-width="0.00" opacity="0.484"/>
<rect x="3290.31" y="110.00" width="7.00" height="38.00" rx="1.50" fill="#6f6f6f" stroke="none" stroke-width="0.00" opacity="0.484"/>
<rect x="2807.80" y="340.00" width="7.00" height="38.00" rx="1.50" fill="#6f6f6f" stroke="none" stroke-width="0.00" opacity="0.484"/>
<rect x="3293.86" y="550.00" width="7.00" height="38.00" rx="1.50" fill="#6f6f6f" stroke="none" stroke-width="0.00" opacity="0.484"/>
<line x1="500.00" y1="108.00" x2="500.00" y2="150.00" stroke="#111111" stroke-width="1.80" opacity="1.000"/>
<line x1="744.91" y1="108.00" x2="744.91" y2="150.00" stroke="#111111" stroke-width="1.80" opacity="1.000"/>
<line x1="988.84" y1="108.00" x2="988.84" y2="150.00" stroke="#111111" stroke-width="1.80" opacity="1.000"/>
<line x1="1193.65" y1="108.00" x2="1193.65" y2="150.00" stroke="#111111" stroke-width="1.80" opacity="1.000"/>
<line x1="1386.27" y1="108.00" x2="1386.27" y2="150.00" stroke="#111111" stroke-width="1.80" opacity="1.000"/>
<line x1="1571.16" y1="108.00" x2="1571.16" y2="150.00" stroke="#111111" stroke-width="1.80" opacity="1.000"/>
<line x1="1743.98" y1="108.00" x2="1743.98" y2="150.00" stroke="#111111" stroke-width="1.80" opacity="1.000"/>
<line x1="1905.19" y1="108.00" x2="1905.19" y2="150.00" stroke="#111111" stroke-width="1.80" opacity="1.000"/>
<line x1="2053.03" y1="108.00" x2="2053.03" y2="150.00" stroke="#111111" stroke-width="1.80" opacity="1.000"/>
<line x1="2182.93" y1="108.00" x2="2182.93" y2="150.00" stroke="#111111" stroke-width="1.80" opacity="1.000"/>
<line x1="2318.12" y1="108.00" x2="2318.12" y2="150.00" stroke="#111111" stroke-width="1.80" opacity="1.000"/>
<line x1="2453.70" y1="108.00" x2="2453.70" y2="150.00" stroke="#111111" stroke-width="1.80" opacity="1.000"/>
<line x1="2588.00" y1="108.00" x2="2588.00" y2="150.00" stroke="#111111" stroke-width="1.80" opacity="1.000"/>
<line x1="2700.17" y1="108.00" x2="2700.17" y2="150.00" stroke="#111111" stroke-width="1.80" opacity="1.000"/>
<line x1="2803.90" y1="108.00" x2="2803.90" y2="150.00" stroke="#111111" stroke-width="1.80" opacity="1.000"/>
<line x1="2904.57" y1="108.00" x2="2904.57" y2="150.00" stroke="#111111" stroke-width="1.80" opacity="1.000"/>
<line x1="2996.50" y1="108.00" x2="2996.50" y2="150.00" stroke="#111111" stroke-width="1.80" opacity="1.000"/>
<line x1="3080.63" y1="108.00" x2="3080.63" y2="150.00" stroke="#111111" stroke-width="1.80" opacity="1.000"/>
<line x1="3161.91" y1="108.00" x2="3161.91" y2="150.00" stroke="#111111" stroke-width="1.80" opacity="1.000"/>
<line x1="3225.12" y1="108.00" x2="3225.12" y2="150.00" stroke="#111111" stroke-width="1.80" opacity="1.000"/>
<line x1="3291.64" y1="108.00" x2="3291.64" y2="150.00" stroke="#111111" stroke-width="1.80" opacity="1.000"/>
<line x1="3335.28" y1="108.00" x2="3335.28" y2="150.00" stroke="#111111" stroke-width="1.80" opacity="1.000"/>
<line x1="3384.77" y1="108.00" x2="3384.77" y2="150.00" stroke="#111111" stroke-width="1.80" opacity="1.000"/>
<line x1="3540.00" y1="108.00" x2="3540.00" y2="150.00" stroke="#111111" stroke-width="1.80" opacity="1.000"/>
<text x="622.5" y="106.0" font-size="31.0" font-weight="700" fill="#202124" text-anchor="middle">1</text>
<text x="866.9" y="106.0" font-size="31.0" font-weight="700" fill="#202124" text-anchor="middle">2</text>
<text x="1091.2" y="106.0" font-size="31.0" font-weight="700" fill="#202124" text-anchor="middle">3</text>
<text x="1290.0" y="106.0" font-size="31.0" font-weight="700" fill="#202124" text-anchor="middle">4</text>
<text x="1478.7" y="106.0" font-size="31.0" font-weight="700" fill="#202124" text-anchor="middle">5</text>
<text x="1657.6" y="106.0" font-size="31.0" font-weight="700" fill="#202124" text-anchor="middle">6</text>
<text x="1824.6" y="106.0" font-size="31.0" font-weight="700" fill="#202124" text-anchor="middle">7</text>
<text x="1979.1" y="106.0" font-size="31.0" font-weight="700" fill="#202124" text-anchor="middle">8</text>
<text x="2118.0" y="106.0" font-size="31.0" font-weight="700" fill="#202124" text-anchor="middle">9</text>
<text x="2250.5" y="106.0" font-size="31.0" font-weight="700" fill="#202124" text-anchor="middle">10</text>
<text x="2385.9" y="106.0" font-size="31.0" font-weight="700" fill="#202124" text-anchor="middle">11</text>
<text x="2520.8" y="106.0" font-size="31.0" font-weight="700" fill="#202124" text-anchor="middle">12</text>
<text x="2644.1" y="106.0" font-size="31.0" font-weight="700" fill="#202124" text-anchor="middle">13</text>
<text x="2752.0" y="106.0" font-size="31.0" font-weight="700" fill="#202124" text-anchor="middle">14</text>
<text x="2854.2" y="106.0" font-size="31.0" font-weight="700" fill="#202124" text-anchor="middle">15</text>
<text x="2950.5" y="106.0" font-size="31.0" font-weight="700" fill="#202124" text-anchor="middle">16</text>
<text x="3038.6" y="106.0" font-size="31.0" font-weight="700" fill="#202124" text-anchor="middle">17</text>
<text x="3121.3" y="106.0" font-size="31.0" font-weight="700" fill="#202124" text-anchor="middle">18</text>
<text x="3193.5" y="106.0" font-size="31.0" font-weight="700" fill="#202124" text-anchor="middle">19</text>
<text x="3258.4" y="106.0" font-size="31.0" font-weight="700" fill="#202124" text-anchor="middle">20</text>
<text x="3313.5" y="106.0" font-size="31.0" font-weight="700" fill="#202124" text-anchor="middle">21</text>
<text x="3360.0" y="106.0" font-size="31.0" font-weight="700" fill="#202124" text-anchor="middle">22</text>
<text x="3462.4" y="106.0" font-size="31.0" font-weight="700" fill="#202124" text-anchor="middle">X</text>
<line x1="500.00" y1="338.00" x2="500.00" y2="380.00" stroke="#111111" stroke-width="1.80" opacity="1.000"/>
<line x1="748.75" y1="338.00" x2="748.75" y2="380.00" stroke="#111111" stroke-width="1.80" opacity="1.000"/>
<line x1="992.96" y1="338.00" x2="992.96" y2="380.00" stroke="#111111" stroke-width="1.80" opacity="1.000"/>
<line x1="1195.78" y1="338.00" x2="1195.78" y2="380.00" stroke="#111111" stroke-width="1.80" opacity="1.000"/>
<line x1="1389.51" y1="338.00" x2="1389.51" y2="380.00" stroke="#111111" stroke-width="1.80" opacity="1.000"/>
<line x1="1574.64" y1="338.00" x2="1574.64" y2="380.00" stroke="#111111" stroke-width="1.80" opacity="1.000"/>
<line x1="1747.71" y1="338.00" x2="1747.71" y2="380.00" stroke="#111111" stroke-width="1.80" opacity="1.000"/>
<line x1="1909.00" y1="338.00" x2="1909.00" y2="380.00" stroke="#111111" stroke-width="1.80" opacity="1.000"/>
<line x1="2057.20" y1="338.00" x2="2057.20" y2="380.00" stroke="#111111" stroke-width="1.80" opacity="1.000"/>
<line x1="2187.18" y1="338.00" x2="2187.18" y2="380.00" stroke="#111111" stroke-width="1.80" opacity="1.000"/>
<line x1="2322.49" y1="338.00" x2="2322.49" y2="380.00" stroke="#111111" stroke-width="1.80" opacity="1.000"/>
<line x1="2458.24" y1="338.00" x2="2458.24" y2="380.00" stroke="#111111" stroke-width="1.80" opacity="1.000"/>
<line x1="2594.04" y1="338.00" x2="2594.04" y2="380.00" stroke="#111111" stroke-width="1.80" opacity="1.000"/>
<line x1="2704.24" y1="338.00" x2="2704.24" y2="380.00" stroke="#111111" stroke-width="1.80" opacity="1.000"/>
<line x1="2805.35" y1="338.00" x2="2805.35" y2="380.00" stroke="#111111" stroke-width="1.80" opacity="1.000"/>
<line x1="2904.07" y1="338.00" x2="2904.07" y2="380.00" stroke="#111111" stroke-width="1.80" opacity="1.000"/>
<line x1="2996.30" y1="338.00" x2="2996.30" y2="380.00" stroke="#111111" stroke-width="1.80" opacity="1.000"/>
<line x1="3081.11" y1="338.00" x2="3081.11" y2="380.00" stroke="#111111" stroke-width="1.80" opacity="1.000"/>
<line x1="3162.83" y1="338.00" x2="3162.83" y2="380.00" stroke="#111111" stroke-width="1.80" opacity="1.000"/>
<line x1="3226.02" y1="338.00" x2="3226.02" y2="380.00" stroke="#111111" stroke-width="1.80" opacity="1.000"/>
<line x1="3292.71" y1="338.00" x2="3292.71" y2="380.00" stroke="#111111" stroke-width="1.80" opacity="1.000"/>
<line x1="3336.40" y1="338.00" x2="3336.40" y2="380.00" stroke="#111111" stroke-width="1.80" opacity="1.000"/>
<line x1="3385.22" y1="338.00" x2="3385.22" y2="380.00" stroke="#111111" stroke-width="1.80" opacity="1.000"/>
<line x1="3540.00" y1="338.00" x2="3540.00" y2="380.00" stroke="#111111" stroke-width="1.80" opacity="1.000"/>
<text x="624.4" y="336.0" font-size="31.0" font-weight="700" fill="#202124" text-anchor="middle">1</text>
<text x="870.9" y="336.0" font-size="31.0" font-weight="700" fill="#202124" text-anchor="middle">2</text>
<text x="1094.4" y="336.0" font-size="31.0" font-weight="700" fill="#202124" text-anchor="middle">3</text>
<text x="1292.6" y="336.0" font-size="31.0" font-weight="700" fill="#202124" text-anchor="middle">4</text>
<text x="1482.1" y="336.0" font-size="31.0" font-weight="700" fill="#202124" text-anchor="middle">5</text>
<text x="1661.2" y="336.0" font-size="31.0" font-weight="700" fill="#202124" text-anchor="middle">6</text>
<text x="1828.4" y="336.0" font-size="31.0" font-weight="700" fill="#202124" text-anchor="middle">7</text>
<text x="1983.1" y="336.0" font-size="31.0" font-weight="700" fill="#202124" text-anchor="middle">8</text>
<text x="2122.2" y="336.0" font-size="31.0" font-weight="700" fill="#202124" text-anchor="middle">9</text>
<text x="2254.8" y="336.0" font-size="31.0" font-weight="700" fill="#202124" text-anchor="middle">10</text>
<text x="2390.4" y="336.0" font-size="31.0" font-weight="700" fill="#202124" text-anchor="middle">11</text>
<text x="2526.1" y="336.0" font-size="31.0" font-weight="700" fill="#202124" text-anchor="middle">12</text>
<text x="2649.1" y="336.0" font-size="31.0" font-weight="700" fill="#202124" text-anchor="middle">13</text>
<text x="2754.8" y="336.0" font-size="31.0" font-weight="700" fill="#202124" text-anchor="middle">14</text>
<text x="2854.7" y="336.0" font-size="31.0" font-weight="700" fill="#202124" text-anchor="middle">15</text>
<text x="2950.2" y="336.0" font-size="31.0" font-weight="700" fill="#202124" text-anchor="middle">16</text>
<text x="3038.7" y="336.0" font-size="31.0" font-weight="700" fill="#202124" text-anchor="middle">17</text>
<text x="3122.0" y="336.0" font-size="31.0" font-weight="700" fill="#202124" text-anchor="middle">18</text>
<text x="3194.4" y="336.0" font-size="31.0" font-weight="700" fill="#202124" text-anchor="middle">19</text>
<text x="3259.4" y="336.0" font-size="31.0" font-weight="700" fill="#202124" text-anchor="middle">20</text>
<text x="3314.6" y="336.0" font-size="31.0" font-weight="700" fill="#202124" text-anchor="middle">21</text>
<text x="3360.8" y="336.0" font-size="31.0" font-weight="700" fill="#202124" text-anchor="middle">22</text>
<text x="3462.6" y="336.0" font-size="31.0" font-weight="700" fill="#202124" text-anchor="middle">X</text>
<line x1="500.00" y1="548.00" x2="500.00" y2="590.00" stroke="#111111" stroke-width="1.80" opacity="1.000"/>
<line x1="747.60" y1="548.00" x2="747.60" y2="590.00" stroke="#111111" stroke-width="1.80" opacity="1.000"/>
<line x1="989.73" y1="548.00" x2="989.73" y2="590.00" stroke="#111111" stroke-width="1.80" opacity="1.000"/>
<line x1="1191.10" y1="548.00" x2="1191.10" y2="590.00" stroke="#111111" stroke-width="1.80" opacity="1.000"/>
<line x1="1383.29" y1="548.00" x2="1383.29" y2="590.00" stroke="#111111" stroke-width="1.80" opacity="1.000"/>
<line x1="1565.49" y1="548.00" x2="1565.49" y2="590.00" stroke="#111111" stroke-width="1.80" opacity="1.000"/>
<line x1="1737.88" y1="548.00" x2="1737.88" y2="590.00" stroke="#111111" stroke-width="1.80" opacity="1.000"/>
<line x1="1899.08" y1="548.00" x2="1899.08" y2="590.00" stroke="#111111" stroke-width="1.80" opacity="1.000"/>
<line x1="2045.14" y1="548.00" x2="2045.14" y2="590.00" stroke="#111111" stroke-width="1.80" opacity="1.000"/>
<line x1="2182.27" y1="548.00" x2="2182.27" y2="590.00" stroke="#111111" stroke-width="1.80" opacity="1.000"/>
<line x1="2316.91" y1="548.00" x2="2316.91" y2="590.00" stroke="#111111" stroke-width="1.80" opacity="1.000"/>
<line x1="2451.73" y1="548.00" x2="2451.73" y2="590.00" stroke="#111111" stroke-width="1.80" opacity="1.000"/>
<line x1="2586.72" y1="548.00" x2="2586.72" y2="590.00" stroke="#111111" stroke-width="1.80" opacity="1.000"/>
<line x1="2694.56" y1="548.00" x2="2694.56" y2="590.00" stroke="#111111" stroke-width="1.80" opacity="1.000"/>
<line x1="2796.29" y1="548.00" x2="2796.29" y2="590.00" stroke="#111111" stroke-width="1.80" opacity="1.000"/>
<line x1="2895.19" y1="548.00" x2="2895.19" y2="590.00" stroke="#111111" stroke-width="1.80" opacity="1.000"/>
<line x1="2996.10" y1="548.00" x2="2996.10" y2="590.00" stroke="#111111" stroke-width="1.80" opacity="1.000"/>
<line x1="3080.39" y1="548.00" x2="3080.39" y2="590.00" stroke="#111111" stroke-width="1.80" opacity="1.000"/>
<line x1="3161.61" y1="548.00" x2="3161.61" y2="590.00" stroke="#111111" stroke-width="1.80" opacity="1.000"/>
<line x1="3225.84" y1="548.00" x2="3225.84" y2="590.00" stroke="#111111" stroke-width="1.80" opacity="1.000"/>
<line x1="3293.40" y1="548.00" x2="3293.40" y2="590.00" stroke="#111111" stroke-width="1.80" opacity="1.000"/>
<line x1="3337.64" y1="548.00" x2="3337.64" y2="590.00" stroke="#111111" stroke-width="1.80" opacity="1.000"/>
<line x1="3386.14" y1="548.00" x2="3386.14" y2="590.00" stroke="#111111" stroke-width="1.80" opacity="1.000"/>
<line x1="3540.00" y1="548.00" x2="3540.00" y2="590.00" stroke="#111111" stroke-width="1.80" opacity="1.000"/>
<text x="623.8" y="546.0" font-size="31.0" font-weight="700" fill="#202124" text-anchor="middle">1</text>
<text x="868.7" y="546.0" font-size="31.0" font-weight="700" fill="#202124" text-anchor="middle">2</text>
<text x="1090.4" y="546.0" font-size="31.0" font-weight="700" fill="#202124" text-anchor="middle">3</text>
<text x="1287.2" y="546.0" font-size="31.0" font-weight="700" fill="#202124" text-anchor="middle">4</text>
<text x="1474.4" y="546.0" font-size="31.0" font-weight="700" fill="#202124" text-anchor="middle">5</text>
<text x="1651.7" y="546.0" font-size="31.0" font-weight="700" fill="#202124" text-anchor="middle">6</text>
<text x="1818.5" y="546.0" font-size="31.0" font-weight="700" fill="#202124" text-anchor="middle">7</text>
<text x="1972.1" y="546.0" font-size="31.0" font-weight="700" fill="#202124" text-anchor="middle">8</text>
<text x="2113.7" y="546.0" font-size="31.0" font-weight="700" fill="#202124" text-anchor="middle">9</text>
<text x="2249.6" y="546.0" font-size="31.0" font-weight="700" fill="#202124" text-anchor="middle">10</text>
<text x="2384.3" y="546.0" font-size="31.0" font-weight="700" fill="#202124" text-anchor="middle">11</text>
<text x="2519.2" y="546.0" font-size="31.0" font-weight="700" fill="#202124" text-anchor="middle">12</text>
<text x="2640.6" y="546.0" font-size="31.0" font-weight="700" fill="#202124" text-anchor="middle">13</text>
<text x="2745.4" y="546.0" font-size="31.0" font-weight="700" fill="#202124" text-anchor="middle">14</text>
<text x="2845.7" y="546.0" font-size="31.0" font-weight="700" fill="#202124" text-anchor="middle">15</text>
<text x="2945.6" y="546.0" font-size="31.0" font-weight="700" fill="#202124" text-anchor="middle">16</text>
<text x="3038.2" y="546.0" font-size="31.0" font-weight="700" fill="#202124" text-anchor="middle">17</text>
<text x="3121.0" y="546.0" font-size="31.0" font-weight="700" fill="#202124" text-anchor="middle">18</text>
<text x="3193.7" y="546.0" font-size="31.0" font-weight="700" fill="#202124" text-anchor="middle">19</text>
<text x="3259.6" y="546.0" font-size="31.0" font-weight="700" fill="#202124" text-anchor="middle">20</text>
<text x="3315.5" y="546.0" font-size="31.0" font-weight="700" fill="#202124" text-anchor="middle">21</text>
<text x="3361.9" y="546.0" font-size="31.0" font-weight="700" fill="#202124" text-anchor="middle">22</text>
<text x="3463.1" y="546.0" font-size="31.0" font-weight="700" fill="#202124" text-anchor="middle">X</text>
<text x="40.0" y="66.0" font-size="89.9" font-weight="700" fill="#202124" text-anchor="start">C</text>
<text x="500.0" y="690.0" font-size="37.2" font-weight="700" fill="#5f6368" text-anchor="start">Ribbon classes</text>
<rect x="825.00" y="670.00" width="27.00" height="21.00" rx="0.00" fill="#6f6f6f" stroke="none" stroke-width="0.00" opacity="0.900"/>
<text x="864.0" y="690.0" font-size="32.6" font-weight="400" fill="#202124" text-anchor="start">acrocentric (25)</text>
</svg>
