<svg xmlns="http://www.w3.org/2000/svg" width="3000" height="900" viewBox="0 0 3000 900">
<rect width="100%" height="100%" fill="white"/>
<style>text{font-family:Arial,Helvetica,sans-serif;dominant-baseline:alphabetic}</style>
<text x="360.0" y="58.0" font-size="42.0" font-weight="700" fill="#202124" text-anchor="start">Whole-genome 10:10 SweepGA/F32 IMPG class winners with donor ribbons</text>
<text x="360.0" y="98.0" font-size="24.0" font-weight="400" fill="#5f6368" text-anchor="start">PAN027 paternal child query; ribbons mark high-confidence 2 kb runs where the best interchromosomal match beats the best same-chromosome match.</text>
<line x1="360.00" y1="219.00" x2="2720.00" y2="219.00" stroke="#f1f3f4" stroke-width="0.80" opacity="0.800"/>
<text x="2742.0" y="226.0" font-size="20.0" font-weight="400" fill="#5f6368" text-anchor="start">father donor h1</text>
<line x1="360.00" y1="501.00" x2="2720.00" y2="501.00" stroke="#f1f3f4" stroke-width="0.80" opacity="0.800"/>
<text x="2742.0" y="508.0" font-size="20.0" font-weight="400" fill="#5f6368" text-anchor="start">child query</text>
<line x1="360.00" y1="659.00" x2="2720.00" y2="659.00" stroke="#f1f3f4" stroke-width="0.80" opacity="0.800"/>
<text x="2742.0" y="666.0" font-size="20.0" font-weight="400" fill="#5f6368" text-anchor="start">father donor h2</text>
<text x="334.0" y="491.0" font-size="30.0" font-weight="700" fill="#202124" text-anchor="end">PAN027 pat child</text>
<rect x="360.00" y="465.00" width="193.28" height="28.00" rx="0.00" fill="#eef0f2" stroke="#ffffff" stroke-width="1.10" opacity="1.000"/>
<text x="456.6" y="456.0" font-size="19.0" font-weight="600" fill="#5f6368" text-anchor="middle">1</text>
<line x1="360.00" y1="145.00" x2="360.00" y2="745.00" stroke="#e8eaed" stroke-width="0.70" opacity="0.550"/>
<rect x="553.28" y="465.00" width="190.61" height="28.00" rx="0.00" fill="#dfe3e6" stroke="#ffffff" stroke-width="1.10" opacity="1.000"/>
<text x="648.6" y="456.0" font-size="19.0" font-weight="600" fill="#5f6368" text-anchor="middle">2</text>
<rect x="743.89" y="465.00" width="158.01" height="28.00" rx="0.00" fill="#eef0f2" stroke="#ffffff" stroke-width="1.10" opacity="1.000"/>
<text x="822.9" y="456.0" font-size="19.0" font-weight="600" fill="#5f6368" text-anchor="middle">3</text>
<line x1="743.89" y1="145.00" x2="743.89" y2="745.00" stroke="#e8eaed" stroke-width="0.70" opacity="0.550"/>
<rect x="901.89" y="465.00" width="148.56" height="28.00" rx="0.00" fill="#dfe3e6" stroke="#ffffff" stroke-width="1.10" opacity="1.000"/>
<text x="976.2" y="456.0" font-size="19.0" font-weight="600" fill="#5f6368" text-anchor="middle">4</text>
<rect x="1050.46" y="465.00" width="142.09" height="28.00" rx="0.00" fill="#eef0f2" stroke="#ffffff" stroke-width="1.10" opacity="1.000"/>
<text x="1121.5" y="456.0" font-size="19.0" font-weight="600" fill="#5f6368" text-anchor="middle">5</text>
<line x1="1050.46" y1="145.00" x2="1050.46" y2="745.00" stroke="#e8eaed" stroke-width="0.70" opacity="0.550"/>
<rect x="1192.55" y="465.00" width="134.19" height="28.00" rx="0.00" fill="#dfe3e6" stroke="#ffffff" stroke-width="1.10" opacity="1.000"/>
<text x="1259.6" y="456.0" font-size="19.0" font-weight="600" fill="#5f6368" text-anchor="middle">6</text>
<rect x="1326.73" y="465.00" width="125.77" height="28.00" rx="0.00" fill="#eef0f2" stroke="#ffffff" stroke-width="1.10" opacity="1.000"/>
<text x="1389.6" y="456.0" font-size="19.0" font-weight="600" fill="#5f6368" text-anchor="middle">7</text>
<rect x="1452.50" y="465.00" width="114.04" height="28.00" rx="0.00" fill="#dfe3e6" stroke="#ffffff" stroke-width="1.10" opacity="1.000"/>
<text x="1509.5" y="456.0" font-size="19.0" font-weight="600" fill="#5f6368" text-anchor="middle">8</text>
<rect x="1566.54" y="465.00" width="106.25" height="28.00" rx="0.00" fill="#eef0f2" stroke="#ffffff" stroke-width="1.10" opacity="1.000"/>
<text x="1619.7" y="456.0" font-size="19.0" font-weight="600" fill="#5f6368" text-anchor="middle">9</text>
<line x1="1566.54" y1="145.00" x2="1566.54" y2="745.00" stroke="#e8eaed" stroke-width="0.70" opacity="0.550"/>
<rect x="1672.79" y="465.00" width="104.93" height="28.00" rx="0.00" fill="#dfe3e6" stroke="#ffffff" stroke-width="1.10" opacity="1.000"/>
<text x="1725.3" y="456.0" font-size="19.0" font-weight="600" fill="#5f6368" text-anchor="middle">10</text>
<rect x="1777.72" y="465.00" width="105.09" height="28.00" rx="0.00" fill="#eef0f2" stroke="#ffffff" stroke-width="1.10" opacity="1.000"/>
<text x="1830.3" y="456.0" font-size="19.0" font-weight="600" fill="#5f6368" text-anchor="middle">11</text>
<rect x="1882.81" y="465.00" width="104.13" height="28.00" rx="0.00" fill="#dfe3e6" stroke="#ffffff" stroke-width="1.10" opacity="1.000"/>
<text x="1934.9" y="456.0" font-size="19.0" font-weight="600" fill="#5f6368" text-anchor="middle">12</text>
<rect x="1986.94" y="465.00" width="83.27" height="28.00" rx="0.00" fill="#eef0f2" stroke="#ffffff" stroke-width="1.10" opacity="1.000"/>
<text x="2028.6" y="456.0" font-size="19.0" font-weight="600" fill="#5f6368" text-anchor="middle">13</text>
<line x1="1986.94" y1="145.00" x2="1986.94" y2="745.00" stroke="#e8eaed" stroke-width="0.70" opacity="0.550"/>
<rect x="2070.21" y="465.00" width="80.37" height="28.00" rx="0.00" fill="#dfe3e6" stroke="#ffffff" stroke-width="1.10" opacity="1.000"/>
<text x="2110.4" y="456.0" font-size="19.0" font-weight="600" fill="#5f6368" text-anchor="middle">14</text>
<rect x="2150.58" y="465.00" width="77.08" height="28.00" rx="0.00" fill="#eef0f2" stroke="#ffffff" stroke-width="1.10" opacity="1.000"/>
<text x="2189.1" y="456.0" font-size="19.0" font-weight="600" fill="#5f6368" text-anchor="middle">15</text>
<line x1="2150.58" y1="145.00" x2="2150.58" y2="745.00" stroke="#e8eaed" stroke-width="0.70" opacity="0.550"/>
<rect x="2227.66" y="465.00" width="70.60" height="28.00" rx="0.00" fill="#dfe3e6" stroke="#ffffff" stroke-width="1.10" opacity="1.000"/>
<text x="2263.0" y="456.0" font-size="19.0" font-weight="600" fill="#5f6368" text-anchor="middle">16</text>
<rect x="2298.27" y="465.00" width="65.31" height="28.00" rx="0.00" fill="#eef0f2" stroke="#ffffff" stroke-width="1.10" opacity="1.000"/>
<text x="2330.9" y="456.0" font-size="19.0" font-weight="600" fill="#5f6368" text-anchor="middle">17</text>
<rect x="2363.57" y="465.00" width="62.79" height="28.00" rx="0.00" fill="#dfe3e6" stroke="#ffffff" stroke-width="1.10" opacity="1.000"/>
<text x="2395.0" y="456.0" font-size="19.0" font-weight="600" fill="#5f6368" text-anchor="middle">18</text>
<rect x="2426.36" y="465.00" width="49.55" height="28.00" rx="0.00" fill="#eef0f2" stroke="#ffffff" stroke-width="1.10" opacity="1.000"/>
<text x="2451.1" y="456.0" font-size="19.0" font-weight="600" fill="#5f6368" text-anchor="middle">19</text>
<rect x="2475.92" y="465.00" width="51.89" height="28.00" rx="0.00" fill="#dfe3e6" stroke="#ffffff" stroke-width="1.10" opacity="1.000"/>
<text x="2501.9" y="456.0" font-size="19.0" font-weight="600" fill="#5f6368" text-anchor="middle">20</text>
<rect x="2527.81" y="465.00" width="34.25" height="28.00" rx="0.00" fill="#eef0f2" stroke="#ffffff" stroke-width="1.10" opacity="1.000"/>
<line x1="2527.81" y1="145.00" x2="2527.81" y2="745.00" stroke="#e8eaed" stroke-width="0.70" opacity="0.550"/>
<rect x="2562.05" y="465.00" width="37.74" height="28.00" rx="0.00" fill="#dfe3e6" stroke="#ffffff" stroke-width="1.10" opacity="1.000"/>
<line x1="2562.05" y1="145.00" x2="2562.05" y2="745.00" stroke="#e8eaed" stroke-width="0.70" opacity="0.550"/>
<rect x="2599.80" y="465.00" width="120.20" height="28.00" rx="0.00" fill="#eef0f2" stroke="#ffffff" stroke-width="1.10" opacity="1.000"/>
<text x="2659.9" y="456.0" font-size="19.0" font-weight="600" fill="#5f6368" text-anchor="middle">X</text>
<line x1="2599.80" y1="145.00" x2="2599.80" y2="745.00" stroke="#e8eaed" stroke-width="0.70" opacity="0.550"/>
<rect x="360.00" y="465.00" width="2360.00" height="28.00" rx="0.00" fill="none" stroke="#bdc1c6" stroke-width="1.10" opacity="1.000"/>
<text x="334.0" y="261.0" font-size="30.0" font-weight="700" fill="#202124" text-anchor="end">PAN011 father h1</text>
<rect x="360.00" y="235.00" width="192.64" height="28.00" rx="0.00" fill="#eef0f2" stroke="#ffffff" stroke-width="1.10" opacity="1.000"/>
<text x="456.3" y="226.0" font-size="19.0" font-weight="600" fill="#5f6368" text-anchor="middle">1</text>
<line x1="360.00" y1="145.00" x2="360.00" y2="745.00" stroke="#e8eaed" stroke-width="0.70" opacity="0.550"/>
<rect x="552.64" y="235.00" width="187.96" height="28.00" rx="0.00" fill="#dfe3e6" stroke="#ffffff" stroke-width="1.10" opacity="1.000"/>
<text x="646.6" y="226.0" font-size="19.0" font-weight="600" fill="#5f6368" text-anchor="middle">2</text>
<rect x="740.60" y="235.00" width="157.82" height="28.00" rx="0.00" fill="#eef0f2" stroke="#ffffff" stroke-width="1.10" opacity="1.000"/>
<text x="819.5" y="226.0" font-size="19.0" font-weight="600" fill="#5f6368" text-anchor="middle">3</text>
<line x1="740.60" y1="145.00" x2="740.60" y2="745.00" stroke="#e8eaed" stroke-width="0.70" opacity="0.550"/>
<rect x="898.42" y="235.00" width="148.48" height="28.00" rx="0.00" fill="#dfe3e6" stroke="#ffffff" stroke-width="1.10" opacity="1.000"/>
<text x="972.7" y="226.0" font-size="19.0" font-weight="600" fill="#5f6368" text-anchor="middle">4</text>
<rect x="1046.90" y="235.00" width="144.22" height="28.00" rx="0.00" fill="#eef0f2" stroke="#ffffff" stroke-width="1.10" opacity="1.000"/>
<text x="1119.0" y="226.0" font-size="19.0" font-weight="600" fill="#5f6368" text-anchor="middle">5</text>
<line x1="1046.90" y1="145.00" x2="1046.90" y2="745.00" stroke="#e8eaed" stroke-width="0.70" opacity="0.550"/>
<rect x="1191.12" y="235.00" width="133.57" height="28.00" rx="0.00" fill="#dfe3e6" stroke="#ffffff" stroke-width="1.10" opacity="1.000"/>
<text x="1257.9" y="226.0" font-size="19.0" font-weight="600" fill="#5f6368" text-anchor="middle">6</text>
<rect x="1324.69" y="235.00" width="124.87" height="28.00" rx="0.00" fill="#eef0f2" stroke="#ffffff" stroke-width="1.10" opacity="1.000"/>
<text x="1387.1" y="226.0" font-size="19.0" font-weight="600" fill="#5f6368" text-anchor="middle">7</text>
<rect x="1449.56" y="235.00" width="114.16" height="28.00" rx="0.00" fill="#dfe3e6" stroke="#ffffff" stroke-width="1.10" opacity="1.000"/>
<text x="1506.6" y="226.0" font-size="19.0" font-weight="600" fill="#5f6368" text-anchor="middle">8</text>
<rect x="1563.73" y="235.00" width="106.04" height="28.00" rx="0.00" fill="#eef0f2" stroke="#ffffff" stroke-width="1.10" opacity="1.000"/>
<text x="1616.7" y="226.0" font-size="19.0" font-weight="600" fill="#5f6368" text-anchor="middle">9</text>
<line x1="1563.73" y1="145.00" x2="1563.73" y2="745.00" stroke="#e8eaed" stroke-width="0.70" opacity="0.550"/>
<rect x="1669.77" y="235.00" width="104.87" height="28.00" rx="0.00" fill="#dfe3e6" stroke="#ffffff" stroke-width="1.10" opacity="1.000"/>
<text x="1722.2" y="226.0" font-size="19.0" font-weight="600" fill="#5f6368" text-anchor="middle">10</text>
<rect x="1774.64" y="235.00" width="104.62" height="28.00" rx="0.00" fill="#eef0f2" stroke="#ffffff" stroke-width="1.10" opacity="1.000"/>
<text x="1827.0" y="226.0" font-size="19.0" font-weight="600" fill="#5f6368" text-anchor="middle">11</text>
<rect x="1879.26" y="235.00" width="104.01" height="28.00" rx="0.00" fill="#dfe3e6" stroke="#ffffff" stroke-width="1.10" opacity="1.000"/>
<text x="1931.3" y="226.0" font-size="19.0" font-weight="600" fill="#5f6368" text-anchor="middle">12</text>
<rect x="1983.27" y="235.00" width="85.02" height="28.00" rx="0.00" fill="#eef0f2" stroke="#ffffff" stroke-width="1.10" opacity="1.000"/>
<text x="2025.8" y="226.0" font-size="19.0" font-weight="600" fill="#5f6368" text-anchor="middle">13</text>
<line x1="1983.27" y1="145.00" x2="1983.27" y2="745.00" stroke="#e8eaed" stroke-width="0.70" opacity="0.550"/>
<rect x="2068.29" y="235.00" width="80.19" height="28.00" rx="0.00" fill="#dfe3e6" stroke="#ffffff" stroke-width="1.10" opacity="1.000"/>
<text x="2108.4" y="226.0" font-size="19.0" font-weight="600" fill="#5f6368" text-anchor="middle">14</text>
<rect x="2148.48" y="235.00" width="75.08" height="28.00" rx="0.00" fill="#eef0f2" stroke="#ffffff" stroke-width="1.10" opacity="1.000"/>
<text x="2186.0" y="226.0" font-size="19.0" font-weight="600" fill="#5f6368" text-anchor="middle">15</text>
<line x1="2148.48" y1="145.00" x2="2148.48" y2="745.00" stroke="#e8eaed" stroke-width="0.70" opacity="0.550"/>
<rect x="2223.56" y="235.00" width="73.40" height="28.00" rx="0.00" fill="#dfe3e6" stroke="#ffffff" stroke-width="1.10" opacity="1.000"/>
<text x="2260.3" y="226.0" font-size="19.0" font-weight="600" fill="#5f6368" text-anchor="middle">16</text>
<rect x="2296.96" y="235.00" width="65.95" height="28.00" rx="0.00" fill="#eef0f2" stroke="#ffffff" stroke-width="1.10" opacity="1.000"/>
<text x="2329.9" y="226.0" font-size="19.0" font-weight="600" fill="#5f6368" text-anchor="middle">17</text>
<rect x="2362.90" y="235.00" width="62.98" height="28.00" rx="0.00" fill="#dfe3e6" stroke="#ffffff" stroke-width="1.10" opacity="1.000"/>
<text x="2394.4" y="226.0" font-size="19.0" font-weight="600" fill="#5f6368" text-anchor="middle">18</text>
<rect x="2425.88" y="235.00" width="47.80" height="28.00" rx="0.00" fill="#eef0f2" stroke="#ffffff" stroke-width="1.10" opacity="1.000"/>
<text x="2449.8" y="226.0" font-size="19.0" font-weight="600" fill="#5f6368" text-anchor="middle">19</text>
<rect x="2473.68" y="235.00" width="51.82" height="28.00" rx="0.00" fill="#dfe3e6" stroke="#ffffff" stroke-width="1.10" opacity="1.000"/>
<text x="2499.6" y="226.0" font-size="19.0" font-weight="600" fill="#5f6368" text-anchor="middle">20</text>
<rect x="2525.50" y="235.00" width="34.11" height="28.00" rx="0.00" fill="#eef0f2" stroke="#ffffff" stroke-width="1.10" opacity="1.000"/>
<line x1="2525.50" y1="145.00" x2="2525.50" y2="745.00" stroke="#e8eaed" stroke-width="0.70" opacity="0.550"/>
<rect x="2559.61" y="235.00" width="40.36" height="28.00" rx="0.00" fill="#dfe3e6" stroke="#ffffff" stroke-width="1.10" opacity="1.000"/>
<text x="2579.8" y="226.0" font-size="19.0" font-weight="600" fill="#5f6368" text-anchor="middle">22</text>
<line x1="2559.61" y1="145.00" x2="2559.61" y2="745.00" stroke="#e8eaed" stroke-width="0.70" opacity="0.550"/>
<rect x="2599.97" y="235.00" width="120.03" height="28.00" rx="0.00" fill="#eef0f2" stroke="#ffffff" stroke-width="1.10" opacity="1.000"/>
<text x="2660.0" y="226.0" font-size="19.0" font-weight="600" fill="#5f6368" text-anchor="middle">X</text>
<line x1="2599.97" y1="145.00" x2="2599.97" y2="745.00" stroke="#e8eaed" stroke-width="0.70" opacity="0.550"/>
<rect x="360.00" y="235.00" width="2360.00" height="28.00" rx="0.00" fill="none" stroke="#bdc1c6" stroke-width="1.10" opacity="1.000"/>
<text x="334.0" y="701.0" font-size="30.0" font-weight="700" fill="#202124" text-anchor="end">PAN011 father h2</text>
<rect x="360.00" y="675.00" width="200.08" height="28.00" rx="0.00" fill="#eef0f2" stroke="#ffffff" stroke-width="1.10" opacity="1.000"/>
<text x="460.0" y="666.0" font-size="19.0" font-weight="600" fill="#5f6368" text-anchor="middle">1</text>
<line x1="360.00" y1="145.00" x2="360.00" y2="745.00" stroke="#e8eaed" stroke-width="0.70" opacity="0.550"/>
<rect x="560.08" y="675.00" width="197.51" height="28.00" rx="0.00" fill="#dfe3e6" stroke="#ffffff" stroke-width="1.10" opacity="1.000"/>
<text x="658.8" y="666.0" font-size="19.0" font-weight="600" fill="#5f6368" text-anchor="middle">2</text>
<rect x="757.59" y="675.00" width="166.07" height="28.00" rx="0.00" fill="#eef0f2" stroke="#ffffff" stroke-width="1.10" opacity="1.000"/>
<text x="840.6" y="666.0" font-size="19.0" font-weight="600" fill="#5f6368" text-anchor="middle">3</text>
<line x1="757.59" y1="145.00" x2="757.59" y2="745.00" stroke="#e8eaed" stroke-width="0.70" opacity="0.550"/>
<rect x="923.65" y="675.00" width="154.76" height="28.00" rx="0.00" fill="#dfe3e6" stroke="#ffffff" stroke-width="1.10" opacity="1.000"/>
<text x="1001.0" y="666.0" font-size="19.0" font-weight="600" fill="#5f6368" text-anchor="middle">4</text>
<rect x="1078.42" y="675.00" width="146.96" height="28.00" rx="0.00" fill="#eef0f2" stroke="#ffffff" stroke-width="1.10" opacity="1.000"/>
<text x="1151.9" y="666.0" font-size="19.0" font-weight="600" fill="#5f6368" text-anchor="middle">5</text>
<line x1="1078.42" y1="145.00" x2="1078.42" y2="745.00" stroke="#e8eaed" stroke-width="0.70" opacity="0.550"/>
<rect x="1225.38" y="675.00" width="138.96" height="28.00" rx="0.00" fill="#dfe3e6" stroke="#ffffff" stroke-width="1.10" opacity="1.000"/>
<text x="1294.9" y="666.0" font-size="19.0" font-weight="600" fill="#5f6368" text-anchor="middle">6</text>
<rect x="1364.34" y="675.00" width="130.44" height="28.00" rx="0.00" fill="#eef0f2" stroke="#ffffff" stroke-width="1.10" opacity="1.000"/>
<text x="1429.6" y="666.0" font-size="19.0" font-weight="600" fill="#5f6368" text-anchor="middle">7</text>
<rect x="1494.78" y="675.00" width="118.15" height="28.00" rx="0.00" fill="#dfe3e6" stroke="#ffffff" stroke-width="1.10" opacity="1.000"/>
<text x="1553.9" y="666.0" font-size="19.0" font-weight="600" fill="#5f6368" text-anchor="middle">8</text>
<rect x="1612.93" y="675.00" width="108.04" height="28.00" rx="0.00" fill="#eef0f2" stroke="#ffffff" stroke-width="1.10" opacity="1.000"/>
<text x="1666.9" y="666.0" font-size="19.0" font-weight="600" fill="#5f6368" text-anchor="middle">9</text>
<line x1="1612.93" y1="145.00" x2="1612.93" y2="745.00" stroke="#e8eaed" stroke-width="0.70" opacity="0.550"/>
<rect x="1720.96" y="675.00" width="109.13" height="28.00" rx="0.00" fill="#dfe3e6" stroke="#ffffff" stroke-width="1.10" opacity="1.000"/>
<text x="1775.5" y="666.0" font-size="19.0" font-weight="600" fill="#5f6368" text-anchor="middle">10</text>
<rect x="1830.09" y="675.00" width="108.79" height="28.00" rx="0.00" fill="#eef0f2" stroke="#ffffff" stroke-width="1.10" opacity="1.000"/>
<text x="1884.5" y="666.0" font-size="19.0" font-weight="600" fill="#5f6368" text-anchor="middle">11</text>
<rect x="1938.88" y="675.00" width="107.69" height="28.00" rx="0.00" fill="#dfe3e6" stroke="#ffffff" stroke-width="1.10" opacity="1.000"/>
<text x="1992.7" y="666.0" font-size="19.0" font-weight="600" fill="#5f6368" text-anchor="middle">12</text>
<rect x="2046.57" y="675.00" width="86.64" height="28.00" rx="0.00" fill="#eef0f2" stroke="#ffffff" stroke-width="1.10" opacity="1.000"/>
<text x="2089.9" y="666.0" font-size="19.0" font-weight="600" fill="#5f6368" text-anchor="middle">13</text>
<line x1="2046.57" y1="145.00" x2="2046.57" y2="745.00" stroke="#e8eaed" stroke-width="0.70" opacity="0.550"/>
<rect x="2133.21" y="675.00" width="81.04" height="28.00" rx="0.00" fill="#dfe3e6" stroke="#ffffff" stroke-width="1.10" opacity="1.000"/>
<text x="2173.7" y="666.0" font-size="19.0" font-weight="600" fill="#5f6368" text-anchor="middle">14</text>
<rect x="2214.25" y="675.00" width="79.80" height="28.00" rx="0.00" fill="#eef0f2" stroke="#ffffff" stroke-width="1.10" opacity="1.000"/>
<text x="2254.2" y="666.0" font-size="19.0" font-weight="600" fill="#5f6368" text-anchor="middle">15</text>
<line x1="2214.25" y1="145.00" x2="2214.25" y2="745.00" stroke="#e8eaed" stroke-width="0.70" opacity="0.550"/>
<rect x="2294.05" y="675.00" width="73.11" height="28.00" rx="0.00" fill="#dfe3e6" stroke="#ffffff" stroke-width="1.10" opacity="1.000"/>
<text x="2330.6" y="666.0" font-size="19.0" font-weight="600" fill="#5f6368" text-anchor="middle">16</text>
<rect x="2367.16" y="675.00" width="67.60" height="28.00" rx="0.00" fill="#eef0f2" stroke="#ffffff" stroke-width="1.10" opacity="1.000"/>
<text x="2401.0" y="666.0" font-size="19.0" font-weight="600" fill="#5f6368" text-anchor="middle">17</text>
<rect x="2434.76" y="675.00" width="65.03" height="28.00" rx="0.00" fill="#dfe3e6" stroke="#ffffff" stroke-width="1.10" opacity="1.000"/>
<text x="2467.3" y="666.0" font-size="19.0" font-weight="600" fill="#5f6368" text-anchor="middle">18</text>
<rect x="2499.80" y="675.00" width="51.31" height="28.00" rx="0.00" fill="#eef0f2" stroke="#ffffff" stroke-width="1.10" opacity="1.000"/>
<text x="2525.5" y="666.0" font-size="19.0" font-weight="600" fill="#5f6368" text-anchor="middle">19</text>
<rect x="2551.10" y="675.00" width="54.85" height="28.00" rx="0.00" fill="#dfe3e6" stroke="#ffffff" stroke-width="1.10" opacity="1.000"/>
<text x="2578.5" y="666.0" font-size="19.0" font-weight="600" fill="#5f6368" text-anchor="middle">20</text>
<rect x="2605.95" y="675.00" width="36.17" height="28.00" rx="0.00" fill="#eef0f2" stroke="#ffffff" stroke-width="1.10" opacity="1.000"/>
<line x1="2605.95" y1="145.00" x2="2605.95" y2="745.00" stroke="#e8eaed" stroke-width="0.70" opacity="0.550"/>
<rect x="2642.13" y="675.00" width="39.74" height="28.00" rx="0.00" fill="#dfe3e6" stroke="#ffffff" stroke-width="1.10" opacity="1.000"/>
<text x="2662.0" y="666.0" font-size="19.0" font-weight="600" fill="#5f6368" text-anchor="middle">22</text>
<line x1="2642.13" y1="145.00" x2="2642.13" y2="745.00" stroke="#e8eaed" stroke-width="0.70" opacity="0.550"/>
<rect x="2681.86" y="675.00" width="38.14" height="28.00" rx="0.00" fill="#dfe3e6" stroke="#ffffff" stroke-width="1.10" opacity="1.000"/>
<text x="2700.9" y="666.0" font-size="19.0" font-weight="600" fill="#5f6368" text-anchor="middle">Y</text>
<line x1="2681.86" y1="145.00" x2="2681.86" y2="745.00" stroke="#e8eaed" stroke-width="0.70" opacity="0.550"/>
<rect x="360.00" y="675.00" width="2360.00" height="28.00" rx="0.00" fill="none" stroke="#bdc1c6" stroke-width="1.10" opacity="1.000"/>
<path d="M 2562.83 271.00 C 2562.83 360.28, 1988.65 367.72, 1988.65 457.00 L 1991.65 457.00 C 1991.65 367.72, 2565.83 360.28, 2565.83 271.00 Z" fill="#6f6f6f" stroke="none" stroke-width="0.00" opacity="0.160"/>
<path d="M 2528.36 271.00 C 2528.36 360.28, 1990.36 367.72, 1990.36 457.00 L 1993.36 457.00 C 1993.36 367.72, 2531.36 360.28, 2531.36 271.00 Z" fill="#6f6f6f" stroke="none" stroke-width="0.00" opacity="0.160"/>
<path d="M 2611.18 667.00 C 2611.18 587.32, 1991.64 580.68, 1991.64 501.00 L 1994.64 501.00 C 1994.64 580.68, 2614.18 587.32, 2614.18 667.00 Z" fill="#6f6f6f" stroke="none" stroke-width="0.00" opacity="0.160"/>
<path d="M 1987.92 271.00 C 1987.92 360.28, 2531.08 367.72, 2531.08 457.00 L 2534.08 457.00 C 2534.08 367.72, 1990.92 360.28, 1990.92 271.00 Z" fill="#6f6f6f" stroke="none" stroke-width="0.00" opacity="0.160"/>
<path d="M 1988.17 271.00 C 1988.17 360.28, 2531.31 367.72, 2531.31 457.00 L 2534.31 457.00 C 2534.31 367.72, 1991.17 360.28, 1991.17 271.00 Z" fill="#6f6f6f" stroke="none" stroke-width="0.00" opacity="0.160"/>
<path d="M 1988.21 271.00 C 1988.21 360.28, 2531.35 367.72, 2531.35 457.00 L 2534.35 457.00 C 2534.35 367.72, 1991.21 360.28, 1991.21 271.00 Z" fill="#6f6f6f" stroke="none" stroke-width="0.00" opacity="0.160"/>
<path d="M 2215.47 667.00 C 2215.47 587.32, 2561.09 580.68, 2561.09 501.00 L 2564.09 501.00 C 2564.09 580.68, 2218.47 587.32, 2218.47 667.00 Z" fill="#6f6f6f" stroke="none" stroke-width="0.00" opacity="0.160"/>
<path d="M 2606.53 667.00 C 2606.53 587.32, 2563.05 580.68, 2563.05 501.00 L 2566.05 501.00 C 2566.05 580.68, 2609.53 587.32, 2609.53 667.00 Z" fill="#6f6f6f" stroke="none" stroke-width="0.00" opacity="0.160"/>
<path d="M 2068.66 271.00 C 2068.66 360.28, 2563.09 367.72, 2563.09 457.00 L 2566.09 457.00 C 2566.09 367.72, 2071.66 360.28, 2071.66 271.00 Z" fill="#6f6f6f" stroke="none" stroke-width="0.00" opacity="0.160"/>
<path d="M 2137.33 667.00 C 2137.33 587.32, 1989.44 580.68, 1989.44 501.00 L 1992.44 501.00 C 1992.44 580.68, 2140.33 587.32, 2140.33 667.00 Z" fill="#6f6f6f" stroke="none" stroke-width="0.00" opacity="0.160"/>
<path d="M 2610.34 667.00 C 2610.34 587.32, 1990.87 580.68, 1990.87 501.00 L 1993.87 501.00 C 1993.87 580.68, 2613.34 587.32, 2613.34 667.00 Z" fill="#6f6f6f" stroke="none" stroke-width="0.00" opacity="0.160"/>
<path d="M 2528.93 271.00 C 2528.93 360.28, 1990.91 367.72, 1990.91 457.00 L 1993.91 457.00 C 1993.91 367.72, 2531.93 360.28, 2531.93 271.00 Z" fill="#6f6f6f" stroke="none" stroke-width="0.00" opacity="0.160"/>
<path d="M 2611.19 667.00 C 2611.19 587.32, 1991.65 580.68, 1991.65 501.00 L 1994.65 501.00 C 1994.65 580.68, 2614.19 587.32, 2614.19 667.00 Z" fill="#6f6f6f" stroke="none" stroke-width="0.00" opacity="0.160"/>
<path d="M 2045.43 667.00 C 2045.43 587.32, 2149.38 580.68, 2149.38 501.00 L 2152.38 501.00 C 2152.38 580.68, 2048.43 587.32, 2048.43 667.00 Z" fill="#6f6f6f" stroke="none" stroke-width="0.00" opacity="0.160"/>
<path d="M 1987.93 271.00 C 1987.93 360.28, 2531.09 367.72, 2531.09 457.00 L 2534.09 457.00 C 2534.09 367.72, 1990.93 360.28, 1990.93 271.00 Z" fill="#6f6f6f" stroke="none" stroke-width="0.00" opacity="0.160"/>
<path d="M 2050.73 667.00 C 2050.73 587.32, 2531.32 580.68, 2531.32 501.00 L 2534.32 501.00 C 2534.32 580.68, 2053.73 587.32, 2053.73 667.00 Z" fill="#6f6f6f" stroke="none" stroke-width="0.00" opacity="0.160"/>
<path d="M 2050.74 667.00 C 2050.74 587.32, 2531.33 580.68, 2531.33 501.00 L 2534.33 501.00 C 2534.33 580.68, 2053.74 587.32, 2053.74 667.00 Z" fill="#6f6f6f" stroke="none" stroke-width="0.00" opacity="0.160"/>
<path d="M 2067.15 271.00 C 2067.15 360.28, 2560.79 367.72, 2560.79 457.00 L 2563.79 457.00 C 2563.79 367.72, 2070.15 360.28, 2070.15 271.00 Z" fill="#6f6f6f" stroke="none" stroke-width="0.00" opacity="0.160"/>
<path d="M 2217.42 667.00 C 2217.42 587.32, 2563.10 580.68, 2563.10 501.00 L 2566.10 501.00 C 2566.10 580.68, 2220.42 587.32, 2220.42 667.00 Z" fill="#6f6f6f" stroke="none" stroke-width="0.00" opacity="0.160"/>
<path d="M 2610.61 667.00 C 2610.61 587.32, 1991.13 580.68, 1991.13 501.00 L 1994.13 501.00 C 1994.13 580.68, 2613.61 587.32, 2613.61 667.00 Z" fill="#6f6f6f" stroke="none" stroke-width="0.00" opacity="0.160"/>
<path d="M 2067.23 271.00 C 2067.23 360.28, 2560.87 367.72, 2560.87 457.00 L 2563.87 457.00 C 2563.87 367.72, 2070.23 360.28, 2070.23 271.00 Z" fill="#6f6f6f" stroke="none" stroke-width="0.00" opacity="0.160"/>
<path d="M 2215.46 667.00 C 2215.46 587.32, 2561.08 580.68, 2561.08 501.00 L 2564.08 501.00 C 2564.08 580.68, 2218.46 587.32, 2218.46 667.00 Z" fill="#6f6f6f" stroke="none" stroke-width="0.00" opacity="0.160"/>
<path d="M 2148.65 271.00 C 2148.65 360.28, 2562.75 367.72, 2562.75 457.00 L 2565.75 457.00 C 2565.75 367.72, 2151.65 360.28, 2151.65 271.00 Z" fill="#6f6f6f" stroke="none" stroke-width="0.00" opacity="0.160"/>
<path d="M 2528.26 271.00 C 2528.26 360.28, 1990.26 367.72, 1990.26 457.00 L 1993.26 457.00 C 1993.26 367.72, 2531.26 360.28, 2531.26 271.00 Z" fill="#6f6f6f" stroke="none" stroke-width="0.00" opacity="0.160"/>
<path d="M 2528.34 271.00 C 2528.34 360.28, 1990.35 367.72, 1990.35 457.00 L 1993.35 457.00 C 1993.35 367.72, 2531.34 360.28, 2531.34 271.00 Z" fill="#6f6f6f" stroke="none" stroke-width="0.00" opacity="0.160"/>
<path d="M 2528.37 271.00 C 2528.37 360.28, 1990.38 367.72, 1990.38 457.00 L 1993.38 457.00 C 1993.38 367.72, 2531.37 360.28, 2531.37 271.00 Z" fill="#6f6f6f" stroke="none" stroke-width="0.00" opacity="0.160"/>
<path d="M 2610.59 667.00 C 2610.59 587.32, 1991.11 580.68, 1991.11 501.00 L 1994.11 501.00 C 1994.11 580.68, 2613.59 587.32, 2613.59 667.00 Z" fill="#6f6f6f" stroke="none" stroke-width="0.00" opacity="0.160"/>
<path d="M 2610.64 667.00 C 2610.64 587.32, 1991.17 580.68, 1991.17 501.00 L 1994.17 501.00 C 1994.17 580.68, 2613.64 587.32, 2613.64 667.00 Z" fill="#6f6f6f" stroke="none" stroke-width="0.00" opacity="0.160"/>
<path d="M 2611.22 667.00 C 2611.22 587.32, 1991.67 580.68, 1991.67 501.00 L 1994.67 501.00 C 1994.67 580.68, 2614.22 587.32, 2614.22 667.00 Z" fill="#6f6f6f" stroke="none" stroke-width="0.00" opacity="0.160"/>
<path d="M 2611.37 667.00 C 2611.37 587.32, 1991.95 580.68, 1991.95 501.00 L 1994.95 501.00 C 1994.95 580.68, 2614.37 587.32, 2614.37 667.00 Z" fill="#6f6f6f" stroke="none" stroke-width="0.00" opacity="0.160"/>
<path d="M 2528.33 271.00 C 2528.33 360.28, 1990.33 367.72, 1990.33 457.00 L 1993.33 457.00 C 1993.33 367.72, 2531.33 360.28, 2531.33 271.00 Z" fill="#6f6f6f" stroke="none" stroke-width="0.00" opacity="0.160"/>
<path d="M 2528.39 271.00 C 2528.39 360.28, 1990.39 367.72, 1990.39 457.00 L 1993.39 457.00 C 1993.39 367.72, 2531.39 360.28, 2531.39 271.00 Z" fill="#6f6f6f" stroke="none" stroke-width="0.00" opacity="0.160"/>
<path d="M 2134.12 667.00 C 2134.12 587.32, 2528.66 580.68, 2528.66 501.00 L 2531.66 501.00 C 2531.66 580.68, 2137.12 587.32, 2137.12 667.00 Z" fill="#6f6f6f" stroke="none" stroke-width="0.00" opacity="0.160"/>
<path d="M 2148.64 271.00 C 2148.64 360.28, 2562.74 367.72, 2562.74 457.00 L 2565.74 457.00 C 2565.74 367.72, 2151.64 360.28, 2151.64 271.00 Z" fill="#6f6f6f" stroke="none" stroke-width="0.00" opacity="0.160"/>
<path d="M 2610.18 667.00 C 2610.18 587.32, 1990.67 580.68, 1990.67 501.00 L 1993.67 501.00 C 1993.67 580.68, 2613.18 587.32, 2613.18 667.00 Z" fill="#6f6f6f" stroke="none" stroke-width="0.00" opacity="0.160"/>
<path d="M 2611.38 667.00 C 2611.38 587.32, 1991.97 580.68, 1991.97 501.00 L 1994.97 501.00 C 1994.97 580.68, 2614.38 587.32, 2614.38 667.00 Z" fill="#6f6f6f" stroke="none" stroke-width="0.00" opacity="0.160"/>
<path d="M 2045.45 667.00 C 2045.45 587.32, 2149.40 580.68, 2149.40 501.00 L 2152.40 501.00 C 2152.40 580.68, 2048.45 587.32, 2048.45 667.00 Z" fill="#6f6f6f" stroke="none" stroke-width="0.00" opacity="0.160"/>
<path d="M 2067.18 271.00 C 2067.18 360.28, 2560.82 367.72, 2560.82 457.00 L 2563.82 457.00 C 2563.82 367.72, 2070.18 360.28, 2070.18 271.00 Z" fill="#6f6f6f" stroke="none" stroke-width="0.00" opacity="0.160"/>
<path d="M 2148.68 271.00 C 2148.68 360.28, 2562.78 367.72, 2562.78 457.00 L 2565.78 457.00 C 2565.78 367.72, 2151.68 360.28, 2151.68 271.00 Z" fill="#6f6f6f" stroke="none" stroke-width="0.00" opacity="0.160"/>
<path d="M 2610.52 667.00 C 2610.52 587.32, 1991.05 580.68, 1991.05 501.00 L 1994.05 501.00 C 1994.05 580.68, 2613.52 587.32, 2613.52 667.00 Z" fill="#6f6f6f" stroke="none" stroke-width="0.00" opacity="0.160"/>
<path d="M 2050.29 667.00 C 2050.29 587.32, 2075.45 580.68, 2075.45 501.00 L 2078.45 501.00 C 2078.45 580.68, 2053.29 587.32, 2053.29 667.00 Z" fill="#6f6f6f" stroke="none" stroke-width="0.00" opacity="0.160"/>
<path d="M 2611.34 667.00 C 2611.34 587.32, 1991.92 580.68, 1991.92 501.00 L 1994.92 501.00 C 1994.92 580.68, 2614.34 587.32, 2614.34 667.00 Z" fill="#6f6f6f" stroke="none" stroke-width="0.00" opacity="0.160"/>
<path d="M 2051.80 667.00 C 2051.80 587.32, 2532.29 580.68, 2532.29 501.00 L 2535.29 501.00 C 2535.29 580.68, 2054.80 587.32, 2054.80 667.00 Z" fill="#6f6f6f" stroke="none" stroke-width="0.00" opacity="0.160"/>
<path d="M 2148.62 271.00 C 2148.62 360.28, 2562.71 367.72, 2562.71 457.00 L 2565.71 457.00 C 2565.71 367.72, 2151.62 360.28, 2151.62 271.00 Z" fill="#6f6f6f" stroke="none" stroke-width="0.00" opacity="0.160"/>
<path d="M 836.39 667.00 C 836.39 587.32, 2153.13 580.68, 2153.13 501.00 L 2156.13 501.00 C 2156.13 580.68, 839.39 587.32, 839.39 667.00 Z" fill="#9e9e9e" stroke="none" stroke-width="0.00" opacity="0.180"/>
<path d="M 2565.38 271.00 C 2565.38 360.28, 460.77 367.72, 460.77 457.00 L 463.77 457.00 C 463.77 367.72, 2568.38 360.28, 2568.38 271.00 Z" fill="#9e9e9e" stroke="none" stroke-width="0.00" opacity="0.180"/>
<path d="M 961.99 667.00 C 961.99 587.32, 1989.23 580.68, 1989.23 501.00 L 1992.23 501.00 C 1992.23 580.68, 964.99 587.32, 964.99 667.00 Z" fill="#9e9e9e" stroke="none" stroke-width="0.00" opacity="0.180"/>
<path d="M 358.60 667.00 C 358.60 587.32, 1190.94 580.68, 1190.94 501.00 L 1193.94 501.00 C 1193.94 580.68, 361.60 587.32, 361.60 667.00 Z" fill="#1F77B4" stroke="none" stroke-width="0.00" opacity="0.420"/>
<path d="M 358.57 667.00 C 358.57 587.32, 1190.98 580.68, 1190.98 501.00 L 1193.98 501.00 C 1193.98 580.68, 361.57 587.32, 361.57 667.00 Z" fill="#1F77B4" stroke="none" stroke-width="0.00" opacity="0.420"/>
<path d="M 922.13 667.00 C 922.13 587.32, 1671.27 580.68, 1671.27 501.00 L 1674.27 501.00 C 1674.27 580.68, 925.13 587.32, 925.13 667.00 Z" fill="#D95F02" stroke="none" stroke-width="0.00" opacity="0.420"/>
<path d="M 2680.47 667.00 C 2680.47 587.32, 2598.40 580.68, 2598.40 501.00 L 2601.40 501.00 C 2601.40 580.68, 2683.47 587.32, 2683.47 667.00 Z" fill="#E7298A" stroke="none" stroke-width="0.00" opacity="0.420"/>
<path d="M 2680.41 667.00 C 2680.41 587.32, 2598.34 580.68, 2598.34 501.00 L 2601.34 501.00 C 2601.34 580.68, 2683.41 587.32, 2683.41 667.00 Z" fill="#E7298A" stroke="none" stroke-width="0.00" opacity="0.420"/>
<rect x="1988.65" y="460.00" width="3.00" height="38.00" rx="1.50" fill="#6f6f6f" stroke="none" stroke-width="0.00" opacity="0.484"/>
<rect x="2562.83" y="230.00" width="3.00" height="38.00" rx="1.50" fill="#6f6f6f" stroke="none" stroke-width="0.00" opacity="0.484"/>
<rect x="1990.36" y="460.00" width="3.00" height="38.00" rx="1.50" fill="#6f6f6f" stroke="none" stroke-width="0.00" opacity="0.484"/>
<rect x="2528.36" y="230.00" width="3.00" height="38.00" rx="1.50" fill="#6f6f6f" stroke="none" stroke-width="0.00" opacity="0.484"/>
<rect x="1991.64" y="460.00" width="3.00" height="38.00" rx="1.50" fill="#6f6f6f" stroke="none" stroke-width="0.00" opacity="0.484"/>
<rect x="2611.18" y="670.00" width="3.00" height="38.00" rx="1.50" fill="#6f6f6f" stroke="none" stroke-width="0.00" opacity="0.484"/>
<rect x="2531.08" y="460.00" width="3.00" height="38.00" rx="1.50" fill="#6f6f6f" stroke="none" stroke-width="0.00" opacity="0.484"/>
<rect x="1987.92" y="230.00" width="3.00" height="38.00" rx="1.50" fill="#6f6f6f" stroke="none" stroke-width="0.00" opacity="0.484"/>
<rect x="2531.31" y="460.00" width="3.00" height="38.00" rx="1.50" fill="#6f6f6f" stroke="none" stroke-width="0.00" opacity="0.484"/>
<rect x="1988.17" y="230.00" width="3.00" height="38.00" rx="1.50" fill="#6f6f6f" stroke="none" stroke-width="0.00" opacity="0.484"/>
<rect x="2531.35" y="460.00" width="3.00" height="38.00" rx="1.50" fill="#6f6f6f" stroke="none" stroke-width="0.00" opacity="0.484"/>
<rect x="1988.21" y="230.00" width="3.00" height="38.00" rx="1.50" fill="#6f6f6f" stroke="none" stroke-width="0.00" opacity="0.484"/>
<rect x="2561.09" y="460.00" width="3.00" height="38.00" rx="1.50" fill="#6f6f6f" stroke="none" stroke-width="0.00" opacity="0.484"/>
<rect x="2215.47" y="670.00" width="3.00" height="38.00" rx="1.50" fill="#6f6f6f" stroke="none" stroke-width="0.00" opacity="0.484"/>
<rect x="2563.05" y="460.00" width="3.00" height="38.00" rx="1.50" fill="#6f6f6f" stroke="none" stroke-width="0.00" opacity="0.484"/>
<rect x="2606.53" y="670.00" width="3.00" height="38.00" rx="1.50" fill="#6f6f6f" stroke="none" stroke-width="0.00" opacity="0.484"/>
<rect x="2563.09" y="460.00" width="3.00" height="38.00" rx="1.50" fill="#6f6f6f" stroke="none" stroke-width="0.00" opacity="0.484"/>
<rect x="2068.66" y="230.00" width="3.00" height="38.00" rx="1.50" fill="#6f6f6f" stroke="none" stroke-width="0.00" opacity="0.484"/>
<rect x="1989.44" y="460.00" width="3.00" height="38.00" rx="1.50" fill="#6f6f6f" stroke="none" stroke-width="0.00" opacity="0.484"/>
<rect x="2137.33" y="670.00" width="3.00" height="38.00" rx="1.50" fill="#6f6f6f" stroke="none" stroke-width="0.00" opacity="0.484"/>
<rect x="1990.87" y="460.00" width="3.00" height="38.00" rx="1.50" fill="#6f6f6f" stroke="none" stroke-width="0.00" opacity="0.484"/>
<rect x="2610.34" y="670.00" width="3.00" height="38.00" rx="1.50" fill="#6f6f6f" stroke="none" stroke-width="0.00" opacity="0.484"/>
<rect x="1990.91" y="460.00" width="3.00" height="38.00" rx="1.50" fill="#6f6f6f" stroke="none" stroke-width="0.00" opacity="0.484"/>
<rect x="2528.93" y="230.00" width="3.00" height="38.00" rx="1.50" fill="#6f6f6f" stroke="none" stroke-width="0.00" opacity="0.484"/>
<rect x="1991.65" y="460.00" width="3.00" height="38.00" rx="1.50" fill="#6f6f6f" stroke="none" stroke-width="0.00" opacity="0.484"/>
<rect x="2611.19" y="670.00" width="3.00" height="38.00" rx="1.50" fill="#6f6f6f" stroke="none" stroke-width="0.00" opacity="0.484"/>
<rect x="2149.38" y="460.00" width="3.00" height="38.00" rx="1.50" fill="#6f6f6f" stroke="none" stroke-width="0.00" opacity="0.484"/>
<rect x="2045.43" y="670.00" width="3.00" height="38.00" rx="1.50" fill="#6f6f6f" stroke="none" stroke-width="0.00" opacity="0.484"/>
<rect x="2531.09" y="460.00" width="3.00" height="38.00" rx="1.50" fill="#6f6f6f" stroke="none" stroke-width="0.00" opacity="0.484"/>
<rect x="1987.93" y="230.00" width="3.00" height="38.00" rx="1.50" fill="#6f6f6f" stroke="none" stroke-width="0.00" opacity="0.484"/>
<rect x="2531.32" y="460.00" width="3.00" height="38.00" rx="1.50" fill="#6f6f6f" stroke="none" stroke-width="0.00" opacity="0.484"/>
<rect x="2050.73" y="670.00" width="3.00" height="38.00" rx="1.50" fill="#6f6f6f" stroke="none" stroke-width="0.00" opacity="0.484"/>
<rect x="2531.33" y="460.00" width="3.00" height="38.00" rx="1.50" fill="#6f6f6f" stroke="none" stroke-width="0.00" opacity="0.484"/>
<rect x="2050.74" y="670.00" width="3.00" height="38.00" rx="1.50" fill="#6f6f6f" stroke="none" stroke-width="0.00" opacity="0.484"/>
<rect x="2560.79" y="460.00" width="3.00" height="38.00" rx="1.50" fill="#6f6f6f" stroke="none" stroke-width="0.00" opacity="0.484"/>
<rect x="2067.15" y="230.00" width="3.00" height="38.00" rx="1.50" fill="#6f6f6f" stroke="none" stroke-width="0.00" opacity="0.484"/>
<rect x="2563.10" y="460.00" width="3.00" height="38.00" rx="1.50" fill="#6f6f6f" stroke="none" stroke-width="0.00" opacity="0.484"/>
<rect x="2217.42" y="670.00" width="3.00" height="38.00" rx="1.50" fill="#6f6f6f" stroke="none" stroke-width="0.00" opacity="0.484"/>
<rect x="1991.13" y="460.00" width="3.00" height="38.00" rx="1.50" fill="#6f6f6f" stroke="none" stroke-width="0.00" opacity="0.484"/>
<rect x="2610.61" y="670.00" width="3.00" height="38.00" rx="1.50" fill="#6f6f6f" stroke="none" stroke-width="0.00" opacity="0.484"/>
<rect x="2560.87" y="460.00" width="3.00" height="38.00" rx="1.50" fill="#6f6f6f" stroke="none" stroke-width="0.00" opacity="0.484"/>
<rect x="2067.23" y="230.00" width="3.00" height="38.00" rx="1.50" fill="#6f6f6f" stroke="none" stroke-width="0.00" opacity="0.484"/>
<rect x="2561.08" y="460.00" width="3.00" height="38.00" rx="1.50" fill="#6f6f6f" stroke="none" stroke-width="0.00" opacity="0.484"/>
<rect x="2215.46" y="670.00" width="3.00" height="38.00" rx="1.50" fill="#6f6f6f" stroke="none" stroke-width="0.00" opacity="0.484"/>
<rect x="2562.75" y="460.00" width="3.00" height="38.00" rx="1.50" fill="#6f6f6f" stroke="none" stroke-width="0.00" opacity="0.484"/>
<rect x="2148.65" y="230.00" width="3.00" height="38.00" rx="1.50" fill="#6f6f6f" stroke="none" stroke-width="0.00" opacity="0.484"/>
<rect x="1990.26" y="460.00" width="3.00" height="38.00" rx="1.50" fill="#6f6f6f" stroke="none" stroke-width="0.00" opacity="0.484"/>
<rect x="2528.26" y="230.00" width="3.00" height="38.00" rx="1.50" fill="#6f6f6f" stroke="none" stroke-width="0.00" opacity="0.484"/>
<rect x="1990.35" y="460.00" width="3.00" height="38.00" rx="1.50" fill="#6f6f6f" stroke="none" stroke-width="0.00" opacity="0.484"/>
<rect x="2528.34" y="230.00" width="3.00" height="38.00" rx="1.50" fill="#6f6f6f" stroke="none" stroke-width="0.00" opacity="0.484"/>
<rect x="1990.38" y="460.00" width="3.00" height="38.00" rx="1.50" fill="#6f6f6f" stroke="none" stroke-width="0.00" opacity="0.484"/>
<rect x="2528.37" y="230.00" width="3.00" height="38.00" rx="1.50" fill="#6f6f6f" stroke="none" stroke-width="0.00" opacity="0.484"/>
<rect x="1991.11" y="460.00" width="3.00" height="38.00" rx="1.50" fill="#6f6f6f" stroke="none" stroke-width="0.00" opacity="0.484"/>
<rect x="2610.59" y="670.00" width="3.00" height="38.00" rx="1.50" fill="#6f6f6f" stroke="none" stroke-width="0.00" opacity="0.484"/>
<rect x="1991.17" y="460.00" width="3.00" height="38.00" rx="1.50" fill="#6f6f6f" stroke="none" stroke-width="0.00" opacity="0.484"/>
<rect x="2610.64" y="670.00" width="3.00" height="38.00" rx="1.50" fill="#6f6f6f" stroke="none" stroke-width="0.00" opacity="0.484"/>
<rect x="1991.67" y="460.00" width="3.00" height="38.00" rx="1.50" fill="#6f6f6f" stroke="none" stroke-width="0.00" opacity="0.484"/>
<rect x="2611.22" y="670.00" width="3.00" height="38.00" rx="1.50" fill="#6f6f6f" stroke="none" stroke-width="0.00" opacity="0.484"/>
<rect x="1991.95" y="460.00" width="3.00" height="38.00" rx="1.50" fill="#6f6f6f" stroke="none" stroke-width="0.00" opacity="0.484"/>
<rect x="2611.37" y="670.00" width="3.00" height="38.00" rx="1.50" fill="#6f6f6f" stroke="none" stroke-width="0.00" opacity="0.484"/>
<rect x="1990.33" y="460.00" width="3.00" height="38.00" rx="1.50" fill="#6f6f6f" stroke="none" stroke-width="0.00" opacity="0.484"/>
<rect x="2528.33" y="230.00" width="3.00" height="38.00" rx="1.50" fill="#6f6f6f" stroke="none" stroke-width="0.00" opacity="0.484"/>
<rect x="1990.39" y="460.00" width="3.00" height="38.00" rx="1.50" fill="#6f6f6f" stroke="none" stroke-width="0.00" opacity="0.484"/>
<rect x="2528.39" y="230.00" width="3.00" height="38.00" rx="1.50" fill="#6f6f6f" stroke="none" stroke-width="0.00" opacity="0.484"/>
<rect x="2528.66" y="460.00" width="3.00" height="38.00" rx="1.50" fill="#6f6f6f" stroke="none" stroke-width="0.00" opacity="0.484"/>
<rect x="2134.12" y="670.00" width="3.00" height="38.00" rx="1.50" fill="#6f6f6f" stroke="none" stroke-width="0.00" opacity="0.484"/>
<rect x="2562.74" y="460.00" width="3.00" height="38.00" rx="1.50" fill="#6f6f6f" stroke="none" stroke-width="0.00" opacity="0.484"/>
<rect x="2148.64" y="230.00" width="3.00" height="38.00" rx="1.50" fill="#6f6f6f" stroke="none" stroke-width="0.00" opacity="0.484"/>
<rect x="1990.67" y="460.00" width="3.00" height="38.00" rx="1.50" fill="#6f6f6f" stroke="none" stroke-width="0.00" opacity="0.484"/>
<rect x="2610.18" y="670.00" width="3.00" height="38.00" rx="1.50" fill="#6f6f6f" stroke="none" stroke-width="0.00" opacity="0.484"/>
<rect x="1991.97" y="460.00" width="3.00" height="38.00" rx="1.50" fill="#6f6f6f" stroke="none" stroke-width="0.00" opacity="0.484"/>
<rect x="2611.38" y="670.00" width="3.00" height="38.00" rx="1.50" fill="#6f6f6f" stroke="none" stroke-width="0.00" opacity="0.484"/>
<rect x="2149.40" y="460.00" width="3.00" height="38.00" rx="1.50" fill="#6f6f6f" stroke="none" stroke-width="0.00" opacity="0.484"/>
<rect x="2045.45" y="670.00" width="3.00" height="38.00" rx="1.50" fill="#6f6f6f" stroke="none" stroke-width="0.00" opacity="0.484"/>
<rect x="2560.82" y="460.00" width="3.00" height="38.00" rx="1.50" fill="#6f6f6f" stroke="none" stroke-width="0.00" opacity="0.484"/>
<rect x="2067.18" y="230.00" width="3.00" height="38.00" rx="1.50" fill="#6f6f6f" stroke="none" stroke-width="0.00" opacity="0.484"/>
<rect x="2562.78" y="460.00" width="3.00" height="38.00" rx="1.50" fill="#6f6f6f" stroke="none" stroke-width="0.00" opacity="0.484"/>
<rect x="2148.68" y="230.00" width="3.00" height="38.00" rx="1.50" fill="#6f6f6f" stroke="none" stroke-width="0.00" opacity="0.484"/>
<rect x="1991.05" y="460.00" width="3.00" height="38.00" rx="1.50" fill="#6f6f6f" stroke="none" stroke-width="0.00" opacity="0.484"/>
<rect x="2610.52" y="670.00" width="3.00" height="38.00" rx="1.50" fill="#6f6f6f" stroke="none" stroke-width="0.00" opacity="0.484"/>
<rect x="2075.45" y="460.00" width="3.00" height="38.00" rx="1.50" fill="#6f6f6f" stroke="none" stroke-width="0.00" opacity="0.484"/>
<rect x="2050.29" y="670.00" width="3.00" height="38.00" rx="1.50" fill="#6f6f6f" stroke="none" stroke-width="0.00" opacity="0.484"/>
<rect x="1991.92" y="460.00" width="3.00" height="38.00" rx="1.50" fill="#6f6f6f" stroke="none" stroke-width="0.00" opacity="0.484"/>
<rect x="2611.34" y="670.00" width="3.00" height="38.00" rx="1.50" fill="#6f6f6f" stroke="none" stroke-width="0.00" opacity="0.484"/>
<rect x="2532.29" y="460.00" width="3.00" height="38.00" rx="1.50" fill="#6f6f6f" stroke="none" stroke-width="0.00" opacity="0.484"/>
<rect x="2051.80" y="670.00" width="3.00" height="38.00" rx="1.50" fill="#6f6f6f" stroke="none" stroke-width="0.00" opacity="0.484"/>
<rect x="2562.71" y="460.00" width="3.00" height="38.00" rx="1.50" fill="#6f6f6f" stroke="none" stroke-width="0.00" opacity="0.484"/>
<rect x="2148.62" y="230.00" width="3.00" height="38.00" rx="1.50" fill="#6f6f6f" stroke="none" stroke-width="0.00" opacity="0.484"/>
<rect x="2153.13" y="460.00" width="3.00" height="38.00" rx="1.50" fill="#9e9e9e" stroke="none" stroke-width="0.00" opacity="0.484"/>
<rect x="836.39" y="670.00" width="3.00" height="38.00" rx="1.50" fill="#9e9e9e" stroke="none" stroke-width="0.00" opacity="0.484"/>
<rect x="460.77" y="460.00" width="3.00" height="38.00" rx="1.50" fill="#9e9e9e" stroke="none" stroke-width="0.00" opacity="0.484"/>
<rect x="2565.38" y="230.00" width="3.00" height="38.00" rx="1.50" fill="#9e9e9e" stroke="none" stroke-width="0.00" opacity="0.484"/>
<rect x="1989.23" y="460.00" width="3.00" height="38.00" rx="1.50" fill="#9e9e9e" stroke="none" stroke-width="0.00" opacity="0.484"/>
<rect x="961.99" y="670.00" width="3.00" height="38.00" rx="1.50" fill="#9e9e9e" stroke="none" stroke-width="0.00" opacity="0.484"/>
<rect x="1190.94" y="460.00" width="3.00" height="38.00" rx="1.50" fill="#1F77B4" stroke="none" stroke-width="0.00" opacity="0.880"/>
<rect x="358.60" y="670.00" width="3.00" height="38.00" rx="1.50" fill="#1F77B4" stroke="none" stroke-width="0.00" opacity="0.880"/>
<rect x="1190.98" y="460.00" width="3.00" height="38.00" rx="1.50" fill="#1F77B4" stroke="none" stroke-width="0.00" opacity="0.880"/>
<rect x="358.57" y="670.00" width="3.00" height="38.00" rx="1.50" fill="#1F77B4" stroke="none" stroke-width="0.00" opacity="0.880"/>
<rect x="1671.27" y="460.00" width="3.00" height="38.00" rx="1.50" fill="#D95F02" stroke="none" stroke-width="0.00" opacity="0.880"/>
<rect x="922.13" y="670.00" width="3.00" height="38.00" rx="1.50" fill="#D95F02" stroke="none" stroke-width="0.00" opacity="0.880"/>
<rect x="2598.40" y="460.00" width="3.00" height="38.00" rx="1.50" fill="#E7298A" stroke="none" stroke-width="0.00" opacity="0.880"/>
<rect x="2680.47" y="670.00" width="3.00" height="38.00" rx="1.50" fill="#E7298A" stroke="none" stroke-width="0.00" opacity="0.880"/>
<rect x="2598.34" y="460.00" width="3.00" height="38.00" rx="1.50" fill="#E7298A" stroke="none" stroke-width="0.00" opacity="0.880"/>
<rect x="2680.41" y="670.00" width="3.00" height="38.00" rx="1.50" fill="#E7298A" stroke="none" stroke-width="0.00" opacity="0.880"/>
<line x1="1192.48" y1="456.00" x2="1192.48" y2="373.00" stroke="#1F77B4" stroke-width="1.40" opacity="0.900"/>
<text x="1192.5" y="365.0" font-size="27.0" font-weight="700" fill="#1F77B4" text-anchor="middle">chr5q ~ chr1p</text>
<text x="1192.5" y="394.0" font-size="20.0" font-weight="400" fill="#5f6368" text-anchor="middle">28 kb, h2</text>
<line x1="1672.77" y1="456.00" x2="1672.77" y2="373.00" stroke="#D95F02" stroke-width="1.40" opacity="0.900"/>
<text x="1672.8" y="365.0" font-size="27.0" font-weight="700" fill="#D95F02" text-anchor="middle">chr9q ~ chr3q</text>
<text x="1672.8" y="394.0" font-size="20.0" font-weight="400" fill="#5f6368" text-anchor="middle">20 kb, h2</text>
<line x1="2599.84" y1="456.00" x2="2599.84" y2="373.00" stroke="#E7298A" stroke-width="1.40" opacity="0.900"/>
<text x="2599.8" y="365.0" font-size="27.0" font-weight="700" fill="#E7298A" text-anchor="middle">PAR1 chrX ~ chrY</text>
<text x="2599.8" y="394.0" font-size="20.0" font-weight="400" fill="#5f6368" text-anchor="middle">92 kb, h2</text>
<text x="360.0" y="810.0" font-size="24.0" font-weight="700" fill="#5f6368" text-anchor="start">Ribbon classes</text>
<rect x="570.00" y="790.00" width="27.00" height="21.00" rx="0.00" fill="#E7298A" stroke="none" stroke-width="0.00" opacity="0.900"/>
<text x="609.0" y="810.0" font-size="21.0" font-weight="400" fill="#202124" text-anchor="start">PAR1 positive control (2)</text>
<rect x="960.00" y="790.00" width="27.00" height="21.00" rx="0.00" fill="#1F77B4" stroke="none" stroke-width="0.00" opacity="0.900"/>
<text x="999.0" y="810.0" font-size="21.0" font-weight="400" fill="#202124" text-anchor="start">chr5q/chr1p candidate (2)</text>
<rect x="1350.00" y="790.00" width="27.00" height="21.00" rx="0.00" fill="#D95F02" stroke="none" stroke-width="0.00" opacity="0.900"/>
<text x="1389.0" y="810.0" font-size="21.0" font-weight="400" fill="#202124" text-anchor="start">chr9q/chr3q candidate (1)</text>
<rect x="1740.00" y="790.00" width="27.00" height="21.00" rx="0.00" fill="#6f6f6f" stroke="none" stroke-width="0.00" opacity="0.900"/>
<text x="1779.0" y="810.0" font-size="21.0" font-weight="400" fill="#202124" text-anchor="start">acrocentric (44)</text>
<rect x="2130.00" y="790.00" width="27.00" height="21.00" rx="0.00" fill="#9e9e9e" stroke="none" stroke-width="0.00" opacity="0.900"/>
<text x="2169.0" y="810.0" font-size="21.0" font-weight="400" fill="#202124" text-anchor="start">acro-other (3)</text>
<text x="360.0" y="855.0" font-size="19.0" font-weight="400" fill="#5f6368" text-anchor="start">Drawn: 52 high-confidence runs, 0.94 Mb total; threshold: run &gt;=10 kb and mean interchrom identity &gt;=0.95.</text>
<text x="360.0" y="883.0" font-size="19.0" font-weight="400" fill="#5f6368" text-anchor="start">All coordinates are native whole-genome coordinates collapsed into length-scaled chromosome-order tracks.</text>
</svg>
