<svg xmlns="http://www.w3.org/2000/svg" width="2600" height="974" viewBox="0 0 2600 974">
<rect width="100%" height="100%" fill="white"/>
<style>text{font-family:Arial,Helvetica,sans-serif;dominant-baseline:alphabetic}</style>
<rect x="44.00" y="40.00" width="2512.00" height="204.00" rx="3.00" fill="#ffffff" stroke="#e0e2e4" stroke-width="0.80" opacity="1.000"/>
<text x="68.0" y="70.0" font-size="25.0" font-weight="700" fill="#222222" text-anchor="start">chrXp child recipient ← chrYp father donor</text>
<text x="512.0" y="151.0" font-size="18.0" font-weight="700" fill="#222222" text-anchor="end">PAN027 paternal haplotype (child) chrXp</text>
<rect x="540.00" y="132.00" width="1580.00" height="20.00" rx="2.00" fill="#f4f5f6" stroke="#c8ccd0" stroke-width="1.00" opacity="1.000"/>
<line x1="540.00" y1="129.00" x2="540.00" y2="155.00" stroke="#111111" stroke-width="2.20" opacity="1.000"/>
<polygon points="2128.00,134.00 2128.00,150.00 2145.00,142.00" fill="#9aa0a6" stroke="none" stroke-width="0.00" opacity="0.950"/>
<line x1="540.00" y1="152.00" x2="540.00" y2="162.00" stroke="#777777" stroke-width="0.80" opacity="1.000"/>
<text x="540.0" y="178.0" font-size="12.0" font-weight="400" fill="#5f6368" text-anchor="middle">0.000</text>
<line x1="856.00" y1="152.00" x2="856.00" y2="162.00" stroke="#777777" stroke-width="0.80" opacity="1.000"/>
<line x1="1172.00" y1="152.00" x2="1172.00" y2="162.00" stroke="#777777" stroke-width="0.80" opacity="1.000"/>
<text x="1172.0" y="178.0" font-size="12.0" font-weight="400" fill="#5f6368" text-anchor="middle">0.200</text>
<line x1="1488.00" y1="152.00" x2="1488.00" y2="162.00" stroke="#777777" stroke-width="0.80" opacity="1.000"/>
<line x1="1804.00" y1="152.00" x2="1804.00" y2="162.00" stroke="#777777" stroke-width="0.80" opacity="1.000"/>
<text x="1804.0" y="178.0" font-size="12.0" font-weight="400" fill="#5f6368" text-anchor="middle">0.400</text>
<line x1="2120.00" y1="152.00" x2="2120.00" y2="162.00" stroke="#777777" stroke-width="0.80" opacity="1.000"/>
<text x="2120.0" y="178.0" font-size="12.0" font-weight="400" fill="#5f6368" text-anchor="middle">0.500</text>
<text x="2135.0" y="178.0" font-size="12.0" font-weight="400" fill="#5f6368" text-anchor="start">Mb</text>
<text x="2120.0" y="196.0" font-size="11.0" font-weight="400" fill="#5f6368" text-anchor="middle">chr start</text>
<rect x="540.00" y="115.00" width="1580.00" height="6.00" rx="0.00" fill="#111111" stroke="none" stroke-width="0.00" opacity="1.000"/>
<rect x="584.24" y="127.00" width="290.72" height="30.00" rx="1.00" fill="#E7298A" stroke="none" stroke-width="0.00" opacity="0.950"/>
<rect x="887.60" y="127.00" width="145.36" height="30.00" rx="1.00" fill="#E7298A" stroke="none" stroke-width="0.00" opacity="0.950"/>
<rect x="1190.96" y="127.00" width="12.64" height="30.00" rx="1.00" fill="#E7298A" stroke="none" stroke-width="0.00" opacity="0.950"/>
<text x="512.0" y="237.0" font-size="18.0" font-weight="700" fill="#222222" text-anchor="end">PAN011 haplotype 2 (father) chrYp</text>
<rect x="540.00" y="218.00" width="1580.00" height="20.00" rx="2.00" fill="#f4f5f6" stroke="#c8ccd0" stroke-width="1.00" opacity="1.000"/>
<line x1="540.00" y1="215.00" x2="540.00" y2="241.00" stroke="#111111" stroke-width="2.20" opacity="1.000"/>
<polygon points="2128.00,220.00 2128.00,236.00 2145.00,228.00" fill="#9aa0a6" stroke="none" stroke-width="0.00" opacity="0.950"/>
<line x1="540.00" y1="238.00" x2="540.00" y2="248.00" stroke="#777777" stroke-width="0.80" opacity="1.000"/>
<text x="540.0" y="264.0" font-size="12.0" font-weight="400" fill="#5f6368" text-anchor="middle">0.000</text>
<line x1="856.00" y1="238.00" x2="856.00" y2="248.00" stroke="#777777" stroke-width="0.80" opacity="1.000"/>
<line x1="1172.00" y1="238.00" x2="1172.00" y2="248.00" stroke="#777777" stroke-width="0.80" opacity="1.000"/>
<text x="1172.0" y="264.0" font-size="12.0" font-weight="400" fill="#5f6368" text-anchor="middle">0.200</text>
<line x1="1488.00" y1="238.00" x2="1488.00" y2="248.00" stroke="#777777" stroke-width="0.80" opacity="1.000"/>
<line x1="1804.00" y1="238.00" x2="1804.00" y2="248.00" stroke="#777777" stroke-width="0.80" opacity="1.000"/>
<text x="1804.0" y="264.0" font-size="12.0" font-weight="400" fill="#5f6368" text-anchor="middle">0.400</text>
<line x1="2120.00" y1="238.00" x2="2120.00" y2="248.00" stroke="#777777" stroke-width="0.80" opacity="1.000"/>
<text x="2120.0" y="264.0" font-size="12.0" font-weight="400" fill="#5f6368" text-anchor="middle">0.500</text>
<text x="2135.0" y="264.0" font-size="12.0" font-weight="400" fill="#5f6368" text-anchor="start">Mb</text>
<text x="2120.0" y="282.0" font-size="11.0" font-weight="400" fill="#5f6368" text-anchor="middle">chr start</text>
<rect x="540.00" y="247.00" width="1580.00" height="6.00" rx="0.00" fill="#111111" stroke="none" stroke-width="0.00" opacity="1.000"/>
<rect x="563.96" y="214.00" width="290.73" height="28.00" rx="1.00" fill="#E7298A" stroke="none" stroke-width="0.00" opacity="0.950"/>
<path d="M 584.24 159.00 C 584.24 182.40, 563.96 187.60, 563.96 211.00 L 854.69 211.00 C 854.69 187.60, 874.96 182.40, 874.96 159.00 Z" fill="#E7298A" stroke="none" stroke-width="0.00" opacity="0.300"/>
<rect x="867.33" y="214.00" width="145.36" height="28.00" rx="1.00" fill="#E7298A" stroke="none" stroke-width="0.00" opacity="0.950"/>
<path d="M 887.60 159.00 C 887.60 182.40, 867.33 187.60, 867.33 211.00 L 1012.69 211.00 C 1012.69 187.60, 1032.96 182.40, 1032.96 159.00 Z" fill="#E7298A" stroke="none" stroke-width="0.00" opacity="0.300"/>
<rect x="1176.17" y="214.00" width="12.64" height="28.00" rx="1.00" fill="#E7298A" stroke="none" stroke-width="0.00" opacity="0.950"/>
<path d="M 1190.96 159.00 C 1190.96 182.40, 1176.17 187.60, 1176.17 211.00 L 1188.81 211.00 C 1188.81 187.60, 1203.60 182.40, 1203.60 159.00 Z" fill="#E7298A" stroke="none" stroke-width="0.00" opacity="0.300"/>
<rect x="44.00" y="322.00" width="2512.00" height="204.00" rx="3.00" fill="#ffffff" stroke="#e0e2e4" stroke-width="0.80" opacity="1.000"/>
<text x="68.0" y="352.0" font-size="25.0" font-weight="700" fill="#222222" text-anchor="start">chr5q child recipient ← chr1p father donor</text>
<text x="512.0" y="433.0" font-size="18.0" font-weight="700" fill="#222222" text-anchor="end">PAN027 paternal haplotype (child) chr5q</text>
<rect x="540.00" y="414.00" width="1580.00" height="20.00" rx="2.00" fill="#f4f5f6" stroke="#c8ccd0" stroke-width="1.00" opacity="1.000"/>
<line x1="2120.00" y1="411.00" x2="2120.00" y2="437.00" stroke="#111111" stroke-width="2.20" opacity="1.000"/>
<polygon points="532.00,416.00 532.00,432.00 515.00,424.00" fill="#9aa0a6" stroke="none" stroke-width="0.00" opacity="0.950"/>
<line x1="540.00" y1="434.00" x2="540.00" y2="444.00" stroke="#777777" stroke-width="0.80" opacity="1.000"/>
<text x="540.0" y="460.0" font-size="12.0" font-weight="400" fill="#5f6368" text-anchor="middle">181.650</text>
<line x1="856.00" y1="434.00" x2="856.00" y2="444.00" stroke="#777777" stroke-width="0.80" opacity="1.000"/>
<line x1="1172.00" y1="434.00" x2="1172.00" y2="444.00" stroke="#777777" stroke-width="0.80" opacity="1.000"/>
<text x="1172.0" y="460.0" font-size="12.0" font-weight="400" fill="#5f6368" text-anchor="middle">181.850</text>
<line x1="1488.00" y1="434.00" x2="1488.00" y2="444.00" stroke="#777777" stroke-width="0.80" opacity="1.000"/>
<line x1="1804.00" y1="434.00" x2="1804.00" y2="444.00" stroke="#777777" stroke-width="0.80" opacity="1.000"/>
<text x="1804.0" y="460.0" font-size="12.0" font-weight="400" fill="#5f6368" text-anchor="middle">182.050</text>
<line x1="2120.00" y1="434.00" x2="2120.00" y2="444.00" stroke="#777777" stroke-width="0.80" opacity="1.000"/>
<text x="2120.0" y="460.0" font-size="12.0" font-weight="400" fill="#5f6368" text-anchor="middle">182.150</text>
<text x="2135.0" y="460.0" font-size="12.0" font-weight="400" fill="#5f6368" text-anchor="start">Mb</text>
<text x="2120.0" y="478.0" font-size="11.0" font-weight="400" fill="#5f6368" text-anchor="middle">chr end</text>
<rect x="1502.92" y="397.00" width="584.60" height="6.00" rx="0.00" fill="#111111" stroke="none" stroke-width="0.00" opacity="1.000"/>
<rect x="1608.49" y="409.00" width="6.32" height="30.00" rx="1.00" fill="#4E79A7" stroke="none" stroke-width="0.00" opacity="0.950"/>
<rect x="1678.01" y="409.00" width="37.92" height="30.00" rx="1.00" fill="#4E79A7" stroke="none" stroke-width="0.00" opacity="0.950"/>
<rect x="1722.25" y="409.00" width="6.32" height="30.00" rx="1.00" fill="#4E79A7" stroke="none" stroke-width="0.00" opacity="0.950"/>
<rect x="1734.89" y="409.00" width="12.64" height="30.00" rx="1.00" fill="#4E79A7" stroke="none" stroke-width="0.00" opacity="0.950"/>
<rect x="1753.85" y="409.00" width="18.96" height="30.00" rx="1.00" fill="#4E79A7" stroke="none" stroke-width="0.00" opacity="0.950"/>
<rect x="1810.73" y="409.00" width="88.48" height="30.00" rx="1.00" fill="#4E79A7" stroke="none" stroke-width="0.00" opacity="0.950"/>
<rect x="1930.81" y="409.00" width="25.28" height="30.00" rx="1.00" fill="#4E79A7" stroke="none" stroke-width="0.00" opacity="0.950"/>
<rect x="1962.41" y="409.00" width="12.64" height="30.00" rx="1.00" fill="#4E79A7" stroke="none" stroke-width="0.00" opacity="0.950"/>
<rect x="2012.97" y="409.00" width="6.32" height="30.00" rx="1.00" fill="#4E79A7" stroke="none" stroke-width="0.00" opacity="0.950"/>
<text x="512.0" y="519.0" font-size="18.0" font-weight="700" fill="#222222" text-anchor="end">PAN011 haplotype 2 (father) chr1p</text>
<rect x="540.00" y="500.00" width="1580.00" height="20.00" rx="2.00" fill="#f4f5f6" stroke="#c8ccd0" stroke-width="1.00" opacity="1.000"/>
<line x1="540.00" y1="497.00" x2="540.00" y2="523.00" stroke="#111111" stroke-width="2.20" opacity="1.000"/>
<polygon points="2128.00,502.00 2128.00,518.00 2145.00,510.00" fill="#9aa0a6" stroke="none" stroke-width="0.00" opacity="0.950"/>
<line x1="540.00" y1="520.00" x2="540.00" y2="530.00" stroke="#777777" stroke-width="0.80" opacity="1.000"/>
<text x="540.0" y="546.0" font-size="12.0" font-weight="400" fill="#5f6368" text-anchor="middle">0.000</text>
<line x1="856.00" y1="520.00" x2="856.00" y2="530.00" stroke="#777777" stroke-width="0.80" opacity="1.000"/>
<line x1="1172.00" y1="520.00" x2="1172.00" y2="530.00" stroke="#777777" stroke-width="0.80" opacity="1.000"/>
<text x="1172.0" y="546.0" font-size="12.0" font-weight="400" fill="#5f6368" text-anchor="middle">0.200</text>
<line x1="1488.00" y1="520.00" x2="1488.00" y2="530.00" stroke="#777777" stroke-width="0.80" opacity="1.000"/>
<line x1="1804.00" y1="520.00" x2="1804.00" y2="530.00" stroke="#777777" stroke-width="0.80" opacity="1.000"/>
<text x="1804.0" y="546.0" font-size="12.0" font-weight="400" fill="#5f6368" text-anchor="middle">0.400</text>
<line x1="2120.00" y1="520.00" x2="2120.00" y2="530.00" stroke="#777777" stroke-width="0.80" opacity="1.000"/>
<text x="2120.0" y="546.0" font-size="12.0" font-weight="400" fill="#5f6368" text-anchor="middle">0.500</text>
<text x="2135.0" y="546.0" font-size="12.0" font-weight="400" fill="#5f6368" text-anchor="start">Mb</text>
<text x="2120.0" y="564.0" font-size="11.0" font-weight="400" fill="#5f6368" text-anchor="middle">chr start</text>
<rect x="550.66" y="529.00" width="995.40" height="6.00" rx="0.00" fill="#111111" stroke="none" stroke-width="0.00" opacity="1.000"/>
<rect x="620.23" y="496.00" width="6.19" height="28.00" rx="1.00" fill="#4E79A7" stroke="none" stroke-width="0.00" opacity="0.950"/>
<path d="M 2012.97 441.00 C 2012.97 464.40, 620.23 469.60, 620.23 493.00 L 626.42 493.00 C 626.42 469.60, 2019.29 464.40, 2019.29 441.00 Z" fill="#4E79A7" stroke="none" stroke-width="0.00" opacity="0.300"/>
<rect x="671.35" y="496.00" width="9.51" height="28.00" rx="1.00" fill="#4E79A7" stroke="none" stroke-width="0.00" opacity="0.950"/>
<path d="M 1962.41 441.00 C 1962.41 464.40, 671.35 469.60, 671.35 493.00 L 680.86 493.00 C 680.86 469.60, 1975.05 464.40, 1975.05 441.00 Z" fill="#4E79A7" stroke="none" stroke-width="0.00" opacity="0.300"/>
<rect x="687.18" y="496.00" width="25.27" height="28.00" rx="1.00" fill="#4E79A7" stroke="none" stroke-width="0.00" opacity="0.950"/>
<path d="M 1930.81 441.00 C 1930.81 464.40, 687.18 469.60, 687.18 493.00 L 712.44 493.00 C 712.44 469.60, 1956.09 464.40, 1956.09 441.00 Z" fill="#4E79A7" stroke="none" stroke-width="0.00" opacity="0.300"/>
<rect x="762.53" y="496.00" width="88.46" height="28.00" rx="1.00" fill="#4E79A7" stroke="none" stroke-width="0.00" opacity="0.950"/>
<path d="M 1810.73 441.00 C 1810.73 464.40, 762.53 469.60, 762.53 493.00 L 850.99 493.00 C 850.99 469.60, 1899.21 464.40, 1899.21 441.00 Z" fill="#4E79A7" stroke="none" stroke-width="0.00" opacity="0.300"/>
<rect x="850.52" y="496.00" width="18.95" height="28.00" rx="1.00" fill="#4E79A7" stroke="none" stroke-width="0.00" opacity="0.950"/>
<path d="M 1753.85 441.00 C 1753.85 464.40, 850.52 469.60, 850.52 493.00 L 869.47 493.00 C 869.47 469.60, 1772.81 464.40, 1772.81 441.00 Z" fill="#4E79A7" stroke="none" stroke-width="0.00" opacity="0.300"/>
<rect x="875.79" y="496.00" width="12.64" height="28.00" rx="1.00" fill="#4E79A7" stroke="none" stroke-width="0.00" opacity="0.950"/>
<path d="M 1734.89 441.00 C 1734.89 464.40, 875.79 469.60, 875.79 493.00 L 888.43 493.00 C 888.43 469.60, 1747.53 464.40, 1747.53 441.00 Z" fill="#4E79A7" stroke="none" stroke-width="0.00" opacity="0.300"/>
<rect x="894.75" y="496.00" width="6.32" height="28.00" rx="1.00" fill="#4E79A7" stroke="none" stroke-width="0.00" opacity="0.950"/>
<path d="M 1722.25 441.00 C 1722.25 464.40, 894.75 469.60, 894.75 493.00 L 901.07 493.00 C 901.07 469.60, 1728.57 464.40, 1728.57 441.00 Z" fill="#4E79A7" stroke="none" stroke-width="0.00" opacity="0.300"/>
<rect x="907.39" y="496.00" width="37.92" height="28.00" rx="1.00" fill="#4E79A7" stroke="none" stroke-width="0.00" opacity="0.950"/>
<path d="M 1678.01 441.00 C 1678.01 464.40, 907.39 469.60, 907.39 493.00 L 945.32 493.00 C 945.32 469.60, 1715.93 464.40, 1715.93 441.00 Z" fill="#4E79A7" stroke="none" stroke-width="0.00" opacity="0.300"/>
<rect x="1009.53" y="496.00" width="6.31" height="28.00" rx="1.00" fill="#4E79A7" stroke="none" stroke-width="0.00" opacity="0.950"/>
<path d="M 1608.49 441.00 C 1608.49 464.40, 1009.53 469.60, 1009.53 493.00 L 1015.84 493.00 C 1015.84 469.60, 1614.81 464.40, 1614.81 441.00 Z" fill="#4E79A7" stroke="none" stroke-width="0.00" opacity="0.300"/>
<rect x="44.00" y="604.00" width="2512.00" height="204.00" rx="3.00" fill="#ffffff" stroke="#e0e2e4" stroke-width="0.80" opacity="1.000"/>
<text x="68.0" y="634.0" font-size="25.0" font-weight="700" fill="#222222" text-anchor="start">chr9q child recipient ← chr3q father donor</text>
<text x="512.0" y="715.0" font-size="18.0" font-weight="700" fill="#222222" text-anchor="end">PAN027 paternal haplotype (child) chr9q</text>
<rect x="540.00" y="696.00" width="1580.00" height="20.00" rx="2.00" fill="#f4f5f6" stroke="#c8ccd0" stroke-width="1.00" opacity="1.000"/>
<line x1="2120.00" y1="693.00" x2="2120.00" y2="719.00" stroke="#111111" stroke-width="2.20" opacity="1.000"/>
<polygon points="532.00,698.00 532.00,714.00 515.00,706.00" fill="#9aa0a6" stroke="none" stroke-width="0.00" opacity="0.950"/>
<line x1="540.00" y1="716.00" x2="540.00" y2="726.00" stroke="#777777" stroke-width="0.80" opacity="1.000"/>
<text x="540.0" y="742.0" font-size="12.0" font-weight="400" fill="#5f6368" text-anchor="middle">135.709</text>
<line x1="856.00" y1="716.00" x2="856.00" y2="726.00" stroke="#777777" stroke-width="0.80" opacity="1.000"/>
<line x1="1172.00" y1="716.00" x2="1172.00" y2="726.00" stroke="#777777" stroke-width="0.80" opacity="1.000"/>
<text x="1172.0" y="742.0" font-size="12.0" font-weight="400" fill="#5f6368" text-anchor="middle">135.909</text>
<line x1="1488.00" y1="716.00" x2="1488.00" y2="726.00" stroke="#777777" stroke-width="0.80" opacity="1.000"/>
<line x1="1804.00" y1="716.00" x2="1804.00" y2="726.00" stroke="#777777" stroke-width="0.80" opacity="1.000"/>
<text x="1804.0" y="742.0" font-size="12.0" font-weight="400" fill="#5f6368" text-anchor="middle">136.109</text>
<line x1="2120.00" y1="716.00" x2="2120.00" y2="726.00" stroke="#777777" stroke-width="0.80" opacity="1.000"/>
<text x="2120.0" y="742.0" font-size="12.0" font-weight="400" fill="#5f6368" text-anchor="middle">136.209</text>
<text x="2135.0" y="742.0" font-size="12.0" font-weight="400" fill="#5f6368" text-anchor="start">Mb</text>
<text x="2120.0" y="760.0" font-size="11.0" font-weight="400" fill="#5f6368" text-anchor="middle">chr end</text>
<rect x="1142.54" y="679.00" width="963.80" height="6.00" rx="0.00" fill="#111111" stroke="none" stroke-width="0.00" opacity="1.000"/>
<rect x="1939.41" y="691.00" width="6.32" height="30.00" rx="1.00" fill="#D95F02" stroke="none" stroke-width="0.00" opacity="0.950"/>
<rect x="1952.05" y="691.00" width="6.32" height="30.00" rx="1.00" fill="#D95F02" stroke="none" stroke-width="0.00" opacity="0.950"/>
<rect x="1971.01" y="691.00" width="12.64" height="30.00" rx="1.00" fill="#D95F02" stroke="none" stroke-width="0.00" opacity="0.950"/>
<rect x="1989.97" y="691.00" width="63.20" height="30.00" rx="1.00" fill="#D95F02" stroke="none" stroke-width="0.00" opacity="0.950"/>
<rect x="2059.49" y="691.00" width="6.32" height="30.00" rx="1.00" fill="#D95F02" stroke="none" stroke-width="0.00" opacity="0.950"/>
<rect x="2084.77" y="691.00" width="6.32" height="30.00" rx="1.00" fill="#D95F02" stroke="none" stroke-width="0.00" opacity="0.950"/>
<rect x="2103.73" y="691.00" width="6.32" height="30.00" rx="1.00" fill="#D95F02" stroke="none" stroke-width="0.00" opacity="0.950"/>
<text x="512.0" y="801.0" font-size="18.0" font-weight="700" fill="#222222" text-anchor="end">PAN011 haplotype 2 (father) chr3q</text>
<rect x="540.00" y="782.00" width="1580.00" height="20.00" rx="2.00" fill="#f4f5f6" stroke="#c8ccd0" stroke-width="1.00" opacity="1.000"/>
<line x1="2120.00" y1="779.00" x2="2120.00" y2="805.00" stroke="#111111" stroke-width="2.20" opacity="1.000"/>
<polygon points="532.00,784.00 532.00,800.00 515.00,792.00" fill="#9aa0a6" stroke="none" stroke-width="0.00" opacity="0.950"/>
<line x1="540.00" y1="802.00" x2="540.00" y2="812.00" stroke="#777777" stroke-width="0.80" opacity="1.000"/>
<text x="540.0" y="828.0" font-size="12.0" font-weight="400" fill="#5f6368" text-anchor="middle">205.079</text>
<line x1="856.00" y1="802.00" x2="856.00" y2="812.00" stroke="#777777" stroke-width="0.80" opacity="1.000"/>
<line x1="1172.00" y1="802.00" x2="1172.00" y2="812.00" stroke="#777777" stroke-width="0.80" opacity="1.000"/>
<text x="1172.0" y="828.0" font-size="12.0" font-weight="400" fill="#5f6368" text-anchor="middle">205.279</text>
<line x1="1488.00" y1="802.00" x2="1488.00" y2="812.00" stroke="#777777" stroke-width="0.80" opacity="1.000"/>
<line x1="1804.00" y1="802.00" x2="1804.00" y2="812.00" stroke="#777777" stroke-width="0.80" opacity="1.000"/>
<text x="1804.0" y="828.0" font-size="12.0" font-weight="400" fill="#5f6368" text-anchor="middle">205.479</text>
<line x1="2120.00" y1="802.00" x2="2120.00" y2="812.00" stroke="#777777" stroke-width="0.80" opacity="1.000"/>
<text x="2120.0" y="828.0" font-size="12.0" font-weight="400" fill="#5f6368" text-anchor="middle">205.579</text>
<text x="2135.0" y="828.0" font-size="12.0" font-weight="400" fill="#5f6368" text-anchor="start">Mb</text>
<text x="2120.0" y="846.0" font-size="11.0" font-weight="400" fill="#5f6368" text-anchor="middle">chr end</text>
<rect x="1319.59" y="811.00" width="790.00" height="6.00" rx="0.00" fill="#111111" stroke="none" stroke-width="0.00" opacity="1.000"/>
<rect x="2106.95" y="778.00" width="6.24" height="28.00" rx="1.00" fill="#D95F02" stroke="none" stroke-width="0.00" opacity="0.950"/>
<path d="M 2103.73 723.00 C 2103.73 746.40, 2106.95 751.60, 2106.95 775.00 L 2113.19 775.00 C 2113.19 751.60, 2110.05 746.40, 2110.05 723.00 Z" fill="#D95F02" stroke="none" stroke-width="0.00" opacity="0.300"/>
<rect x="2087.98" y="778.00" width="6.32" height="28.00" rx="1.00" fill="#D95F02" stroke="none" stroke-width="0.00" opacity="0.950"/>
<path d="M 2084.77 723.00 C 2084.77 746.40, 2087.98 751.60, 2087.98 775.00 L 2094.30 775.00 C 2094.30 751.60, 2091.09 746.40, 2091.09 723.00 Z" fill="#D95F02" stroke="none" stroke-width="0.00" opacity="0.300"/>
<rect x="2062.70" y="778.00" width="6.32" height="28.00" rx="1.00" fill="#D95F02" stroke="none" stroke-width="0.00" opacity="0.950"/>
<path d="M 2059.49 723.00 C 2059.49 746.40, 2062.70 751.60, 2062.70 775.00 L 2069.02 775.00 C 2069.02 751.60, 2065.81 746.40, 2065.81 723.00 Z" fill="#D95F02" stroke="none" stroke-width="0.00" opacity="0.300"/>
<rect x="1993.20" y="778.00" width="63.18" height="28.00" rx="1.00" fill="#D95F02" stroke="none" stroke-width="0.00" opacity="0.950"/>
<path d="M 1989.97 723.00 C 1989.97 746.40, 1993.20 751.60, 1993.20 775.00 L 2056.38 775.00 C 2056.38 751.60, 2053.17 746.40, 2053.17 723.00 Z" fill="#D95F02" stroke="none" stroke-width="0.00" opacity="0.300"/>
<rect x="1974.23" y="778.00" width="12.65" height="28.00" rx="1.00" fill="#D95F02" stroke="none" stroke-width="0.00" opacity="0.950"/>
<path d="M 1971.01 723.00 C 1971.01 746.40, 1974.23 751.60, 1974.23 775.00 L 1986.88 775.00 C 1986.88 751.60, 1983.65 746.40, 1983.65 723.00 Z" fill="#D95F02" stroke="none" stroke-width="0.00" opacity="0.300"/>
<rect x="1955.27" y="778.00" width="6.32" height="28.00" rx="1.00" fill="#D95F02" stroke="none" stroke-width="0.00" opacity="0.950"/>
<path d="M 1952.05 723.00 C 1952.05 746.40, 1955.27 751.60, 1955.27 775.00 L 1961.59 775.00 C 1961.59 751.60, 1958.37 746.40, 1958.37 723.00 Z" fill="#D95F02" stroke="none" stroke-width="0.00" opacity="0.300"/>
<rect x="1942.63" y="778.00" width="6.32" height="28.00" rx="1.00" fill="#D95F02" stroke="none" stroke-width="0.00" opacity="0.950"/>
<path d="M 1939.41 723.00 C 1939.41 746.40, 1942.63 751.60, 1942.63 775.00 L 1948.95 775.00 C 1948.95 751.60, 1945.73 746.40, 1945.73 723.00 Z" fill="#D95F02" stroke="none" stroke-width="0.00" opacity="0.300"/>
</svg>
