<svg xmlns="http://www.w3.org/2000/svg" width="2600" height="1168" viewBox="0 0 2600 1168">
<rect width="100%" height="100%" fill="white"/>
<style>text{font-family:Arial,Helvetica,sans-serif;dominant-baseline:alphabetic}</style>
<text x="68.0" y="48.0" font-size="27.0" font-weight="700" fill="#222222" text-anchor="start">Fig5 donor-recipient ribbon draft: PAN027 paternal hap2 vs father PAN011</text>
<text x="68.0" y="76.0" font-size="14.0" font-weight="400" fill="#5f6368" text-anchor="start">Recipient subtelomeric windows are PAN027#2; donor loci are PAN011 joint-haplotype intervals that win over the same-chromosome/homolog match.</text>
<text x="68.0" y="112.0" font-size="13.0" font-weight="700" fill="#5f6368" text-anchor="start">Recipient color / ribbon target:</text>
<rect x="310.00" y="99.00" width="14.00" height="14.00" rx="0.00" fill="#E7298A" stroke="none" stroke-width="1.00" opacity="1.000"/>
<text x="330.0" y="112.0" font-size="13.0" font-weight="400" fill="#222222" text-anchor="start">target chrY</text>
<rect x="500.00" y="99.00" width="14.00" height="14.00" rx="0.00" fill="#4E79A7" stroke="none" stroke-width="1.00" opacity="1.000"/>
<text x="520.0" y="112.0" font-size="13.0" font-weight="400" fill="#222222" text-anchor="start">target chr1</text>
<rect x="690.00" y="99.00" width="14.00" height="14.00" rx="0.00" fill="#D95F02" stroke="none" stroke-width="1.00" opacity="1.000"/>
<text x="710.0" y="112.0" font-size="13.0" font-weight="400" fill="#222222" text-anchor="start">target chr3</text>
<rect x="880.00" y="99.00" width="14.00" height="14.00" rx="0.00" fill="#9E9E9E" stroke="none" stroke-width="1.00" opacity="1.000"/>
<text x="900.0" y="112.0" font-size="13.0" font-weight="400" fill="#222222" text-anchor="start">other target, labeled</text>
<rect x="44.00" y="142.00" width="2512.00" height="180.00" rx="3.00" fill="#ffffff" stroke="#e0e2e4" stroke-width="0.80" opacity="1.000"/>
<text x="68.0" y="170.0" font-size="22.0" font-weight="700" fill="#222222" text-anchor="start">chrXp PAR1 recipient -&gt; chrY donor</text>
<text x="68.0" y="194.0" font-size="12.0" font-weight="400" fill="#5f6368" text-anchor="start">Ribbons use IMPG class-winning 2 kb windows; each donor row is one 500 kb PAN011 window containing one or more winning donor intervals.</text>
<text x="516.0" y="250.0" font-size="15.0" font-weight="700" fill="#222222" text-anchor="end">recipient chrXp PAR1</text>
<rect x="540.00" y="234.00" width="1580.00" height="18.00" rx="2.00" fill="#f4f5f6" stroke="#c8ccd0" stroke-width="1.00" opacity="1.000"/>
<line x1="540.00" y1="231.00" x2="540.00" y2="255.00" stroke="#111111" stroke-width="2.20" opacity="1.000"/>
<line x1="540.00" y1="252.00" x2="540.00" y2="262.00" stroke="#777777" stroke-width="0.80" opacity="1.000"/>
<text x="540.0" y="277.0" font-size="10.0" font-weight="400" fill="#5f6368" text-anchor="middle">0.000</text>
<line x1="856.00" y1="252.00" x2="856.00" y2="262.00" stroke="#777777" stroke-width="0.80" opacity="1.000"/>
<line x1="1172.00" y1="252.00" x2="1172.00" y2="262.00" stroke="#777777" stroke-width="0.80" opacity="1.000"/>
<text x="1172.0" y="277.0" font-size="10.0" font-weight="400" fill="#5f6368" text-anchor="middle">0.200</text>
<line x1="1488.00" y1="252.00" x2="1488.00" y2="262.00" stroke="#777777" stroke-width="0.80" opacity="1.000"/>
<line x1="1804.00" y1="252.00" x2="1804.00" y2="262.00" stroke="#777777" stroke-width="0.80" opacity="1.000"/>
<text x="1804.0" y="277.0" font-size="10.0" font-weight="400" fill="#5f6368" text-anchor="middle">0.400</text>
<line x1="2120.00" y1="252.00" x2="2120.00" y2="262.00" stroke="#777777" stroke-width="0.80" opacity="1.000"/>
<text x="2120.0" y="277.0" font-size="10.0" font-weight="400" fill="#5f6368" text-anchor="middle">0.500</text>
<text x="2132.0" y="277.0" font-size="10.0" font-weight="400" fill="#5f6368" text-anchor="start">Mb</text>
<text x="2120.0" y="294.0" font-size="10.0" font-weight="400" fill="#5f6368" text-anchor="middle">chr start</text>
<line x1="578.76" y1="224.00" x2="957.96" y2="224.00" stroke="#555555" stroke-width="1.10" opacity="1.000"/>
<line x1="578.76" y1="218.00" x2="578.76" y2="230.00" stroke="#555555" stroke-width="1.10" opacity="1.000"/>
<line x1="957.96" y1="218.00" x2="957.96" y2="230.00" stroke="#555555" stroke-width="1.10" opacity="1.000"/>
<rect x="584.24" y="229.00" width="290.72" height="28.00" rx="1.00" fill="#E7298A" stroke="none" stroke-width="0.00" opacity="0.950"/>
<rect x="887.60" y="229.00" width="145.36" height="28.00" rx="1.00" fill="#E7298A" stroke="none" stroke-width="0.00" opacity="0.950"/>
<rect x="1190.96" y="229.00" width="12.64" height="28.00" rx="1.00" fill="#E7298A" stroke="none" stroke-width="0.00" opacity="0.950"/>
<text x="729.6" y="213.0" font-size="11.0" font-weight="700" fill="#5f6368" text-anchor="middle">chrY h2</text>
<text x="960.3" y="213.0" font-size="11.0" font-weight="700" fill="#5f6368" text-anchor="middle">chrY h2</text>
<text x="1197.3" y="213.0" font-size="11.0" font-weight="700" fill="#5f6368" text-anchor="middle">chrY h2</text>
<text x="516.0" y="336.0" font-size="15.0" font-weight="700" fill="#222222" text-anchor="end">PAN011 h2 chrY donor</text>
<rect x="540.00" y="320.00" width="1580.00" height="18.00" rx="2.00" fill="#f4f5f6" stroke="#c8ccd0" stroke-width="1.00" opacity="1.000"/>
<line x1="540.00" y1="317.00" x2="540.00" y2="341.00" stroke="#111111" stroke-width="2.20" opacity="1.000"/>
<line x1="540.00" y1="338.00" x2="540.00" y2="348.00" stroke="#777777" stroke-width="0.80" opacity="1.000"/>
<text x="540.0" y="363.0" font-size="10.0" font-weight="400" fill="#5f6368" text-anchor="middle">0.000</text>
<line x1="856.00" y1="338.00" x2="856.00" y2="348.00" stroke="#777777" stroke-width="0.80" opacity="1.000"/>
<line x1="1172.00" y1="338.00" x2="1172.00" y2="348.00" stroke="#777777" stroke-width="0.80" opacity="1.000"/>
<text x="1172.0" y="363.0" font-size="10.0" font-weight="400" fill="#5f6368" text-anchor="middle">0.200</text>
<line x1="1488.00" y1="338.00" x2="1488.00" y2="348.00" stroke="#777777" stroke-width="0.80" opacity="1.000"/>
<line x1="1804.00" y1="338.00" x2="1804.00" y2="348.00" stroke="#777777" stroke-width="0.80" opacity="1.000"/>
<text x="1804.0" y="363.0" font-size="10.0" font-weight="400" fill="#5f6368" text-anchor="middle">0.400</text>
<line x1="2120.00" y1="338.00" x2="2120.00" y2="348.00" stroke="#777777" stroke-width="0.80" opacity="1.000"/>
<text x="2120.0" y="363.0" font-size="10.0" font-weight="400" fill="#5f6368" text-anchor="middle">0.500</text>
<text x="2132.0" y="363.0" font-size="10.0" font-weight="400" fill="#5f6368" text-anchor="start">Mb</text>
<text x="2120.0" y="380.0" font-size="10.0" font-weight="400" fill="#5f6368" text-anchor="middle">chr start</text>
<text x="2150.0" y="336.0" font-size="11.0" font-weight="400" fill="#5f6368" text-anchor="start">0.008-0.205 Mb; 142 kb support; 3 run(s)</text>
<rect x="563.96" y="316.00" width="290.73" height="26.00" rx="1.00" fill="#E7298A" stroke="none" stroke-width="0.00" opacity="0.950"/>
<path d="M 584.24 259.00 C 584.24 283.30, 563.96 288.70, 563.96 313.00 L 854.69 313.00 C 854.69 288.70, 874.96 283.30, 874.96 259.00 Z" fill="#E7298A" stroke="none" stroke-width="0.00" opacity="0.300"/>
<rect x="867.33" y="316.00" width="145.36" height="26.00" rx="1.00" fill="#E7298A" stroke="none" stroke-width="0.00" opacity="0.950"/>
<path d="M 887.60 259.00 C 887.60 283.30, 867.33 288.70, 867.33 313.00 L 1012.69 313.00 C 1012.69 288.70, 1032.96 283.30, 1032.96 259.00 Z" fill="#E7298A" stroke="none" stroke-width="0.00" opacity="0.300"/>
<rect x="1176.17" y="316.00" width="12.64" height="26.00" rx="1.00" fill="#E7298A" stroke="none" stroke-width="0.00" opacity="0.950"/>
<path d="M 1190.96 259.00 C 1190.96 283.30, 1176.17 288.70, 1176.17 313.00 L 1188.81 313.00 C 1188.81 288.70, 1203.60 283.30, 1203.60 259.00 Z" fill="#E7298A" stroke="none" stroke-width="0.00" opacity="0.300"/>
<rect x="44.00" y="400.00" width="2512.00" height="262.00" rx="3.00" fill="#ffffff" stroke="#e0e2e4" stroke-width="0.80" opacity="1.000"/>
<text x="68.0" y="428.0" font-size="22.0" font-weight="700" fill="#222222" text-anchor="start">chr5q recipient -&gt; chr1-dominant donor set</text>
<text x="68.0" y="452.0" font-size="12.0" font-weight="400" fill="#5f6368" text-anchor="start">Ribbons use IMPG class-winning 2 kb windows; each donor row is one 500 kb PAN011 window containing one or more winning donor intervals.</text>
<text x="516.0" y="508.0" font-size="15.0" font-weight="700" fill="#222222" text-anchor="end">recipient chr5q</text>
<rect x="540.00" y="492.00" width="1580.00" height="18.00" rx="2.00" fill="#f4f5f6" stroke="#c8ccd0" stroke-width="1.00" opacity="1.000"/>
<line x1="2120.00" y1="489.00" x2="2120.00" y2="513.00" stroke="#111111" stroke-width="2.20" opacity="1.000"/>
<line x1="540.00" y1="510.00" x2="540.00" y2="520.00" stroke="#777777" stroke-width="0.80" opacity="1.000"/>
<text x="540.0" y="535.0" font-size="10.0" font-weight="400" fill="#5f6368" text-anchor="middle">181.650</text>
<line x1="856.00" y1="510.00" x2="856.00" y2="520.00" stroke="#777777" stroke-width="0.80" opacity="1.000"/>
<line x1="1172.00" y1="510.00" x2="1172.00" y2="520.00" stroke="#777777" stroke-width="0.80" opacity="1.000"/>
<text x="1172.0" y="535.0" font-size="10.0" font-weight="400" fill="#5f6368" text-anchor="middle">181.850</text>
<line x1="1488.00" y1="510.00" x2="1488.00" y2="520.00" stroke="#777777" stroke-width="0.80" opacity="1.000"/>
<line x1="1804.00" y1="510.00" x2="1804.00" y2="520.00" stroke="#777777" stroke-width="0.80" opacity="1.000"/>
<text x="1804.0" y="535.0" font-size="10.0" font-weight="400" fill="#5f6368" text-anchor="middle">182.050</text>
<line x1="2120.00" y1="510.00" x2="2120.00" y2="520.00" stroke="#777777" stroke-width="0.80" opacity="1.000"/>
<text x="2120.0" y="535.0" font-size="10.0" font-weight="400" fill="#5f6368" text-anchor="middle">182.150</text>
<text x="2132.0" y="535.0" font-size="10.0" font-weight="400" fill="#5f6368" text-anchor="start">Mb</text>
<text x="2120.0" y="552.0" font-size="10.0" font-weight="400" fill="#5f6368" text-anchor="middle">chr end</text>
<line x1="1502.92" y1="482.00" x2="2087.52" y2="482.00" stroke="#555555" stroke-width="1.10" opacity="1.000"/>
<line x1="1502.92" y1="476.00" x2="1502.92" y2="488.00" stroke="#555555" stroke-width="1.10" opacity="1.000"/>
<line x1="2087.52" y1="476.00" x2="2087.52" y2="488.00" stroke="#555555" stroke-width="1.10" opacity="1.000"/>
<rect x="1608.49" y="487.00" width="6.32" height="28.00" rx="1.00" fill="#4E79A7" stroke="none" stroke-width="0.00" opacity="0.950"/>
<rect x="1671.69" y="487.00" width="6.32" height="28.00" rx="1.00" fill="#4E79A7" stroke="none" stroke-width="0.00" opacity="0.950"/>
<rect x="1678.01" y="487.00" width="37.92" height="28.00" rx="1.00" fill="#4E79A7" stroke="none" stroke-width="0.00" opacity="0.950"/>
<rect x="1722.25" y="487.00" width="6.32" height="28.00" rx="1.00" fill="#4E79A7" stroke="none" stroke-width="0.00" opacity="0.950"/>
<rect x="1734.89" y="487.00" width="12.64" height="28.00" rx="1.00" fill="#4E79A7" stroke="none" stroke-width="0.00" opacity="0.950"/>
<rect x="1753.85" y="487.00" width="18.96" height="28.00" rx="1.00" fill="#4E79A7" stroke="none" stroke-width="0.00" opacity="0.950"/>
<rect x="1810.73" y="487.00" width="88.48" height="28.00" rx="1.00" fill="#4E79A7" stroke="none" stroke-width="0.00" opacity="0.950"/>
<rect x="1930.81" y="487.00" width="25.28" height="28.00" rx="1.00" fill="#4E79A7" stroke="none" stroke-width="0.00" opacity="0.950"/>
<rect x="1962.41" y="487.00" width="12.64" height="28.00" rx="1.00" fill="#4E79A7" stroke="none" stroke-width="0.00" opacity="0.950"/>
<rect x="2012.97" y="487.00" width="6.32" height="28.00" rx="1.00" fill="#4E79A7" stroke="none" stroke-width="0.00" opacity="0.950"/>
<text x="1611.6" y="471.0" font-size="11.0" font-weight="700" fill="#5f6368" text-anchor="middle">chr1 h2</text>
<text x="1674.8" y="471.0" font-size="11.0" font-weight="700" fill="#5f6368" text-anchor="middle">chr1 h1</text>
<text x="1697.0" y="458.0" font-size="11.0" font-weight="700" fill="#5f6368" text-anchor="middle">chr1 h2</text>
<text x="1725.4" y="445.0" font-size="11.0" font-weight="700" fill="#5f6368" text-anchor="middle">chr1 h2</text>
<text x="1741.2" y="471.0" font-size="11.0" font-weight="700" fill="#5f6368" text-anchor="middle">chr1 h2</text>
<text x="1763.3" y="458.0" font-size="11.0" font-weight="700" fill="#5f6368" text-anchor="middle">chr1 h2</text>
<text x="1855.0" y="471.0" font-size="11.0" font-weight="700" fill="#5f6368" text-anchor="middle">chr1 h2</text>
<text x="1943.4" y="471.0" font-size="11.0" font-weight="700" fill="#5f6368" text-anchor="middle">chr1 h2</text>
<text x="1968.7" y="458.0" font-size="11.0" font-weight="700" fill="#5f6368" text-anchor="middle">chr1 h2</text>
<text x="2016.1" y="471.0" font-size="11.0" font-weight="700" fill="#5f6368" text-anchor="middle">chr1 h2</text>
<text x="516.0" y="594.0" font-size="15.0" font-weight="700" fill="#222222" text-anchor="end">PAN011 h2 chr1 donor</text>
<rect x="540.00" y="578.00" width="1580.00" height="18.00" rx="2.00" fill="#f4f5f6" stroke="#c8ccd0" stroke-width="1.00" opacity="1.000"/>
<line x1="540.00" y1="575.00" x2="540.00" y2="599.00" stroke="#111111" stroke-width="2.20" opacity="1.000"/>
<line x1="540.00" y1="596.00" x2="540.00" y2="606.00" stroke="#777777" stroke-width="0.80" opacity="1.000"/>
<text x="540.0" y="621.0" font-size="10.0" font-weight="400" fill="#5f6368" text-anchor="middle">0.000</text>
<line x1="856.00" y1="596.00" x2="856.00" y2="606.00" stroke="#777777" stroke-width="0.80" opacity="1.000"/>
<line x1="1172.00" y1="596.00" x2="1172.00" y2="606.00" stroke="#777777" stroke-width="0.80" opacity="1.000"/>
<text x="1172.0" y="621.0" font-size="10.0" font-weight="400" fill="#5f6368" text-anchor="middle">0.200</text>
<line x1="1488.00" y1="596.00" x2="1488.00" y2="606.00" stroke="#777777" stroke-width="0.80" opacity="1.000"/>
<line x1="1804.00" y1="596.00" x2="1804.00" y2="606.00" stroke="#777777" stroke-width="0.80" opacity="1.000"/>
<text x="1804.0" y="621.0" font-size="10.0" font-weight="400" fill="#5f6368" text-anchor="middle">0.400</text>
<line x1="2120.00" y1="596.00" x2="2120.00" y2="606.00" stroke="#777777" stroke-width="0.80" opacity="1.000"/>
<text x="2120.0" y="621.0" font-size="10.0" font-weight="400" fill="#5f6368" text-anchor="middle">0.500</text>
<text x="2132.0" y="621.0" font-size="10.0" font-weight="400" fill="#5f6368" text-anchor="start">Mb</text>
<text x="2120.0" y="638.0" font-size="10.0" font-weight="400" fill="#5f6368" text-anchor="middle">chr start</text>
<text x="2150.0" y="594.0" font-size="11.0" font-weight="400" fill="#5f6368" text-anchor="start">0.025-0.151 Mb; 68 kb support; 9 run(s)</text>
<rect x="620.23" y="574.00" width="6.19" height="26.00" rx="1.00" fill="#4E79A7" stroke="none" stroke-width="0.00" opacity="0.950"/>
<path d="M 2012.97 517.00 C 2012.97 541.30, 620.23 546.70, 620.23 571.00 L 626.42 571.00 C 626.42 546.70, 2019.29 541.30, 2019.29 517.00 Z" fill="#4E79A7" stroke="none" stroke-width="0.00" opacity="0.300"/>
<rect x="671.35" y="574.00" width="9.51" height="26.00" rx="1.00" fill="#4E79A7" stroke="none" stroke-width="0.00" opacity="0.950"/>
<path d="M 1962.41 517.00 C 1962.41 541.30, 671.35 546.70, 671.35 571.00 L 680.86 571.00 C 680.86 546.70, 1975.05 541.30, 1975.05 517.00 Z" fill="#4E79A7" stroke="none" stroke-width="0.00" opacity="0.300"/>
<rect x="687.18" y="574.00" width="25.27" height="26.00" rx="1.00" fill="#4E79A7" stroke="none" stroke-width="0.00" opacity="0.950"/>
<path d="M 1930.81 517.00 C 1930.81 541.30, 687.18 546.70, 687.18 571.00 L 712.44 571.00 C 712.44 546.70, 1956.09 541.30, 1956.09 517.00 Z" fill="#4E79A7" stroke="none" stroke-width="0.00" opacity="0.300"/>
<rect x="762.53" y="574.00" width="88.46" height="26.00" rx="1.00" fill="#4E79A7" stroke="none" stroke-width="0.00" opacity="0.950"/>
<path d="M 1810.73 517.00 C 1810.73 541.30, 762.53 546.70, 762.53 571.00 L 850.99 571.00 C 850.99 546.70, 1899.21 541.30, 1899.21 517.00 Z" fill="#4E79A7" stroke="none" stroke-width="0.00" opacity="0.300"/>
<rect x="850.52" y="574.00" width="18.95" height="26.00" rx="1.00" fill="#4E79A7" stroke="none" stroke-width="0.00" opacity="0.950"/>
<path d="M 1753.85 517.00 C 1753.85 541.30, 850.52 546.70, 850.52 571.00 L 869.47 571.00 C 869.47 546.70, 1772.81 541.30, 1772.81 517.00 Z" fill="#4E79A7" stroke="none" stroke-width="0.00" opacity="0.300"/>
<rect x="875.79" y="574.00" width="12.64" height="26.00" rx="1.00" fill="#4E79A7" stroke="none" stroke-width="0.00" opacity="0.950"/>
<path d="M 1734.89 517.00 C 1734.89 541.30, 875.79 546.70, 875.79 571.00 L 888.43 571.00 C 888.43 546.70, 1747.53 541.30, 1747.53 517.00 Z" fill="#4E79A7" stroke="none" stroke-width="0.00" opacity="0.300"/>
<rect x="894.75" y="574.00" width="6.32" height="26.00" rx="1.00" fill="#4E79A7" stroke="none" stroke-width="0.00" opacity="0.950"/>
<path d="M 1722.25 517.00 C 1722.25 541.30, 894.75 546.70, 894.75 571.00 L 901.07 571.00 C 901.07 546.70, 1728.57 541.30, 1728.57 517.00 Z" fill="#4E79A7" stroke="none" stroke-width="0.00" opacity="0.300"/>
<rect x="907.39" y="574.00" width="37.92" height="26.00" rx="1.00" fill="#4E79A7" stroke="none" stroke-width="0.00" opacity="0.950"/>
<path d="M 1678.01 517.00 C 1678.01 541.30, 907.39 546.70, 907.39 571.00 L 945.32 571.00 C 945.32 546.70, 1715.93 541.30, 1715.93 517.00 Z" fill="#4E79A7" stroke="none" stroke-width="0.00" opacity="0.300"/>
<rect x="1009.53" y="574.00" width="6.31" height="26.00" rx="1.00" fill="#4E79A7" stroke="none" stroke-width="0.00" opacity="0.950"/>
<path d="M 1608.49 517.00 C 1608.49 541.30, 1009.53 546.70, 1009.53 571.00 L 1015.84 571.00 C 1015.84 546.70, 1614.81 541.30, 1614.81 517.00 Z" fill="#4E79A7" stroke="none" stroke-width="0.00" opacity="0.300"/>
<text x="516.0" y="642.0" font-size="15.0" font-weight="700" fill="#222222" text-anchor="end">PAN011 h1 chr1 donor</text>
<rect x="540.00" y="626.00" width="1580.00" height="18.00" rx="2.00" fill="#f4f5f6" stroke="#c8ccd0" stroke-width="1.00" opacity="1.000"/>
<line x1="540.00" y1="623.00" x2="540.00" y2="647.00" stroke="#111111" stroke-width="2.20" opacity="1.000"/>
<line x1="540.00" y1="644.00" x2="540.00" y2="654.00" stroke="#777777" stroke-width="0.80" opacity="1.000"/>
<text x="540.0" y="669.0" font-size="10.0" font-weight="400" fill="#5f6368" text-anchor="middle">0.000</text>
<line x1="856.00" y1="644.00" x2="856.00" y2="654.00" stroke="#777777" stroke-width="0.80" opacity="1.000"/>
<line x1="1172.00" y1="644.00" x2="1172.00" y2="654.00" stroke="#777777" stroke-width="0.80" opacity="1.000"/>
<text x="1172.0" y="669.0" font-size="10.0" font-weight="400" fill="#5f6368" text-anchor="middle">0.200</text>
<line x1="1488.00" y1="644.00" x2="1488.00" y2="654.00" stroke="#777777" stroke-width="0.80" opacity="1.000"/>
<line x1="1804.00" y1="644.00" x2="1804.00" y2="654.00" stroke="#777777" stroke-width="0.80" opacity="1.000"/>
<text x="1804.0" y="669.0" font-size="10.0" font-weight="400" fill="#5f6368" text-anchor="middle">0.400</text>
<line x1="2120.00" y1="644.00" x2="2120.00" y2="654.00" stroke="#777777" stroke-width="0.80" opacity="1.000"/>
<text x="2120.0" y="669.0" font-size="10.0" font-weight="400" fill="#5f6368" text-anchor="middle">0.500</text>
<text x="2132.0" y="669.0" font-size="10.0" font-weight="400" fill="#5f6368" text-anchor="start">Mb</text>
<text x="2120.0" y="686.0" font-size="10.0" font-weight="400" fill="#5f6368" text-anchor="middle">chr start</text>
<text x="2150.0" y="642.0" font-size="11.0" font-weight="400" fill="#5f6368" text-anchor="start">0.124-0.126 Mb; 2 kb support; 1 run(s)</text>
<rect x="931.12" y="622.00" width="6.32" height="26.00" rx="1.00" fill="#4E79A7" stroke="none" stroke-width="0.00" opacity="0.950"/>
<path d="M 1671.69 517.00 C 1671.69 562.90, 931.12 573.10, 931.12 619.00 L 937.44 619.00 C 937.44 573.10, 1678.01 562.90, 1678.01 517.00 Z" fill="#4E79A7" stroke="none" stroke-width="0.00" opacity="0.300"/>
<text x="540.0" y="690.0" font-size="12.0" font-weight="400" fill="#5f6368" text-anchor="start">Grey singletons not ribboned as donor rows: chr11 h2 4 kb, chr17 h2 4 kb, chr19 h2 2 kb, chr6 h1 2 kb, chr6 h2 14 kb, chr7 h1 2 kb, chr8 h2 2 kb</text>
<rect x="44.00" y="740.00" width="2512.00" height="262.00" rx="3.00" fill="#ffffff" stroke="#e0e2e4" stroke-width="0.80" opacity="1.000"/>
<text x="68.0" y="768.0" font-size="22.0" font-weight="700" fill="#222222" text-anchor="start">chr9q recipient -&gt; chr3q-dominant donor set</text>
<text x="68.0" y="792.0" font-size="12.0" font-weight="400" fill="#5f6368" text-anchor="start">Ribbons use IMPG class-winning 2 kb windows; each donor row is one 500 kb PAN011 window containing one or more winning donor intervals.</text>
<text x="516.0" y="848.0" font-size="15.0" font-weight="700" fill="#222222" text-anchor="end">recipient chr9q</text>
<rect x="540.00" y="832.00" width="1580.00" height="18.00" rx="2.00" fill="#f4f5f6" stroke="#c8ccd0" stroke-width="1.00" opacity="1.000"/>
<line x1="2120.00" y1="829.00" x2="2120.00" y2="853.00" stroke="#111111" stroke-width="2.20" opacity="1.000"/>
<line x1="540.00" y1="850.00" x2="540.00" y2="860.00" stroke="#777777" stroke-width="0.80" opacity="1.000"/>
<text x="540.0" y="875.0" font-size="10.0" font-weight="400" fill="#5f6368" text-anchor="middle">135.709</text>
<line x1="856.00" y1="850.00" x2="856.00" y2="860.00" stroke="#777777" stroke-width="0.80" opacity="1.000"/>
<line x1="1172.00" y1="850.00" x2="1172.00" y2="860.00" stroke="#777777" stroke-width="0.80" opacity="1.000"/>
<text x="1172.0" y="875.0" font-size="10.0" font-weight="400" fill="#5f6368" text-anchor="middle">135.909</text>
<line x1="1488.00" y1="850.00" x2="1488.00" y2="860.00" stroke="#777777" stroke-width="0.80" opacity="1.000"/>
<line x1="1804.00" y1="850.00" x2="1804.00" y2="860.00" stroke="#777777" stroke-width="0.80" opacity="1.000"/>
<text x="1804.0" y="875.0" font-size="10.0" font-weight="400" fill="#5f6368" text-anchor="middle">136.109</text>
<line x1="2120.00" y1="850.00" x2="2120.00" y2="860.00" stroke="#777777" stroke-width="0.80" opacity="1.000"/>
<text x="2120.0" y="875.0" font-size="10.0" font-weight="400" fill="#5f6368" text-anchor="middle">136.209</text>
<text x="2132.0" y="875.0" font-size="10.0" font-weight="400" fill="#5f6368" text-anchor="start">Mb</text>
<text x="2120.0" y="892.0" font-size="10.0" font-weight="400" fill="#5f6368" text-anchor="middle">chr end</text>
<line x1="1142.54" y1="822.00" x2="2106.34" y2="822.00" stroke="#555555" stroke-width="1.10" opacity="1.000"/>
<line x1="1142.54" y1="816.00" x2="1142.54" y2="828.00" stroke="#555555" stroke-width="1.10" opacity="1.000"/>
<line x1="2106.34" y1="816.00" x2="2106.34" y2="828.00" stroke="#555555" stroke-width="1.10" opacity="1.000"/>
<rect x="1939.41" y="827.00" width="6.32" height="28.00" rx="1.00" fill="#D95F02" stroke="none" stroke-width="0.00" opacity="0.950"/>
<rect x="1952.05" y="827.00" width="6.32" height="28.00" rx="1.00" fill="#D95F02" stroke="none" stroke-width="0.00" opacity="0.950"/>
<rect x="1971.01" y="827.00" width="12.64" height="28.00" rx="1.00" fill="#D95F02" stroke="none" stroke-width="0.00" opacity="0.950"/>
<rect x="1989.97" y="827.00" width="63.20" height="28.00" rx="1.00" fill="#D95F02" stroke="none" stroke-width="0.00" opacity="0.950"/>
<rect x="2059.49" y="827.00" width="6.32" height="28.00" rx="1.00" fill="#D95F02" stroke="none" stroke-width="0.00" opacity="0.950"/>
<rect x="2084.77" y="827.00" width="6.32" height="28.00" rx="1.00" fill="#D95F02" stroke="none" stroke-width="0.00" opacity="0.950"/>
<rect x="2091.09" y="827.00" width="12.64" height="28.00" rx="1.00" fill="#9E9E9E" stroke="none" stroke-width="0.00" opacity="0.950"/>
<rect x="2103.73" y="827.00" width="6.32" height="28.00" rx="1.00" fill="#D95F02" stroke="none" stroke-width="0.00" opacity="0.950"/>
<text x="1942.6" y="811.0" font-size="11.0" font-weight="700" fill="#5f6368" text-anchor="middle">chr3 h2</text>
<text x="1955.2" y="798.0" font-size="11.0" font-weight="700" fill="#5f6368" text-anchor="middle">chr3 h2</text>
<text x="1977.3" y="785.0" font-size="11.0" font-weight="700" fill="#5f6368" text-anchor="middle">chr3 h2</text>
<text x="2021.6" y="811.0" font-size="11.0" font-weight="700" fill="#5f6368" text-anchor="middle">chr3 h2</text>
<text x="2062.6" y="798.0" font-size="11.0" font-weight="700" fill="#5f6368" text-anchor="middle">chr3 h2</text>
<text x="2087.9" y="811.0" font-size="11.0" font-weight="700" fill="#5f6368" text-anchor="middle">chr3 h2</text>
<text x="2097.4" y="785.0" font-size="11.0" font-weight="700" fill="#5f6368" text-anchor="middle">other: chr7 h2</text>
<text x="516.0" y="934.0" font-size="15.0" font-weight="700" fill="#222222" text-anchor="end">PAN011 h2 chr3 donor</text>
<rect x="540.00" y="918.00" width="1580.00" height="18.00" rx="2.00" fill="#f4f5f6" stroke="#c8ccd0" stroke-width="1.00" opacity="1.000"/>
<line x1="2120.00" y1="915.00" x2="2120.00" y2="939.00" stroke="#111111" stroke-width="2.20" opacity="1.000"/>
<line x1="540.00" y1="936.00" x2="540.00" y2="946.00" stroke="#777777" stroke-width="0.80" opacity="1.000"/>
<text x="540.0" y="961.0" font-size="10.0" font-weight="400" fill="#5f6368" text-anchor="middle">205.079</text>
<line x1="856.00" y1="936.00" x2="856.00" y2="946.00" stroke="#777777" stroke-width="0.80" opacity="1.000"/>
<line x1="1172.00" y1="936.00" x2="1172.00" y2="946.00" stroke="#777777" stroke-width="0.80" opacity="1.000"/>
<text x="1172.0" y="961.0" font-size="10.0" font-weight="400" fill="#5f6368" text-anchor="middle">205.279</text>
<line x1="1488.00" y1="936.00" x2="1488.00" y2="946.00" stroke="#777777" stroke-width="0.80" opacity="1.000"/>
<line x1="1804.00" y1="936.00" x2="1804.00" y2="946.00" stroke="#777777" stroke-width="0.80" opacity="1.000"/>
<text x="1804.0" y="961.0" font-size="10.0" font-weight="400" fill="#5f6368" text-anchor="middle">205.479</text>
<line x1="2120.00" y1="936.00" x2="2120.00" y2="946.00" stroke="#777777" stroke-width="0.80" opacity="1.000"/>
<text x="2120.0" y="961.0" font-size="10.0" font-weight="400" fill="#5f6368" text-anchor="middle">205.579</text>
<text x="2132.0" y="961.0" font-size="10.0" font-weight="400" fill="#5f6368" text-anchor="start">Mb</text>
<text x="2120.0" y="978.0" font-size="10.0" font-weight="400" fill="#5f6368" text-anchor="middle">chr end</text>
<text x="2150.0" y="934.0" font-size="11.0" font-weight="400" fill="#5f6368" text-anchor="start">205.523-205.577 Mb; 34 kb support; 7 run(s)</text>
<rect x="2106.95" y="914.00" width="6.24" height="26.00" rx="1.00" fill="#D95F02" stroke="none" stroke-width="0.00" opacity="0.950"/>
<path d="M 2103.73 857.00 C 2103.73 881.30, 2106.95 886.70, 2106.95 911.00 L 2113.19 911.00 C 2113.19 886.70, 2110.05 881.30, 2110.05 857.00 Z" fill="#D95F02" stroke="none" stroke-width="0.00" opacity="0.300"/>
<rect x="2087.98" y="914.00" width="6.32" height="26.00" rx="1.00" fill="#D95F02" stroke="none" stroke-width="0.00" opacity="0.950"/>
<path d="M 2084.77 857.00 C 2084.77 881.30, 2087.98 886.70, 2087.98 911.00 L 2094.30 911.00 C 2094.30 886.70, 2091.09 881.30, 2091.09 857.00 Z" fill="#D95F02" stroke="none" stroke-width="0.00" opacity="0.300"/>
<rect x="2062.70" y="914.00" width="6.32" height="26.00" rx="1.00" fill="#D95F02" stroke="none" stroke-width="0.00" opacity="0.950"/>
<path d="M 2059.49 857.00 C 2059.49 881.30, 2062.70 886.70, 2062.70 911.00 L 2069.02 911.00 C 2069.02 886.70, 2065.81 881.30, 2065.81 857.00 Z" fill="#D95F02" stroke="none" stroke-width="0.00" opacity="0.300"/>
<rect x="1993.20" y="914.00" width="63.18" height="26.00" rx="1.00" fill="#D95F02" stroke="none" stroke-width="0.00" opacity="0.950"/>
<path d="M 1989.97 857.00 C 1989.97 881.30, 1993.20 886.70, 1993.20 911.00 L 2056.38 911.00 C 2056.38 886.70, 2053.17 881.30, 2053.17 857.00 Z" fill="#D95F02" stroke="none" stroke-width="0.00" opacity="0.300"/>
<rect x="1974.23" y="914.00" width="12.65" height="26.00" rx="1.00" fill="#D95F02" stroke="none" stroke-width="0.00" opacity="0.950"/>
<path d="M 1971.01 857.00 C 1971.01 881.30, 1974.23 886.70, 1974.23 911.00 L 1986.88 911.00 C 1986.88 886.70, 1983.65 881.30, 1983.65 857.00 Z" fill="#D95F02" stroke="none" stroke-width="0.00" opacity="0.300"/>
<rect x="1955.27" y="914.00" width="6.32" height="26.00" rx="1.00" fill="#D95F02" stroke="none" stroke-width="0.00" opacity="0.950"/>
<path d="M 1952.05 857.00 C 1952.05 881.30, 1955.27 886.70, 1955.27 911.00 L 1961.59 911.00 C 1961.59 886.70, 1958.37 881.30, 1958.37 857.00 Z" fill="#D95F02" stroke="none" stroke-width="0.00" opacity="0.300"/>
<rect x="1942.63" y="914.00" width="6.32" height="26.00" rx="1.00" fill="#D95F02" stroke="none" stroke-width="0.00" opacity="0.950"/>
<path d="M 1939.41 857.00 C 1939.41 881.30, 1942.63 886.70, 1942.63 911.00 L 1948.95 911.00 C 1948.95 886.70, 1945.73 881.30, 1945.73 857.00 Z" fill="#D95F02" stroke="none" stroke-width="0.00" opacity="0.300"/>
<text x="516.0" y="982.0" font-size="15.0" font-weight="700" fill="#222222" text-anchor="end">PAN011 h2 chr7 donor</text>
<rect x="540.00" y="966.00" width="1580.00" height="18.00" rx="2.00" fill="#f4f5f6" stroke="#c8ccd0" stroke-width="1.00" opacity="1.000"/>
<line x1="540.00" y1="963.00" x2="540.00" y2="987.00" stroke="#111111" stroke-width="2.20" opacity="1.000"/>
<line x1="540.00" y1="984.00" x2="540.00" y2="994.00" stroke="#777777" stroke-width="0.80" opacity="1.000"/>
<text x="540.0" y="1009.0" font-size="10.0" font-weight="400" fill="#5f6368" text-anchor="middle">0.000</text>
<line x1="856.00" y1="984.00" x2="856.00" y2="994.00" stroke="#777777" stroke-width="0.80" opacity="1.000"/>
<line x1="1172.00" y1="984.00" x2="1172.00" y2="994.00" stroke="#777777" stroke-width="0.80" opacity="1.000"/>
<text x="1172.0" y="1009.0" font-size="10.0" font-weight="400" fill="#5f6368" text-anchor="middle">0.200</text>
<line x1="1488.00" y1="984.00" x2="1488.00" y2="994.00" stroke="#777777" stroke-width="0.80" opacity="1.000"/>
<line x1="1804.00" y1="984.00" x2="1804.00" y2="994.00" stroke="#777777" stroke-width="0.80" opacity="1.000"/>
<text x="1804.0" y="1009.0" font-size="10.0" font-weight="400" fill="#5f6368" text-anchor="middle">0.400</text>
<line x1="2120.00" y1="984.00" x2="2120.00" y2="994.00" stroke="#777777" stroke-width="0.80" opacity="1.000"/>
<text x="2120.0" y="1009.0" font-size="10.0" font-weight="400" fill="#5f6368" text-anchor="middle">0.500</text>
<text x="2132.0" y="1009.0" font-size="10.0" font-weight="400" fill="#5f6368" text-anchor="start">Mb</text>
<text x="2120.0" y="1026.0" font-size="10.0" font-weight="400" fill="#5f6368" text-anchor="middle">chr start</text>
<text x="2150.0" y="982.0" font-size="11.0" font-weight="400" fill="#5f6368" text-anchor="start">0.006-0.010 Mb; 4 kb support; 1 run(s)</text>
<rect x="557.61" y="962.00" width="12.64" height="26.00" rx="1.00" fill="#9E9E9E" stroke="none" stroke-width="0.00" opacity="0.950"/>
<path d="M 2091.09 857.00 C 2091.09 902.90, 557.61 913.10, 557.61 959.00 L 570.25 959.00 C 570.25 913.10, 2103.73 902.90, 2103.73 857.00 Z" fill="#9E9E9E" stroke="none" stroke-width="0.00" opacity="0.240"/>
<text x="540.0" y="1030.0" font-size="12.0" font-weight="400" fill="#5f6368" text-anchor="start">Grey singletons not ribboned as donor rows: chr11 h1 4 kb, chr19 h2 6 kb, chr7 h2 2 kb</text>
</svg>
