<svg xmlns="http://www.w3.org/2000/svg" width="2600" height="954" viewBox="0 0 2600 954">
<rect width="100%" height="100%" fill="white"/>
<style>text{font-family:Arial,Helvetica,sans-serif;dominant-baseline:alphabetic}</style>
<text x="68.0" y="54.0" font-size="31.0" font-weight="700" fill="#222222" text-anchor="start">Fig5 donor-recipient ribbon draft: PAN027 paternal haplotype (child) vs PAN011 (father)</text>
<rect x="44.00" y="104.00" width="2512.00" height="176.00" rx="3.00" fill="#ffffff" stroke="#e0e2e4" stroke-width="0.80" opacity="1.000"/>
<text x="68.0" y="134.0" font-size="25.0" font-weight="700" fill="#222222" text-anchor="start">chrXp child recipient &lt;- chrYp father donor</text>
<text x="512.0" y="215.0" font-size="18.0" font-weight="700" fill="#222222" text-anchor="end">PAN027 paternal haplotype (child) chrXp</text>
<rect x="540.00" y="196.00" width="1580.00" height="20.00" rx="2.00" fill="#f4f5f6" stroke="#c8ccd0" stroke-width="1.00" opacity="1.000"/>
<line x1="540.00" y1="193.00" x2="540.00" y2="219.00" stroke="#111111" stroke-width="2.20" opacity="1.000"/>
<polygon points="2128.00,198.00 2128.00,214.00 2145.00,206.00" fill="#9aa0a6" stroke="none" stroke-width="0.00" opacity="0.950"/>
<line x1="540.00" y1="216.00" x2="540.00" y2="226.00" stroke="#777777" stroke-width="0.80" opacity="1.000"/>
<text x="540.0" y="242.0" font-size="12.0" font-weight="400" fill="#5f6368" text-anchor="middle">0.000</text>
<line x1="856.00" y1="216.00" x2="856.00" y2="226.00" stroke="#777777" stroke-width="0.80" opacity="1.000"/>
<line x1="1172.00" y1="216.00" x2="1172.00" y2="226.00" stroke="#777777" stroke-width="0.80" opacity="1.000"/>
<text x="1172.0" y="242.0" font-size="12.0" font-weight="400" fill="#5f6368" text-anchor="middle">0.200</text>
<line x1="1488.00" y1="216.00" x2="1488.00" y2="226.00" stroke="#777777" stroke-width="0.80" opacity="1.000"/>
<line x1="1804.00" y1="216.00" x2="1804.00" y2="226.00" stroke="#777777" stroke-width="0.80" opacity="1.000"/>
<text x="1804.0" y="242.0" font-size="12.0" font-weight="400" fill="#5f6368" text-anchor="middle">0.400</text>
<line x1="2120.00" y1="216.00" x2="2120.00" y2="226.00" stroke="#777777" stroke-width="0.80" opacity="1.000"/>
<text x="2120.0" y="242.0" font-size="12.0" font-weight="400" fill="#5f6368" text-anchor="middle">0.500</text>
<text x="2135.0" y="242.0" font-size="12.0" font-weight="400" fill="#5f6368" text-anchor="start">Mb</text>
<text x="2120.0" y="260.0" font-size="11.0" font-weight="400" fill="#5f6368" text-anchor="middle">chr start</text>
<rect x="578.76" y="179.00" width="379.20" height="6.00" rx="0.00" fill="#111111" stroke="none" stroke-width="0.00" opacity="1.000"/>
<rect x="584.24" y="191.00" width="290.72" height="30.00" rx="1.00" fill="#E7298A" stroke="none" stroke-width="0.00" opacity="0.950"/>
<rect x="887.60" y="191.00" width="145.36" height="30.00" rx="1.00" fill="#E7298A" stroke="none" stroke-width="0.00" opacity="0.950"/>
<rect x="1190.96" y="191.00" width="12.64" height="30.00" rx="1.00" fill="#E7298A" stroke="none" stroke-width="0.00" opacity="0.950"/>
<text x="512.0" y="301.0" font-size="18.0" font-weight="700" fill="#222222" text-anchor="end">PAN011 haplotype 2 (father) chrYp</text>
<rect x="540.00" y="282.00" width="1580.00" height="20.00" rx="2.00" fill="#f4f5f6" stroke="#c8ccd0" stroke-width="1.00" opacity="1.000"/>
<line x1="540.00" y1="279.00" x2="540.00" y2="305.00" stroke="#111111" stroke-width="2.20" opacity="1.000"/>
<polygon points="2128.00,284.00 2128.00,300.00 2145.00,292.00" fill="#9aa0a6" stroke="none" stroke-width="0.00" opacity="0.950"/>
<line x1="540.00" y1="302.00" x2="540.00" y2="312.00" stroke="#777777" stroke-width="0.80" opacity="1.000"/>
<text x="540.0" y="328.0" font-size="12.0" font-weight="400" fill="#5f6368" text-anchor="middle">0.000</text>
<line x1="856.00" y1="302.00" x2="856.00" y2="312.00" stroke="#777777" stroke-width="0.80" opacity="1.000"/>
<line x1="1172.00" y1="302.00" x2="1172.00" y2="312.00" stroke="#777777" stroke-width="0.80" opacity="1.000"/>
<text x="1172.0" y="328.0" font-size="12.0" font-weight="400" fill="#5f6368" text-anchor="middle">0.200</text>
<line x1="1488.00" y1="302.00" x2="1488.00" y2="312.00" stroke="#777777" stroke-width="0.80" opacity="1.000"/>
<line x1="1804.00" y1="302.00" x2="1804.00" y2="312.00" stroke="#777777" stroke-width="0.80" opacity="1.000"/>
<text x="1804.0" y="328.0" font-size="12.0" font-weight="400" fill="#5f6368" text-anchor="middle">0.400</text>
<line x1="2120.00" y1="302.00" x2="2120.00" y2="312.00" stroke="#777777" stroke-width="0.80" opacity="1.000"/>
<text x="2120.0" y="328.0" font-size="12.0" font-weight="400" fill="#5f6368" text-anchor="middle">0.500</text>
<text x="2135.0" y="328.0" font-size="12.0" font-weight="400" fill="#5f6368" text-anchor="start">Mb</text>
<text x="2120.0" y="346.0" font-size="11.0" font-weight="400" fill="#5f6368" text-anchor="middle">chr start</text>
<rect x="558.45" y="265.00" width="379.20" height="6.00" rx="0.00" fill="#111111" stroke="none" stroke-width="0.00" opacity="1.000"/>
<rect x="563.96" y="278.00" width="290.73" height="28.00" rx="1.00" fill="#E7298A" stroke="none" stroke-width="0.00" opacity="0.950"/>
<path d="M 584.24 223.00 C 584.24 246.40, 563.96 251.60, 563.96 275.00 L 854.69 275.00 C 854.69 251.60, 874.96 246.40, 874.96 223.00 Z" fill="#E7298A" stroke="none" stroke-width="0.00" opacity="0.300"/>
<rect x="867.33" y="278.00" width="145.36" height="28.00" rx="1.00" fill="#E7298A" stroke="none" stroke-width="0.00" opacity="0.950"/>
<path d="M 887.60 223.00 C 887.60 246.40, 867.33 251.60, 867.33 275.00 L 1012.69 275.00 C 1012.69 251.60, 1032.96 246.40, 1032.96 223.00 Z" fill="#E7298A" stroke="none" stroke-width="0.00" opacity="0.300"/>
<rect x="1176.17" y="278.00" width="12.64" height="28.00" rx="1.00" fill="#E7298A" stroke="none" stroke-width="0.00" opacity="0.950"/>
<path d="M 1190.96 223.00 C 1190.96 246.40, 1176.17 251.60, 1176.17 275.00 L 1188.81 275.00 C 1188.81 251.60, 1203.60 246.40, 1203.60 223.00 Z" fill="#E7298A" stroke="none" stroke-width="0.00" opacity="0.300"/>
<rect x="44.00" y="358.00" width="2512.00" height="176.00" rx="3.00" fill="#ffffff" stroke="#e0e2e4" stroke-width="0.80" opacity="1.000"/>
<text x="68.0" y="388.0" font-size="25.0" font-weight="700" fill="#222222" text-anchor="start">chr5q child recipient &lt;- chr1p father donor</text>
<text x="512.0" y="469.0" font-size="18.0" font-weight="700" fill="#222222" text-anchor="end">PAN027 paternal haplotype (child) chr5q</text>
<rect x="540.00" y="450.00" width="1580.00" height="20.00" rx="2.00" fill="#f4f5f6" stroke="#c8ccd0" stroke-width="1.00" opacity="1.000"/>
<line x1="2120.00" y1="447.00" x2="2120.00" y2="473.00" stroke="#111111" stroke-width="2.20" opacity="1.000"/>
<polygon points="532.00,452.00 532.00,468.00 515.00,460.00" fill="#9aa0a6" stroke="none" stroke-width="0.00" opacity="0.950"/>
<line x1="540.00" y1="470.00" x2="540.00" y2="480.00" stroke="#777777" stroke-width="0.80" opacity="1.000"/>
<text x="540.0" y="496.0" font-size="12.0" font-weight="400" fill="#5f6368" text-anchor="middle">181.650</text>
<line x1="856.00" y1="470.00" x2="856.00" y2="480.00" stroke="#777777" stroke-width="0.80" opacity="1.000"/>
<line x1="1172.00" y1="470.00" x2="1172.00" y2="480.00" stroke="#777777" stroke-width="0.80" opacity="1.000"/>
<text x="1172.0" y="496.0" font-size="12.0" font-weight="400" fill="#5f6368" text-anchor="middle">181.850</text>
<line x1="1488.00" y1="470.00" x2="1488.00" y2="480.00" stroke="#777777" stroke-width="0.80" opacity="1.000"/>
<line x1="1804.00" y1="470.00" x2="1804.00" y2="480.00" stroke="#777777" stroke-width="0.80" opacity="1.000"/>
<text x="1804.0" y="496.0" font-size="12.0" font-weight="400" fill="#5f6368" text-anchor="middle">182.050</text>
<line x1="2120.00" y1="470.00" x2="2120.00" y2="480.00" stroke="#777777" stroke-width="0.80" opacity="1.000"/>
<text x="2120.0" y="496.0" font-size="12.0" font-weight="400" fill="#5f6368" text-anchor="middle">182.150</text>
<text x="2135.0" y="496.0" font-size="12.0" font-weight="400" fill="#5f6368" text-anchor="start">Mb</text>
<text x="2120.0" y="514.0" font-size="11.0" font-weight="400" fill="#5f6368" text-anchor="middle">chr end</text>
<rect x="1502.92" y="433.00" width="584.60" height="6.00" rx="0.00" fill="#111111" stroke="none" stroke-width="0.00" opacity="1.000"/>
<rect x="1608.49" y="445.00" width="6.32" height="30.00" rx="1.00" fill="#4E79A7" stroke="none" stroke-width="0.00" opacity="0.950"/>
<rect x="1678.01" y="445.00" width="37.92" height="30.00" rx="1.00" fill="#4E79A7" stroke="none" stroke-width="0.00" opacity="0.950"/>
<rect x="1722.25" y="445.00" width="6.32" height="30.00" rx="1.00" fill="#4E79A7" stroke="none" stroke-width="0.00" opacity="0.950"/>
<rect x="1734.89" y="445.00" width="12.64" height="30.00" rx="1.00" fill="#4E79A7" stroke="none" stroke-width="0.00" opacity="0.950"/>
<rect x="1753.85" y="445.00" width="18.96" height="30.00" rx="1.00" fill="#4E79A7" stroke="none" stroke-width="0.00" opacity="0.950"/>
<rect x="1810.73" y="445.00" width="88.48" height="30.00" rx="1.00" fill="#4E79A7" stroke="none" stroke-width="0.00" opacity="0.950"/>
<rect x="1930.81" y="445.00" width="25.28" height="30.00" rx="1.00" fill="#4E79A7" stroke="none" stroke-width="0.00" opacity="0.950"/>
<rect x="1962.41" y="445.00" width="12.64" height="30.00" rx="1.00" fill="#4E79A7" stroke="none" stroke-width="0.00" opacity="0.950"/>
<rect x="2012.97" y="445.00" width="6.32" height="30.00" rx="1.00" fill="#4E79A7" stroke="none" stroke-width="0.00" opacity="0.950"/>
<text x="512.0" y="555.0" font-size="18.0" font-weight="700" fill="#222222" text-anchor="end">PAN011 haplotype 2 (father) chr1p</text>
<rect x="540.00" y="536.00" width="1580.00" height="20.00" rx="2.00" fill="#f4f5f6" stroke="#c8ccd0" stroke-width="1.00" opacity="1.000"/>
<line x1="540.00" y1="533.00" x2="540.00" y2="559.00" stroke="#111111" stroke-width="2.20" opacity="1.000"/>
<polygon points="2128.00,538.00 2128.00,554.00 2145.00,546.00" fill="#9aa0a6" stroke="none" stroke-width="0.00" opacity="0.950"/>
<line x1="540.00" y1="556.00" x2="540.00" y2="566.00" stroke="#777777" stroke-width="0.80" opacity="1.000"/>
<text x="540.0" y="582.0" font-size="12.0" font-weight="400" fill="#5f6368" text-anchor="middle">0.000</text>
<line x1="856.00" y1="556.00" x2="856.00" y2="566.00" stroke="#777777" stroke-width="0.80" opacity="1.000"/>
<line x1="1172.00" y1="556.00" x2="1172.00" y2="566.00" stroke="#777777" stroke-width="0.80" opacity="1.000"/>
<text x="1172.0" y="582.0" font-size="12.0" font-weight="400" fill="#5f6368" text-anchor="middle">0.200</text>
<line x1="1488.00" y1="556.00" x2="1488.00" y2="566.00" stroke="#777777" stroke-width="0.80" opacity="1.000"/>
<line x1="1804.00" y1="556.00" x2="1804.00" y2="566.00" stroke="#777777" stroke-width="0.80" opacity="1.000"/>
<text x="1804.0" y="582.0" font-size="12.0" font-weight="400" fill="#5f6368" text-anchor="middle">0.400</text>
<line x1="2120.00" y1="556.00" x2="2120.00" y2="566.00" stroke="#777777" stroke-width="0.80" opacity="1.000"/>
<text x="2120.0" y="582.0" font-size="12.0" font-weight="400" fill="#5f6368" text-anchor="middle">0.500</text>
<text x="2135.0" y="582.0" font-size="12.0" font-weight="400" fill="#5f6368" text-anchor="start">Mb</text>
<text x="2120.0" y="600.0" font-size="11.0" font-weight="400" fill="#5f6368" text-anchor="middle">chr start</text>
<rect x="550.66" y="519.00" width="995.40" height="6.00" rx="0.00" fill="#111111" stroke="none" stroke-width="0.00" opacity="1.000"/>
<rect x="620.23" y="532.00" width="6.19" height="28.00" rx="1.00" fill="#4E79A7" stroke="none" stroke-width="0.00" opacity="0.950"/>
<path d="M 2012.97 477.00 C 2012.97 500.40, 620.23 505.60, 620.23 529.00 L 626.42 529.00 C 626.42 505.60, 2019.29 500.40, 2019.29 477.00 Z" fill="#4E79A7" stroke="none" stroke-width="0.00" opacity="0.300"/>
<rect x="671.35" y="532.00" width="9.51" height="28.00" rx="1.00" fill="#4E79A7" stroke="none" stroke-width="0.00" opacity="0.950"/>
<path d="M 1962.41 477.00 C 1962.41 500.40, 671.35 505.60, 671.35 529.00 L 680.86 529.00 C 680.86 505.60, 1975.05 500.40, 1975.05 477.00 Z" fill="#4E79A7" stroke="none" stroke-width="0.00" opacity="0.300"/>
<rect x="687.18" y="532.00" width="25.27" height="28.00" rx="1.00" fill="#4E79A7" stroke="none" stroke-width="0.00" opacity="0.950"/>
<path d="M 1930.81 477.00 C 1930.81 500.40, 687.18 505.60, 687.18 529.00 L 712.44 529.00 C 712.44 505.60, 1956.09 500.40, 1956.09 477.00 Z" fill="#4E79A7" stroke="none" stroke-width="0.00" opacity="0.300"/>
<rect x="762.53" y="532.00" width="88.46" height="28.00" rx="1.00" fill="#4E79A7" stroke="none" stroke-width="0.00" opacity="0.950"/>
<path d="M 1810.73 477.00 C 1810.73 500.40, 762.53 505.60, 762.53 529.00 L 850.99 529.00 C 850.99 505.60, 1899.21 500.40, 1899.21 477.00 Z" fill="#4E79A7" stroke="none" stroke-width="0.00" opacity="0.300"/>
<rect x="850.52" y="532.00" width="18.95" height="28.00" rx="1.00" fill="#4E79A7" stroke="none" stroke-width="0.00" opacity="0.950"/>
<path d="M 1753.85 477.00 C 1753.85 500.40, 850.52 505.60, 850.52 529.00 L 869.47 529.00 C 869.47 505.60, 1772.81 500.40, 1772.81 477.00 Z" fill="#4E79A7" stroke="none" stroke-width="0.00" opacity="0.300"/>
<rect x="875.79" y="532.00" width="12.64" height="28.00" rx="1.00" fill="#4E79A7" stroke="none" stroke-width="0.00" opacity="0.950"/>
<path d="M 1734.89 477.00 C 1734.89 500.40, 875.79 505.60, 875.79 529.00 L 888.43 529.00 C 888.43 505.60, 1747.53 500.40, 1747.53 477.00 Z" fill="#4E79A7" stroke="none" stroke-width="0.00" opacity="0.300"/>
<rect x="894.75" y="532.00" width="6.32" height="28.00" rx="1.00" fill="#4E79A7" stroke="none" stroke-width="0.00" opacity="0.950"/>
<path d="M 1722.25 477.00 C 1722.25 500.40, 894.75 505.60, 894.75 529.00 L 901.07 529.00 C 901.07 505.60, 1728.57 500.40, 1728.57 477.00 Z" fill="#4E79A7" stroke="none" stroke-width="0.00" opacity="0.300"/>
<rect x="907.39" y="532.00" width="37.92" height="28.00" rx="1.00" fill="#4E79A7" stroke="none" stroke-width="0.00" opacity="0.950"/>
<path d="M 1678.01 477.00 C 1678.01 500.40, 907.39 505.60, 907.39 529.00 L 945.32 529.00 C 945.32 505.60, 1715.93 500.40, 1715.93 477.00 Z" fill="#4E79A7" stroke="none" stroke-width="0.00" opacity="0.300"/>
<rect x="1009.53" y="532.00" width="6.31" height="28.00" rx="1.00" fill="#4E79A7" stroke="none" stroke-width="0.00" opacity="0.950"/>
<path d="M 1608.49 477.00 C 1608.49 500.40, 1009.53 505.60, 1009.53 529.00 L 1015.84 529.00 C 1015.84 505.60, 1614.81 500.40, 1614.81 477.00 Z" fill="#4E79A7" stroke="none" stroke-width="0.00" opacity="0.300"/>
<rect x="44.00" y="612.00" width="2512.00" height="176.00" rx="3.00" fill="#ffffff" stroke="#e0e2e4" stroke-width="0.80" opacity="1.000"/>
<text x="68.0" y="642.0" font-size="25.0" font-weight="700" fill="#222222" text-anchor="start">chr9q child recipient &lt;- chr3q father donor</text>
<text x="512.0" y="723.0" font-size="18.0" font-weight="700" fill="#222222" text-anchor="end">PAN027 paternal haplotype (child) chr9q</text>
<rect x="540.00" y="704.00" width="1580.00" height="20.00" rx="2.00" fill="#f4f5f6" stroke="#c8ccd0" stroke-width="1.00" opacity="1.000"/>
<line x1="2120.00" y1="701.00" x2="2120.00" y2="727.00" stroke="#111111" stroke-width="2.20" opacity="1.000"/>
<polygon points="532.00,706.00 532.00,722.00 515.00,714.00" fill="#9aa0a6" stroke="none" stroke-width="0.00" opacity="0.950"/>
<line x1="540.00" y1="724.00" x2="540.00" y2="734.00" stroke="#777777" stroke-width="0.80" opacity="1.000"/>
<text x="540.0" y="750.0" font-size="12.0" font-weight="400" fill="#5f6368" text-anchor="middle">135.709</text>
<line x1="856.00" y1="724.00" x2="856.00" y2="734.00" stroke="#777777" stroke-width="0.80" opacity="1.000"/>
<line x1="1172.00" y1="724.00" x2="1172.00" y2="734.00" stroke="#777777" stroke-width="0.80" opacity="1.000"/>
<text x="1172.0" y="750.0" font-size="12.0" font-weight="400" fill="#5f6368" text-anchor="middle">135.909</text>
<line x1="1488.00" y1="724.00" x2="1488.00" y2="734.00" stroke="#777777" stroke-width="0.80" opacity="1.000"/>
<line x1="1804.00" y1="724.00" x2="1804.00" y2="734.00" stroke="#777777" stroke-width="0.80" opacity="1.000"/>
<text x="1804.0" y="750.0" font-size="12.0" font-weight="400" fill="#5f6368" text-anchor="middle">136.109</text>
<line x1="2120.00" y1="724.00" x2="2120.00" y2="734.00" stroke="#777777" stroke-width="0.80" opacity="1.000"/>
<text x="2120.0" y="750.0" font-size="12.0" font-weight="400" fill="#5f6368" text-anchor="middle">136.209</text>
<text x="2135.0" y="750.0" font-size="12.0" font-weight="400" fill="#5f6368" text-anchor="start">Mb</text>
<text x="2120.0" y="768.0" font-size="11.0" font-weight="400" fill="#5f6368" text-anchor="middle">chr end</text>
<rect x="1142.54" y="687.00" width="963.80" height="6.00" rx="0.00" fill="#111111" stroke="none" stroke-width="0.00" opacity="1.000"/>
<rect x="1939.41" y="699.00" width="6.32" height="30.00" rx="1.00" fill="#D95F02" stroke="none" stroke-width="0.00" opacity="0.950"/>
<rect x="1952.05" y="699.00" width="6.32" height="30.00" rx="1.00" fill="#D95F02" stroke="none" stroke-width="0.00" opacity="0.950"/>
<rect x="1971.01" y="699.00" width="12.64" height="30.00" rx="1.00" fill="#D95F02" stroke="none" stroke-width="0.00" opacity="0.950"/>
<rect x="1989.97" y="699.00" width="63.20" height="30.00" rx="1.00" fill="#D95F02" stroke="none" stroke-width="0.00" opacity="0.950"/>
<rect x="2059.49" y="699.00" width="6.32" height="30.00" rx="1.00" fill="#D95F02" stroke="none" stroke-width="0.00" opacity="0.950"/>
<rect x="2084.77" y="699.00" width="6.32" height="30.00" rx="1.00" fill="#D95F02" stroke="none" stroke-width="0.00" opacity="0.950"/>
<rect x="2103.73" y="699.00" width="6.32" height="30.00" rx="1.00" fill="#D95F02" stroke="none" stroke-width="0.00" opacity="0.950"/>
<text x="512.0" y="809.0" font-size="18.0" font-weight="700" fill="#222222" text-anchor="end">PAN011 haplotype 2 (father) chr3q</text>
<rect x="540.00" y="790.00" width="1580.00" height="20.00" rx="2.00" fill="#f4f5f6" stroke="#c8ccd0" stroke-width="1.00" opacity="1.000"/>
<line x1="2120.00" y1="787.00" x2="2120.00" y2="813.00" stroke="#111111" stroke-width="2.20" opacity="1.000"/>
<polygon points="532.00,792.00 532.00,808.00 515.00,800.00" fill="#9aa0a6" stroke="none" stroke-width="0.00" opacity="0.950"/>
<line x1="540.00" y1="810.00" x2="540.00" y2="820.00" stroke="#777777" stroke-width="0.80" opacity="1.000"/>
<text x="540.0" y="836.0" font-size="12.0" font-weight="400" fill="#5f6368" text-anchor="middle">205.079</text>
<line x1="856.00" y1="810.00" x2="856.00" y2="820.00" stroke="#777777" stroke-width="0.80" opacity="1.000"/>
<line x1="1172.00" y1="810.00" x2="1172.00" y2="820.00" stroke="#777777" stroke-width="0.80" opacity="1.000"/>
<text x="1172.0" y="836.0" font-size="12.0" font-weight="400" fill="#5f6368" text-anchor="middle">205.279</text>
<line x1="1488.00" y1="810.00" x2="1488.00" y2="820.00" stroke="#777777" stroke-width="0.80" opacity="1.000"/>
<line x1="1804.00" y1="810.00" x2="1804.00" y2="820.00" stroke="#777777" stroke-width="0.80" opacity="1.000"/>
<text x="1804.0" y="836.0" font-size="12.0" font-weight="400" fill="#5f6368" text-anchor="middle">205.479</text>
<line x1="2120.00" y1="810.00" x2="2120.00" y2="820.00" stroke="#777777" stroke-width="0.80" opacity="1.000"/>
<text x="2120.0" y="836.0" font-size="12.0" font-weight="400" fill="#5f6368" text-anchor="middle">205.579</text>
<text x="2135.0" y="836.0" font-size="12.0" font-weight="400" fill="#5f6368" text-anchor="start">Mb</text>
<text x="2120.0" y="854.0" font-size="11.0" font-weight="400" fill="#5f6368" text-anchor="middle">chr end</text>
<rect x="1319.59" y="773.00" width="790.00" height="6.00" rx="0.00" fill="#111111" stroke="none" stroke-width="0.00" opacity="1.000"/>
<rect x="2106.95" y="786.00" width="6.24" height="28.00" rx="1.00" fill="#D95F02" stroke="none" stroke-width="0.00" opacity="0.950"/>
<path d="M 2103.73 731.00 C 2103.73 754.40, 2106.95 759.60, 2106.95 783.00 L 2113.19 783.00 C 2113.19 759.60, 2110.05 754.40, 2110.05 731.00 Z" fill="#D95F02" stroke="none" stroke-width="0.00" opacity="0.300"/>
<rect x="2087.98" y="786.00" width="6.32" height="28.00" rx="1.00" fill="#D95F02" stroke="none" stroke-width="0.00" opacity="0.950"/>
<path d="M 2084.77 731.00 C 2084.77 754.40, 2087.98 759.60, 2087.98 783.00 L 2094.30 783.00 C 2094.30 759.60, 2091.09 754.40, 2091.09 731.00 Z" fill="#D95F02" stroke="none" stroke-width="0.00" opacity="0.300"/>
<rect x="2062.70" y="786.00" width="6.32" height="28.00" rx="1.00" fill="#D95F02" stroke="none" stroke-width="0.00" opacity="0.950"/>
<path d="M 2059.49 731.00 C 2059.49 754.40, 2062.70 759.60, 2062.70 783.00 L 2069.02 783.00 C 2069.02 759.60, 2065.81 754.40, 2065.81 731.00 Z" fill="#D95F02" stroke="none" stroke-width="0.00" opacity="0.300"/>
<rect x="1993.20" y="786.00" width="63.18" height="28.00" rx="1.00" fill="#D95F02" stroke="none" stroke-width="0.00" opacity="0.950"/>
<path d="M 1989.97 731.00 C 1989.97 754.40, 1993.20 759.60, 1993.20 783.00 L 2056.38 783.00 C 2056.38 759.60, 2053.17 754.40, 2053.17 731.00 Z" fill="#D95F02" stroke="none" stroke-width="0.00" opacity="0.300"/>
<rect x="1974.23" y="786.00" width="12.65" height="28.00" rx="1.00" fill="#D95F02" stroke="none" stroke-width="0.00" opacity="0.950"/>
<path d="M 1971.01 731.00 C 1971.01 754.40, 1974.23 759.60, 1974.23 783.00 L 1986.88 783.00 C 1986.88 759.60, 1983.65 754.40, 1983.65 731.00 Z" fill="#D95F02" stroke="none" stroke-width="0.00" opacity="0.300"/>
<rect x="1955.27" y="786.00" width="6.32" height="28.00" rx="1.00" fill="#D95F02" stroke="none" stroke-width="0.00" opacity="0.950"/>
<path d="M 1952.05 731.00 C 1952.05 754.40, 1955.27 759.60, 1955.27 783.00 L 1961.59 783.00 C 1961.59 759.60, 1958.37 754.40, 1958.37 731.00 Z" fill="#D95F02" stroke="none" stroke-width="0.00" opacity="0.300"/>
<rect x="1942.63" y="786.00" width="6.32" height="28.00" rx="1.00" fill="#D95F02" stroke="none" stroke-width="0.00" opacity="0.950"/>
<path d="M 1939.41 731.00 C 1939.41 754.40, 1942.63 759.60, 1942.63 783.00 L 1948.95 783.00 C 1948.95 759.60, 1945.73 754.40, 1945.73 731.00 Z" fill="#D95F02" stroke="none" stroke-width="0.00" opacity="0.300"/>
</svg>
