<svg xmlns="http://www.w3.org/2000/svg" width="2600" height="1038" viewBox="0 0 2600 1038">
<rect width="100%" height="100%" fill="white"/>
<style>text{font-family:Arial,Helvetica,sans-serif;dominant-baseline:alphabetic}</style>
<text x="68.0" y="54.0" font-size="31.0" font-weight="700" fill="#222222" text-anchor="start">Fig5 donor-recipient ribbon draft: PAN027 paternal haplotype (child) vs PAN011 (father)</text>
<rect x="44.00" y="104.00" width="2512.00" height="204.00" rx="3.00" fill="#ffffff" stroke="#e0e2e4" stroke-width="0.80" opacity="1.000"/>
<text x="68.0" y="134.0" font-size="25.0" font-weight="700" fill="#222222" text-anchor="start">chrXp child recipient ← chrYp father donor</text>
<text x="512.0" y="215.0" font-size="18.0" font-weight="700" fill="#222222" text-anchor="end">PAN027 paternal haplotype (child) chrXp</text>
<rect x="540.00" y="196.00" width="1580.00" height="20.00" rx="2.00" fill="#f4f5f6" stroke="#c8ccd0" stroke-width="1.00" opacity="1.000"/>
<line x1="540.00" y1="193.00" x2="540.00" y2="219.00" stroke="#111111" stroke-width="2.20" opacity="1.000"/>
<polygon points="2128.00,198.00 2128.00,214.00 2145.00,206.00" fill="#9aa0a6" stroke="none" stroke-width="0.00" opacity="0.950"/>
<line x1="540.00" y1="216.00" x2="540.00" y2="226.00" stroke="#777777" stroke-width="0.80" opacity="1.000"/>
<text x="540.0" y="242.0" font-size="12.0" font-weight="400" fill="#5f6368" text-anchor="middle">0.000</text>
<line x1="856.00" y1="216.00" x2="856.00" y2="226.00" stroke="#777777" stroke-width="0.80" opacity="1.000"/>
<line x1="1172.00" y1="216.00" x2="1172.00" y2="226.00" stroke="#777777" stroke-width="0.80" opacity="1.000"/>
<text x="1172.0" y="242.0" font-size="12.0" font-weight="400" fill="#5f6368" text-anchor="middle">0.200</text>
<line x1="1488.00" y1="216.00" x2="1488.00" y2="226.00" stroke="#777777" stroke-width="0.80" opacity="1.000"/>
<line x1="1804.00" y1="216.00" x2="1804.00" y2="226.00" stroke="#777777" stroke-width="0.80" opacity="1.000"/>
<text x="1804.0" y="242.0" font-size="12.0" font-weight="400" fill="#5f6368" text-anchor="middle">0.400</text>
<line x1="2120.00" y1="216.00" x2="2120.00" y2="226.00" stroke="#777777" stroke-width="0.80" opacity="1.000"/>
<text x="2120.0" y="242.0" font-size="12.0" font-weight="400" fill="#5f6368" text-anchor="middle">0.500</text>
<text x="2135.0" y="242.0" font-size="12.0" font-weight="400" fill="#5f6368" text-anchor="start">Mb</text>
<text x="2120.0" y="260.0" font-size="11.0" font-weight="400" fill="#5f6368" text-anchor="middle">chr start</text>
<rect x="540.00" y="179.00" width="1580.00" height="6.00" rx="0.00" fill="#111111" stroke="none" stroke-width="0.00" opacity="1.000"/>
<rect x="584.24" y="191.00" width="290.72" height="30.00" rx="1.00" fill="#E7298A" stroke="none" stroke-width="0.00" opacity="0.950"/>
<rect x="887.60" y="191.00" width="145.36" height="30.00" rx="1.00" fill="#E7298A" stroke="none" stroke-width="0.00" opacity="0.950"/>
<rect x="1190.96" y="191.00" width="12.64" height="30.00" rx="1.00" fill="#E7298A" stroke="none" stroke-width="0.00" opacity="0.950"/>
<text x="512.0" y="301.0" font-size="18.0" font-weight="700" fill="#222222" text-anchor="end">PAN011 haplotype 2 (father) chrYp</text>
<rect x="540.00" y="282.00" width="1580.00" height="20.00" rx="2.00" fill="#f4f5f6" stroke="#c8ccd0" stroke-width="1.00" opacity="1.000"/>
<line x1="540.00" y1="279.00" x2="540.00" y2="305.00" stroke="#111111" stroke-width="2.20" opacity="1.000"/>
<polygon points="2128.00,284.00 2128.00,300.00 2145.00,292.00" fill="#9aa0a6" stroke="none" stroke-width="0.00" opacity="0.950"/>
<line x1="540.00" y1="302.00" x2="540.00" y2="312.00" stroke="#777777" stroke-width="0.80" opacity="1.000"/>
<text x="540.0" y="328.0" font-size="12.0" font-weight="400" fill="#5f6368" text-anchor="middle">0.000</text>
<line x1="856.00" y1="302.00" x2="856.00" y2="312.00" stroke="#777777" stroke-width="0.80" opacity="1.000"/>
<line x1="1172.00" y1="302.00" x2="1172.00" y2="312.00" stroke="#777777" stroke-width="0.80" opacity="1.000"/>
<text x="1172.0" y="328.0" font-size="12.0" font-weight="400" fill="#5f6368" text-anchor="middle">0.200</text>
<line x1="1488.00" y1="302.00" x2="1488.00" y2="312.00" stroke="#777777" stroke-width="0.80" opacity="1.000"/>
<line x1="1804.00" y1="302.00" x2="1804.00" y2="312.00" stroke="#777777" stroke-width="0.80" opacity="1.000"/>
<text x="1804.0" y="328.0" font-size="12.0" font-weight="400" fill="#5f6368" text-anchor="middle">0.400</text>
<line x1="2120.00" y1="302.00" x2="2120.00" y2="312.00" stroke="#777777" stroke-width="0.80" opacity="1.000"/>
<text x="2120.0" y="328.0" font-size="12.0" font-weight="400" fill="#5f6368" text-anchor="middle">0.500</text>
<text x="2135.0" y="328.0" font-size="12.0" font-weight="400" fill="#5f6368" text-anchor="start">Mb</text>
<text x="2120.0" y="346.0" font-size="11.0" font-weight="400" fill="#5f6368" text-anchor="middle">chr start</text>
<rect x="540.00" y="306.00" width="1580.00" height="6.00" rx="0.00" fill="#111111" stroke="none" stroke-width="0.00" opacity="1.000"/>
<rect x="563.96" y="278.00" width="290.73" height="28.00" rx="1.00" fill="#E7298A" stroke="none" stroke-width="0.00" opacity="0.950"/>
<path d="M 584.24 223.00 C 584.24 246.40, 563.96 251.60, 563.96 275.00 L 854.69 275.00 C 854.69 251.60, 874.96 246.40, 874.96 223.00 Z" fill="#E7298A" stroke="none" stroke-width="0.00" opacity="0.300"/>
<rect x="867.33" y="278.00" width="145.36" height="28.00" rx="1.00" fill="#E7298A" stroke="none" stroke-width="0.00" opacity="0.950"/>
<path d="M 887.60 223.00 C 887.60 246.40, 867.33 251.60, 867.33 275.00 L 1012.69 275.00 C 1012.69 251.60, 1032.96 246.40, 1032.96 223.00 Z" fill="#E7298A" stroke="none" stroke-width="0.00" opacity="0.300"/>
<rect x="1176.17" y="278.00" width="12.64" height="28.00" rx="1.00" fill="#E7298A" stroke="none" stroke-width="0.00" opacity="0.950"/>
<path d="M 1190.96 223.00 C 1190.96 246.40, 1176.17 251.60, 1176.17 275.00 L 1188.81 275.00 C 1188.81 251.60, 1203.60 246.40, 1203.60 223.00 Z" fill="#E7298A" stroke="none" stroke-width="0.00" opacity="0.300"/>
<rect x="44.00" y="386.00" width="2512.00" height="204.00" rx="3.00" fill="#ffffff" stroke="#e0e2e4" stroke-width="0.80" opacity="1.000"/>
<text x="68.0" y="416.0" font-size="25.0" font-weight="700" fill="#222222" text-anchor="start">chr5q child recipient ← chr1p father donor</text>
<text x="512.0" y="497.0" font-size="18.0" font-weight="700" fill="#222222" text-anchor="end">PAN027 paternal haplotype (child) chr5q</text>
<rect x="540.00" y="478.00" width="1580.00" height="20.00" rx="2.00" fill="#f4f5f6" stroke="#c8ccd0" stroke-width="1.00" opacity="1.000"/>
<line x1="2120.00" y1="475.00" x2="2120.00" y2="501.00" stroke="#111111" stroke-width="2.20" opacity="1.000"/>
<polygon points="532.00,480.00 532.00,496.00 515.00,488.00" fill="#9aa0a6" stroke="none" stroke-width="0.00" opacity="0.950"/>
<line x1="540.00" y1="498.00" x2="540.00" y2="508.00" stroke="#777777" stroke-width="0.80" opacity="1.000"/>
<text x="540.0" y="524.0" font-size="12.0" font-weight="400" fill="#5f6368" text-anchor="middle">181.650</text>
<line x1="856.00" y1="498.00" x2="856.00" y2="508.00" stroke="#777777" stroke-width="0.80" opacity="1.000"/>
<line x1="1172.00" y1="498.00" x2="1172.00" y2="508.00" stroke="#777777" stroke-width="0.80" opacity="1.000"/>
<text x="1172.0" y="524.0" font-size="12.0" font-weight="400" fill="#5f6368" text-anchor="middle">181.850</text>
<line x1="1488.00" y1="498.00" x2="1488.00" y2="508.00" stroke="#777777" stroke-width="0.80" opacity="1.000"/>
<line x1="1804.00" y1="498.00" x2="1804.00" y2="508.00" stroke="#777777" stroke-width="0.80" opacity="1.000"/>
<text x="1804.0" y="524.0" font-size="12.0" font-weight="400" fill="#5f6368" text-anchor="middle">182.050</text>
<line x1="2120.00" y1="498.00" x2="2120.00" y2="508.00" stroke="#777777" stroke-width="0.80" opacity="1.000"/>
<text x="2120.0" y="524.0" font-size="12.0" font-weight="400" fill="#5f6368" text-anchor="middle">182.150</text>
<text x="2135.0" y="524.0" font-size="12.0" font-weight="400" fill="#5f6368" text-anchor="start">Mb</text>
<text x="2120.0" y="542.0" font-size="11.0" font-weight="400" fill="#5f6368" text-anchor="middle">chr end</text>
<rect x="1502.92" y="461.00" width="584.60" height="6.00" rx="0.00" fill="#111111" stroke="none" stroke-width="0.00" opacity="1.000"/>
<rect x="1608.49" y="473.00" width="6.32" height="30.00" rx="1.00" fill="#4E79A7" stroke="none" stroke-width="0.00" opacity="0.950"/>
<rect x="1678.01" y="473.00" width="37.92" height="30.00" rx="1.00" fill="#4E79A7" stroke="none" stroke-width="0.00" opacity="0.950"/>
<rect x="1722.25" y="473.00" width="6.32" height="30.00" rx="1.00" fill="#4E79A7" stroke="none" stroke-width="0.00" opacity="0.950"/>
<rect x="1734.89" y="473.00" width="12.64" height="30.00" rx="1.00" fill="#4E79A7" stroke="none" stroke-width="0.00" opacity="0.950"/>
<rect x="1753.85" y="473.00" width="18.96" height="30.00" rx="1.00" fill="#4E79A7" stroke="none" stroke-width="0.00" opacity="0.950"/>
<rect x="1810.73" y="473.00" width="88.48" height="30.00" rx="1.00" fill="#4E79A7" stroke="none" stroke-width="0.00" opacity="0.950"/>
<rect x="1930.81" y="473.00" width="25.28" height="30.00" rx="1.00" fill="#4E79A7" stroke="none" stroke-width="0.00" opacity="0.950"/>
<rect x="1962.41" y="473.00" width="12.64" height="30.00" rx="1.00" fill="#4E79A7" stroke="none" stroke-width="0.00" opacity="0.950"/>
<rect x="2012.97" y="473.00" width="6.32" height="30.00" rx="1.00" fill="#4E79A7" stroke="none" stroke-width="0.00" opacity="0.950"/>
<text x="512.0" y="583.0" font-size="18.0" font-weight="700" fill="#222222" text-anchor="end">PAN011 haplotype 2 (father) chr1p</text>
<rect x="540.00" y="564.00" width="1580.00" height="20.00" rx="2.00" fill="#f4f5f6" stroke="#c8ccd0" stroke-width="1.00" opacity="1.000"/>
<line x1="540.00" y1="561.00" x2="540.00" y2="587.00" stroke="#111111" stroke-width="2.20" opacity="1.000"/>
<polygon points="2128.00,566.00 2128.00,582.00 2145.00,574.00" fill="#9aa0a6" stroke="none" stroke-width="0.00" opacity="0.950"/>
<line x1="540.00" y1="584.00" x2="540.00" y2="594.00" stroke="#777777" stroke-width="0.80" opacity="1.000"/>
<text x="540.0" y="610.0" font-size="12.0" font-weight="400" fill="#5f6368" text-anchor="middle">0.000</text>
<line x1="856.00" y1="584.00" x2="856.00" y2="594.00" stroke="#777777" stroke-width="0.80" opacity="1.000"/>
<line x1="1172.00" y1="584.00" x2="1172.00" y2="594.00" stroke="#777777" stroke-width="0.80" opacity="1.000"/>
<text x="1172.0" y="610.0" font-size="12.0" font-weight="400" fill="#5f6368" text-anchor="middle">0.200</text>
<line x1="1488.00" y1="584.00" x2="1488.00" y2="594.00" stroke="#777777" stroke-width="0.80" opacity="1.000"/>
<line x1="1804.00" y1="584.00" x2="1804.00" y2="594.00" stroke="#777777" stroke-width="0.80" opacity="1.000"/>
<text x="1804.0" y="610.0" font-size="12.0" font-weight="400" fill="#5f6368" text-anchor="middle">0.400</text>
<line x1="2120.00" y1="584.00" x2="2120.00" y2="594.00" stroke="#777777" stroke-width="0.80" opacity="1.000"/>
<text x="2120.0" y="610.0" font-size="12.0" font-weight="400" fill="#5f6368" text-anchor="middle">0.500</text>
<text x="2135.0" y="610.0" font-size="12.0" font-weight="400" fill="#5f6368" text-anchor="start">Mb</text>
<text x="2120.0" y="628.0" font-size="11.0" font-weight="400" fill="#5f6368" text-anchor="middle">chr start</text>
<rect x="550.66" y="588.00" width="995.40" height="6.00" rx="0.00" fill="#111111" stroke="none" stroke-width="0.00" opacity="1.000"/>
<rect x="620.23" y="560.00" width="6.19" height="28.00" rx="1.00" fill="#4E79A7" stroke="none" stroke-width="0.00" opacity="0.950"/>
<path d="M 2012.97 505.00 C 2012.97 528.40, 620.23 533.60, 620.23 557.00 L 626.42 557.00 C 626.42 533.60, 2019.29 528.40, 2019.29 505.00 Z" fill="#4E79A7" stroke="none" stroke-width="0.00" opacity="0.300"/>
<rect x="671.35" y="560.00" width="9.51" height="28.00" rx="1.00" fill="#4E79A7" stroke="none" stroke-width="0.00" opacity="0.950"/>
<path d="M 1962.41 505.00 C 1962.41 528.40, 671.35 533.60, 671.35 557.00 L 680.86 557.00 C 680.86 533.60, 1975.05 528.40, 1975.05 505.00 Z" fill="#4E79A7" stroke="none" stroke-width="0.00" opacity="0.300"/>
<rect x="687.18" y="560.00" width="25.27" height="28.00" rx="1.00" fill="#4E79A7" stroke="none" stroke-width="0.00" opacity="0.950"/>
<path d="M 1930.81 505.00 C 1930.81 528.40, 687.18 533.60, 687.18 557.00 L 712.44 557.00 C 712.44 533.60, 1956.09 528.40, 1956.09 505.00 Z" fill="#4E79A7" stroke="none" stroke-width="0.00" opacity="0.300"/>
<rect x="762.53" y="560.00" width="88.46" height="28.00" rx="1.00" fill="#4E79A7" stroke="none" stroke-width="0.00" opacity="0.950"/>
<path d="M 1810.73 505.00 C 1810.73 528.40, 762.53 533.60, 762.53 557.00 L 850.99 557.00 C 850.99 533.60, 1899.21 528.40, 1899.21 505.00 Z" fill="#4E79A7" stroke="none" stroke-width="0.00" opacity="0.300"/>
<rect x="850.52" y="560.00" width="18.95" height="28.00" rx="1.00" fill="#4E79A7" stroke="none" stroke-width="0.00" opacity="0.950"/>
<path d="M 1753.85 505.00 C 1753.85 528.40, 850.52 533.60, 850.52 557.00 L 869.47 557.00 C 869.47 533.60, 1772.81 528.40, 1772.81 505.00 Z" fill="#4E79A7" stroke="none" stroke-width="0.00" opacity="0.300"/>
<rect x="875.79" y="560.00" width="12.64" height="28.00" rx="1.00" fill="#4E79A7" stroke="none" stroke-width="0.00" opacity="0.950"/>
<path d="M 1734.89 505.00 C 1734.89 528.40, 875.79 533.60, 875.79 557.00 L 888.43 557.00 C 888.43 533.60, 1747.53 528.40, 1747.53 505.00 Z" fill="#4E79A7" stroke="none" stroke-width="0.00" opacity="0.300"/>
<rect x="894.75" y="560.00" width="6.32" height="28.00" rx="1.00" fill="#4E79A7" stroke="none" stroke-width="0.00" opacity="0.950"/>
<path d="M 1722.25 505.00 C 1722.25 528.40, 894.75 533.60, 894.75 557.00 L 901.07 557.00 C 901.07 533.60, 1728.57 528.40, 1728.57 505.00 Z" fill="#4E79A7" stroke="none" stroke-width="0.00" opacity="0.300"/>
<rect x="907.39" y="560.00" width="37.92" height="28.00" rx="1.00" fill="#4E79A7" stroke="none" stroke-width="0.00" opacity="0.950"/>
<path d="M 1678.01 505.00 C 1678.01 528.40, 907.39 533.60, 907.39 557.00 L 945.32 557.00 C 945.32 533.60, 1715.93 528.40, 1715.93 505.00 Z" fill="#4E79A7" stroke="none" stroke-width="0.00" opacity="0.300"/>
<rect x="1009.53" y="560.00" width="6.31" height="28.00" rx="1.00" fill="#4E79A7" stroke="none" stroke-width="0.00" opacity="0.950"/>
<path d="M 1608.49 505.00 C 1608.49 528.40, 1009.53 533.60, 1009.53 557.00 L 1015.84 557.00 C 1015.84 533.60, 1614.81 528.40, 1614.81 505.00 Z" fill="#4E79A7" stroke="none" stroke-width="0.00" opacity="0.300"/>
<rect x="44.00" y="668.00" width="2512.00" height="204.00" rx="3.00" fill="#ffffff" stroke="#e0e2e4" stroke-width="0.80" opacity="1.000"/>
<text x="68.0" y="698.0" font-size="25.0" font-weight="700" fill="#222222" text-anchor="start">chr9q child recipient ← chr3q father donor</text>
<text x="512.0" y="779.0" font-size="18.0" font-weight="700" fill="#222222" text-anchor="end">PAN027 paternal haplotype (child) chr9q</text>
<rect x="540.00" y="760.00" width="1580.00" height="20.00" rx="2.00" fill="#f4f5f6" stroke="#c8ccd0" stroke-width="1.00" opacity="1.000"/>
<line x1="2120.00" y1="757.00" x2="2120.00" y2="783.00" stroke="#111111" stroke-width="2.20" opacity="1.000"/>
<polygon points="532.00,762.00 532.00,778.00 515.00,770.00" fill="#9aa0a6" stroke="none" stroke-width="0.00" opacity="0.950"/>
<line x1="540.00" y1="780.00" x2="540.00" y2="790.00" stroke="#777777" stroke-width="0.80" opacity="1.000"/>
<text x="540.0" y="806.0" font-size="12.0" font-weight="400" fill="#5f6368" text-anchor="middle">135.709</text>
<line x1="856.00" y1="780.00" x2="856.00" y2="790.00" stroke="#777777" stroke-width="0.80" opacity="1.000"/>
<line x1="1172.00" y1="780.00" x2="1172.00" y2="790.00" stroke="#777777" stroke-width="0.80" opacity="1.000"/>
<text x="1172.0" y="806.0" font-size="12.0" font-weight="400" fill="#5f6368" text-anchor="middle">135.909</text>
<line x1="1488.00" y1="780.00" x2="1488.00" y2="790.00" stroke="#777777" stroke-width="0.80" opacity="1.000"/>
<line x1="1804.00" y1="780.00" x2="1804.00" y2="790.00" stroke="#777777" stroke-width="0.80" opacity="1.000"/>
<text x="1804.0" y="806.0" font-size="12.0" font-weight="400" fill="#5f6368" text-anchor="middle">136.109</text>
<line x1="2120.00" y1="780.00" x2="2120.00" y2="790.00" stroke="#777777" stroke-width="0.80" opacity="1.000"/>
<text x="2120.0" y="806.0" font-size="12.0" font-weight="400" fill="#5f6368" text-anchor="middle">136.209</text>
<text x="2135.0" y="806.0" font-size="12.0" font-weight="400" fill="#5f6368" text-anchor="start">Mb</text>
<text x="2120.0" y="824.0" font-size="11.0" font-weight="400" fill="#5f6368" text-anchor="middle">chr end</text>
<rect x="1142.54" y="743.00" width="963.80" height="6.00" rx="0.00" fill="#111111" stroke="none" stroke-width="0.00" opacity="1.000"/>
<rect x="1939.41" y="755.00" width="6.32" height="30.00" rx="1.00" fill="#D95F02" stroke="none" stroke-width="0.00" opacity="0.950"/>
<rect x="1952.05" y="755.00" width="6.32" height="30.00" rx="1.00" fill="#D95F02" stroke="none" stroke-width="0.00" opacity="0.950"/>
<rect x="1971.01" y="755.00" width="12.64" height="30.00" rx="1.00" fill="#D95F02" stroke="none" stroke-width="0.00" opacity="0.950"/>
<rect x="1989.97" y="755.00" width="63.20" height="30.00" rx="1.00" fill="#D95F02" stroke="none" stroke-width="0.00" opacity="0.950"/>
<rect x="2059.49" y="755.00" width="6.32" height="30.00" rx="1.00" fill="#D95F02" stroke="none" stroke-width="0.00" opacity="0.950"/>
<rect x="2084.77" y="755.00" width="6.32" height="30.00" rx="1.00" fill="#D95F02" stroke="none" stroke-width="0.00" opacity="0.950"/>
<rect x="2103.73" y="755.00" width="6.32" height="30.00" rx="1.00" fill="#D95F02" stroke="none" stroke-width="0.00" opacity="0.950"/>
<text x="512.0" y="865.0" font-size="18.0" font-weight="700" fill="#222222" text-anchor="end">PAN011 haplotype 2 (father) chr3q</text>
<rect x="540.00" y="846.00" width="1580.00" height="20.00" rx="2.00" fill="#f4f5f6" stroke="#c8ccd0" stroke-width="1.00" opacity="1.000"/>
<line x1="2120.00" y1="843.00" x2="2120.00" y2="869.00" stroke="#111111" stroke-width="2.20" opacity="1.000"/>
<polygon points="532.00,848.00 532.00,864.00 515.00,856.00" fill="#9aa0a6" stroke="none" stroke-width="0.00" opacity="0.950"/>
<line x1="540.00" y1="866.00" x2="540.00" y2="876.00" stroke="#777777" stroke-width="0.80" opacity="1.000"/>
<text x="540.0" y="892.0" font-size="12.0" font-weight="400" fill="#5f6368" text-anchor="middle">205.079</text>
<line x1="856.00" y1="866.00" x2="856.00" y2="876.00" stroke="#777777" stroke-width="0.80" opacity="1.000"/>
<line x1="1172.00" y1="866.00" x2="1172.00" y2="876.00" stroke="#777777" stroke-width="0.80" opacity="1.000"/>
<text x="1172.0" y="892.0" font-size="12.0" font-weight="400" fill="#5f6368" text-anchor="middle">205.279</text>
<line x1="1488.00" y1="866.00" x2="1488.00" y2="876.00" stroke="#777777" stroke-width="0.80" opacity="1.000"/>
<line x1="1804.00" y1="866.00" x2="1804.00" y2="876.00" stroke="#777777" stroke-width="0.80" opacity="1.000"/>
<text x="1804.0" y="892.0" font-size="12.0" font-weight="400" fill="#5f6368" text-anchor="middle">205.479</text>
<line x1="2120.00" y1="866.00" x2="2120.00" y2="876.00" stroke="#777777" stroke-width="0.80" opacity="1.000"/>
<text x="2120.0" y="892.0" font-size="12.0" font-weight="400" fill="#5f6368" text-anchor="middle">205.579</text>
<text x="2135.0" y="892.0" font-size="12.0" font-weight="400" fill="#5f6368" text-anchor="start">Mb</text>
<text x="2120.0" y="910.0" font-size="11.0" font-weight="400" fill="#5f6368" text-anchor="middle">chr end</text>
<rect x="1319.59" y="870.00" width="790.00" height="6.00" rx="0.00" fill="#111111" stroke="none" stroke-width="0.00" opacity="1.000"/>
<rect x="2106.95" y="842.00" width="6.24" height="28.00" rx="1.00" fill="#D95F02" stroke="none" stroke-width="0.00" opacity="0.950"/>
<path d="M 2103.73 787.00 C 2103.73 810.40, 2106.95 815.60, 2106.95 839.00 L 2113.19 839.00 C 2113.19 815.60, 2110.05 810.40, 2110.05 787.00 Z" fill="#D95F02" stroke="none" stroke-width="0.00" opacity="0.300"/>
<rect x="2087.98" y="842.00" width="6.32" height="28.00" rx="1.00" fill="#D95F02" stroke="none" stroke-width="0.00" opacity="0.950"/>
<path d="M 2084.77 787.00 C 2084.77 810.40, 2087.98 815.60, 2087.98 839.00 L 2094.30 839.00 C 2094.30 815.60, 2091.09 810.40, 2091.09 787.00 Z" fill="#D95F02" stroke="none" stroke-width="0.00" opacity="0.300"/>
<rect x="2062.70" y="842.00" width="6.32" height="28.00" rx="1.00" fill="#D95F02" stroke="none" stroke-width="0.00" opacity="0.950"/>
<path d="M 2059.49 787.00 C 2059.49 810.40, 2062.70 815.60, 2062.70 839.00 L 2069.02 839.00 C 2069.02 815.60, 2065.81 810.40, 2065.81 787.00 Z" fill="#D95F02" stroke="none" stroke-width="0.00" opacity="0.300"/>
<rect x="1993.20" y="842.00" width="63.18" height="28.00" rx="1.00" fill="#D95F02" stroke="none" stroke-width="0.00" opacity="0.950"/>
<path d="M 1989.97 787.00 C 1989.97 810.40, 1993.20 815.60, 1993.20 839.00 L 2056.38 839.00 C 2056.38 815.60, 2053.17 810.40, 2053.17 787.00 Z" fill="#D95F02" stroke="none" stroke-width="0.00" opacity="0.300"/>
<rect x="1974.23" y="842.00" width="12.65" height="28.00" rx="1.00" fill="#D95F02" stroke="none" stroke-width="0.00" opacity="0.950"/>
<path d="M 1971.01 787.00 C 1971.01 810.40, 1974.23 815.60, 1974.23 839.00 L 1986.88 839.00 C 1986.88 815.60, 1983.65 810.40, 1983.65 787.00 Z" fill="#D95F02" stroke="none" stroke-width="0.00" opacity="0.300"/>
<rect x="1955.27" y="842.00" width="6.32" height="28.00" rx="1.00" fill="#D95F02" stroke="none" stroke-width="0.00" opacity="0.950"/>
<path d="M 1952.05 787.00 C 1952.05 810.40, 1955.27 815.60, 1955.27 839.00 L 1961.59 839.00 C 1961.59 815.60, 1958.37 810.40, 1958.37 787.00 Z" fill="#D95F02" stroke="none" stroke-width="0.00" opacity="0.300"/>
<rect x="1942.63" y="842.00" width="6.32" height="28.00" rx="1.00" fill="#D95F02" stroke="none" stroke-width="0.00" opacity="0.950"/>
<path d="M 1939.41 787.00 C 1939.41 810.40, 1942.63 815.60, 1942.63 839.00 L 1948.95 839.00 C 1948.95 815.60, 1945.73 810.40, 1945.73 787.00 Z" fill="#D95F02" stroke="none" stroke-width="0.00" opacity="0.300"/>
</svg>
