<?xml version="1.0" encoding="UTF-8"?>
<svg xmlns="http://www.w3.org/2000/svg" width="1320" height="540" viewBox="0 0 1320 540">
<rect width="100%" height="100%" fill="#ffffff"/>
<style>text{font-family:Arial,Helvetica,sans-serif;fill:#20242a}.small{font-size:14px}.label{font-size:16px;font-weight:700}.title{font-size:22px;font-weight:700}.muted{fill:#66717d}</style>
<text class="title" x="40" y="44">Fig. 5 follow-up transmission check: chr9q -> chr3q candidate</text>
<text class="small muted" x="40" y="70">Strict nb=1 + sweepGA 1:1 no-scaffold segments, aligned on each 500 kb query window.</text>
<line x1="230.00" y1="94" x2="230.00" y2="400" stroke="#e0e4e8" stroke-width="1"/>
<text class="small muted" x="212.00" y="420">0 kb</text>
<line x1="436.00" y1="94" x2="436.00" y2="400" stroke="#e0e4e8" stroke-width="1"/>
<text class="small muted" x="418.00" y="420">100 kb</text>
<line x1="642.00" y1="94" x2="642.00" y2="400" stroke="#e0e4e8" stroke-width="1"/>
<text class="small muted" x="624.00" y="420">200 kb</text>
<line x1="848.00" y1="94" x2="848.00" y2="400" stroke="#e0e4e8" stroke-width="1"/>
<text class="small muted" x="830.00" y="420">300 kb</text>
<line x1="1054.00" y1="94" x2="1054.00" y2="400" stroke="#e0e4e8" stroke-width="1"/>
<text class="small muted" x="1036.00" y="420">400 kb</text>
<line x1="1260.00" y1="94" x2="1260.00" y2="400" stroke="#e0e4e8" stroke-width="1"/>
<text class="small muted" x="1242.00" y="420">500 kb</text>
<text class="label" x="40" y="119">PAN027 paternal hap2</text>
<text class="small muted" x="40" y="139">source: PAN011 father</text>
<rect x="230.00" y="135.00" width="1030.00" height="46.00" fill="#f7f8fa" stroke="#b7c0ca" stroke-width="0.6"/>
<rect x="230.00" y="139.00" width="100.73" height="38.00" fill="#a7aeb6" stroke="#89929c" stroke-width="0.6"/>
<text class="small" x="234.00" y="165" fill="#111">chr9q</text>
<rect x="330.73" y="139.00" width="574.78" height="38.00" fill="#a7aeb6" stroke="#89929c" stroke-width="0.6"/>
<text class="small" x="334.73" y="165" fill="#111">chr9q</text>
<rect x="905.51" y="139.00" width="2.49" height="38.00" fill="#7b51c8" stroke="#2a2f36" stroke-width="0.6"/>
<rect x="908.00" y="139.00" width="242.71" height="38.00" fill="#a7aeb6" stroke="#89929c" stroke-width="0.6"/>
<text class="small" x="912.00" y="165" fill="#111">chr9q</text>
<rect x="1150.70" y="139.00" width="52.52" height="38.00" fill="#2f7fbe" stroke="#2a2f36" stroke-width="0.6"/>
<text class="small" x="1154.70" y="165" fill="#111">chr3q</text>
<rect x="1203.23" y="139.00" width="7.88" height="38.00" fill="#2f7fbe" stroke="#2a2f36" stroke-width="0.6"/>
<rect x="1211.11" y="139.00" width="30.74" height="38.00" fill="#2f7fbe" stroke="#2a2f36" stroke-width="0.6"/>
<rect x="1241.84" y="139.00" width="14.98" height="38.00" fill="#d8a100" stroke="#2a2f36" stroke-width="0.6"/>
<rect x="1256.83" y="139.00" width="2.16" height="38.00" fill="#2f7fbe" stroke="#2a2f36" stroke-width="0.6"/>
<rect x="1258.98" y="139.00" width="1.20" height="38.00" fill="#b04f4f" stroke="#2a2f36" stroke-width="0.6"/>
<text class="small muted" x="230" y="201">chr9:135704825-136204825</text>
<text class="label" x="40" y="284">PAN028 maternal hap1</text>
<text class="small muted" x="40" y="304">source: PAN027 mother</text>
<rect x="230.00" y="300.00" width="1030.00" height="46.00" fill="#f7f8fa" stroke="#b7c0ca" stroke-width="0.6"/>
<rect x="230.00" y="304.00" width="9.59" height="38.00" fill="#a7aeb6" stroke="#89929c" stroke-width="0.6"/>
<rect x="239.59" y="304.00" width="92.66" height="38.00" fill="#a7aeb6" stroke="#89929c" stroke-width="0.6"/>
<text class="small" x="243.59" y="330" fill="#111">chr9q mat</text>
<rect x="332.25" y="304.00" width="304.50" height="38.00" fill="#a7aeb6" stroke="#89929c" stroke-width="0.6"/>
<text class="small" x="336.25" y="330" fill="#111">chr9q pat</text>
<rect x="636.76" y="304.00" width="26.94" height="38.00" fill="#a7aeb6" stroke="#89929c" stroke-width="0.6"/>
<rect x="663.70" y="304.00" width="16.85" height="38.00" fill="#a7aeb6" stroke="#89929c" stroke-width="0.6"/>
<rect x="680.55" y="304.00" width="58.71" height="38.00" fill="#a7aeb6" stroke="#89929c" stroke-width="0.6"/>
<text class="small" x="684.55" y="330" fill="#111">chr9q mat</text>
<rect x="739.27" y="304.00" width="2.89" height="38.00" fill="#a7aeb6" stroke="#89929c" stroke-width="0.6"/>
<rect x="742.16" y="304.00" width="53.29" height="38.00" fill="#a7aeb6" stroke="#89929c" stroke-width="0.6"/>
<text class="small" x="746.16" y="330" fill="#111">chr9q mat</text>
<rect x="795.45" y="304.00" width="108.55" height="38.00" fill="#a7aeb6" stroke="#89929c" stroke-width="0.6"/>
<text class="small" x="799.45" y="330" fill="#111">chr9q pat</text>
<rect x="904.00" y="304.00" width="2.10" height="38.00" fill="#a7aeb6" stroke="#89929c" stroke-width="0.6"/>
<rect x="906.10" y="304.00" width="2.49" height="38.00" fill="#7b51c8" stroke="#2a2f36" stroke-width="0.6"/>
<rect x="908.58" y="304.00" width="4.19" height="38.00" fill="#2f7fbe" stroke="#2a2f36" stroke-width="0.6"/>
<rect x="912.78" y="304.00" width="40.67" height="38.00" fill="#a7aeb6" stroke="#89929c" stroke-width="0.6"/>
<text class="small" x="916.78" y="330" fill="#111">chr9q pat</text>
<rect x="953.45" y="304.00" width="2.07" height="38.00" fill="#2f7fbe" stroke="#2a2f36" stroke-width="0.6"/>
<rect x="955.52" y="304.00" width="29.99" height="38.00" fill="#2f7fbe" stroke="#2a2f36" stroke-width="0.6"/>
<rect x="985.51" y="304.00" width="2.94" height="38.00" fill="#2f7fbe" stroke="#2a2f36" stroke-width="0.6"/>
<rect x="988.44" y="304.00" width="17.11" height="38.00" fill="#a7aeb6" stroke="#89929c" stroke-width="0.6"/>
<rect x="1005.55" y="304.00" width="5.41" height="38.00" fill="#2f7fbe" stroke="#2a2f36" stroke-width="0.6"/>
<rect x="1010.96" y="304.00" width="191.80" height="38.00" fill="#a7aeb6" stroke="#89929c" stroke-width="0.6"/>
<text class="small" x="1014.96" y="330" fill="#111">chr9q pat</text>
<rect x="1202.76" y="304.00" width="7.35" height="38.00" fill="#2f7fbe" stroke="#2a2f36" stroke-width="0.6"/>
<rect x="1210.11" y="304.00" width="31.24" height="38.00" fill="#d8a100" stroke="#2a2f36" stroke-width="0.6"/>
<rect x="1241.35" y="304.00" width="18.45" height="38.00" fill="#2f7fbe" stroke="#2a2f36" stroke-width="0.6"/>
<text class="small muted" x="230" y="366">chr9:134380985-134880985</text>
<text class="label" x="40" y="455">Color key</text>
<rect x="40.00" y="473.00" width="22.00" height="14.00" fill="#a7aeb6" stroke="#2a2f36" stroke-width="0.6"/>
<text class="small" x="70" y="485">chr9q</text>
<rect x="162.00" y="473.00" width="22.00" height="14.00" fill="#2f7fbe" stroke="#2a2f36" stroke-width="0.6"/>
<text class="small" x="192" y="485">chr3q</text>
<rect x="284.00" y="473.00" width="22.00" height="14.00" fill="#d8a100" stroke="#2a2f36" stroke-width="0.6"/>
<text class="small" x="314" y="485">chr15q</text>
<rect x="406.00" y="473.00" width="22.00" height="14.00" fill="#7b51c8" stroke="#2a2f36" stroke-width="0.6"/>
<text class="small" x="436" y="485">chr16q</text>
<rect x="528.00" y="473.00" width="22.00" height="14.00" fill="#b04f4f" stroke="#2a2f36" stroke-width="0.6"/>
<text class="small" x="558" y="485">chr20q</text>
<text class="small muted" x="40" y="515">Black outlines mark inter-chromosomal mappings; gray outlines mark same-chromosome chr9q context. The 493 bp chr20q tail in PAN027 is retained only as a low-confidence marker and is not recovered in PAN028.</text>
</svg>
